STARTFONT 2.1
COMMENT
COMMENT Converted from OpenType font "notosans.ttf" by "otf2bdf 3.0".
COMMENT
FONT -FreeType-Noto Sans-Medium-R-Normal--55-400-100-100-P-273-ISO10646-1
SIZE 40 100 100
FONTBOUNDINGBOX 191 97 -35 -22
STARTPROPERTIES 19
FOUNDRY "FreeType"
FAMILY_NAME "Noto Sans"
WEIGHT_NAME "Medium"
SLANT "R"
SETWIDTH_NAME "Normal"
ADD_STYLE_NAME ""
PIXEL_SIZE 55
POINT_SIZE 400
RESOLUTION_X 100
RESOLUTION_Y 100
SPACING "P"
AVERAGE_WIDTH 273
CHARSET_REGISTRY "ISO10646"
CHARSET_ENCODING "1"
FONT_ASCENT 59
FONT_DESCENT 16
COPYRIGHT "Copyright 2015-2021 Google LLC. All Rights Reserved."
_OTF_FONTFILE "notosans.ttf"
_OTF_PSNAME "NotoSans-Regular"
ENDPROPERTIES
CHARS 3053
STARTCHAR 0000
ENCODING 0
SWIDTH 0 0
DWIDTH 0 0
BBX 0 0 0 0
BITMAP
ENDCHAR
STARTCHAR 000D
ENCODING 13
SWIDTH 252 0
DWIDTH 14 0
BBX 0 0 0 0
BITMAP
ENDCHAR
STARTCHAR 0020
ENCODING 32
SWIDTH 252 0
DWIDTH 14 0
BBX 0 0 0 0
BITMAP
ENDCHAR
STARTCHAR 0021
ENCODING 33
SWIDTH 252 0
DWIDTH 14 0
BBX 7 41 4 -1
BITMAP
7C
7C
7C
7C
7C
7C
7C
7C
7C
7C
7C
7C
7C
7C
7C
7C
7C
7C
7C
7C
78
38
38
38
38
38
38
38
38
00
00
00
00
38
7C
FE
FE
FE
FE
7C
38
ENDCHAR
STARTCHAR 0022
ENCODING 34
SWIDTH 396 0
DWIDTH 22 0
BBX 15 15 4 25
BITMAP
F83E
F83E
F83E
F83E
F83E
F83E
F03E
F03E
F03C
F03C
F01C
F01C
701C
701C
701C
ENDCHAR
STARTCHAR 0023
ENCODING 35
SWIDTH 630 0
DWIDTH 35 0
BBX 33 40 1 0
BITMAP
0007807800
0007807000
000F00F000
000F00F000
000F00F000
000F00F000
000F00E000
001E01E000
001E01E000
001E01E000
001E01E000
001E01E000
3FFFFFFF80
3FFFFFFF80
3FFFFFFF80
3FFFFFFF80
003C03C000
0038078000
0078078000
0078078000
0078078000
0078078000
00700F0000
00F00F0000
00F00F0000
FFFFFFFF00
FFFFFFFF00
FFFFFFFF00
01E01E0000
01E01E0000
01E01E0000
01E01E0000
01E03C0000
03C03C0000
03C03C0000
03C03C0000
03C03C0000
03C0780000
0380780000
0780780000
ENDCHAR
STARTCHAR 0024
ENCODING 36
SWIDTH 558 0
DWIDTH 31 0
BBX 26 45 3 -3
BITMAP
001E0000
001E0000
001E0000
001E0000
001E0000
01FFF800
07FFFF00
1FFFFF00
3FFFFF00
7F1E1E00
7E1E0200
7C1E0000
F81E0000
F81E0000
F81E0000
7C1E0000
7C1E0000
7E1E0000
3FDE0000
3FFE0000
0FFF0000
07FFE000
01FFF800
003FFE00
001FFF00
001E7F80
001E1F80
001E0F80
001E07C0
001E07C0
001E07C0
001E07C0
001E0F80
C01E1F80
FC1EFF00
FFFFFE00
FFFFFC00
7FFFF800
0FFFC000
001E0000
001E0000
001E0000
001E0000
001E0000
001E0000
ENDCHAR
STARTCHAR 0025
ENCODING 37
SWIDTH 828 0
DWIDTH 46 0
BBX 40 41 3 -1
BITMAP
0FE0000780
1FF8000F80
3FFC000F00
7E7C001E00
783E001E00
781E003C00
F01F003C00
F00F007800
F00F00F800
F00F00F000
F00F01F000
F00F01E000
F00F03C000
F00F03C000
F00F078000
F00F078000
F00F0F0FF0
F00F1F1FF8
781E1E3FFC
781E3E3E7E
7C3E3C7C1E
3FFC7C781F
1FF878780F
0FF0F0F00F
0380F0F00F
0001E0F00F
0003E0F00F
0003C0F00F
0007C0F00F
000780F00F
000F80F00F
000F00F00F
001E00F00F
001E00780F
003C00781F
007C00781E
0078003C3E
00F8003FFC
00F0001FF8
01F0000FF0
0000000080
ENDCHAR
STARTCHAR 0026
ENCODING 38
SWIDTH 720 0
DWIDTH 40 0
BBX 37 41 3 -1
BITMAP
007FC00000
01FFF00000
03FFF80000
07FFFC0000
0FE07E0000
0F803E0000
0F803E0000
0F801E0000
0F001F0000
0F801E0000
0F803E0000
0F803E0000
07C07C0000
07E0FC0000
03E1F80000
03F7F00000
01FFE00000
00FF800000
00FF000000
03FF000000
07FF8003E0
0FEFE003E0
1F87F003C0
3F03F807C0
7E01FC07C0
7C00FE0F80
FC007F0F80
F8003F9F80
F8001FDF00
F8000FFE00
F80007FE00
F80003FC00
FC0001FC00
FC0007FE00
7E000FFF00
7F803FFF80
3FFFFF9FC0
1FFFFE0FE0
0FFFFC07F0
03FFE003F8
003A000000
ENDCHAR
STARTCHAR 0027
ENCODING 39
SWIDTH 216 0
DWIDTH 12 0
BBX 5 15 4 25
BITMAP
F8
F8
F8
F8
F8
F8
F0
F0
F0
F0
F0
F0
70
70
70
ENDCHAR
STARTCHAR 0028
ENCODING 40
SWIDTH 288 0
DWIDTH 16 0
BBX 13 49 2 -9
BITMAP
00F8
01F0
01E0
03E0
07C0
07C0
0F80
0F80
1F00
1F00
1F00
3E00
3E00
3E00
7C00
7C00
7C00
7C00
7C00
7800
F800
F800
F800
F800
F800
F800
F800
F800
F800
F800
7C00
7C00
7C00
7C00
7C00
3E00
3E00
3E00
3F00
1F00
1F00
0F80
0F80
07C0
07C0
03E0
01E0
01F0
00F8
ENDCHAR
STARTCHAR 0029
ENCODING 41
SWIDTH 288 0
DWIDTH 16 0
BBX 12 49 2 -9
BITMAP
F000
F800
7C00
3E00
3E00
1F00
1F00
0F80
0F80
07C0
07C0
07C0
03E0
03E0
03E0
03E0
01F0
01F0
01F0
01F0
01F0
01F0
01F0
01F0
01F0
01F0
01F0
01F0
01F0
01F0
01F0
01F0
01F0
01F0
03E0
03E0
03E0
07E0
07C0
07C0
0F80
0F80
1F00
1F00
3E00
3E00
7C00
7800
F800
ENDCHAR
STARTCHAR 002A
ENCODING 42
SWIDTH 540 0
DWIDTH 30 0
BBX 26 25 2 17
BITMAP
001F0000
001F0000
001F0000
001F0000
001E0000
001E0000
001E0000
001E0000
781E03C0
7F1E3FC0
7FFFFFC0
FFFFFFC0
FFFFFFC0
003F0000
003F8000
007FC000
00F3C000
01F3E000
01F1F000
03E1F800
07E0F800
0FC0FC00
0FC07C00
03807000
00800000
ENDCHAR
STARTCHAR 002B
ENCODING 43
SWIDTH 558 0
DWIDTH 31 0
BBX 26 27 3 6
BITMAP
001E0000
001E0000
001E0000
001E0000
001E0000
001E0000
001E0000
001E0000
001E0000
001E0000
001E0000
FFFFFFC0
FFFFFFC0
FFFFFFC0
FFFFFFC0
001E0000
001E0000
001E0000
001E0000
001E0000
001E0000
001E0000
001E0000
001E0000
001E0000
001E0000
001E0000
ENDCHAR
STARTCHAR 002C
ENCODING 44
SWIDTH 252 0
DWIDTH 14 0
BBX 9 13 2 -7
BITMAP
1F80
1F00
1F00
3F00
3E00
3E00
3E00
3C00
7C00
7800
7800
7800
F000
ENDCHAR
STARTCHAR 002D
ENCODING 45
SWIDTH 306 0
DWIDTH 17 0
BBX 14 4 2 13
BITMAP
FFFC
FFFC
FFFC
FFFC
ENDCHAR
STARTCHAR 002E
ENCODING 46
SWIDTH 252 0
DWIDTH 14 0
BBX 7 8 4 -1
BITMAP
38
7C
FE
FE
FE
FE
7C
38
ENDCHAR
STARTCHAR 002F
ENCODING 47
SWIDTH 360 0
DWIDTH 20 0
BBX 19 40 1 0
BITMAP
0003E0
0003E0
0003C0
0007C0
0007C0
000F80
000F80
000F00
001F00
001F00
001E00
003E00
003E00
007C00
007C00
007800
00F800
00F800
00F000
01F000
01F000
03E000
03E000
03C000
07C000
07C000
078000
0F8000
0F8000
1F0000
1F0000
1F0000
3E0000
3E0000
3C0000
7C0000
7C0000
F80000
F80000
F80000
ENDCHAR
STARTCHAR 0030
ENCODING 48
SWIDTH 558 0
DWIDTH 31 0
BBX 26 41 3 -1
BITMAP
00FF8000
03FFE000
07FFF800
0FFFFC00
1FC0FC00
3F007E00
3E003F00
3E001F00
7C001F00
7C000F80
7C000F80
F8000F80
F8000780
F80007C0
F80007C0
F80007C0
F80007C0
F80007C0
F80007C0
F80007C0
F80007C0
F80007C0
F80007C0
F80007C0
F80007C0
F80007C0
F80007C0
F80007C0
F8000F80
78000F80
7C000F80
7C000F80
3E001F00
3E001F00
1F003E00
1F80FE00
0FFFFC00
07FFF800
03FFF000
00FFC000
000E0000
ENDCHAR
STARTCHAR 0031
ENCODING 49
SWIDTH 558 0
DWIDTH 31 0
BBX 15 40 5 0
BITMAP
003E
007E
00FE
01FE
07FE
0FFE
1FBE
7F3E
FE3E
7C3E
703E
203E
003E
003E
003E
003E
003E
003E
003E
003E
003E
003E
003E
003E
003E
003E
003E
003E
003E
003E
003E
003E
003E
003E
003E
003E
003E
003E
003E
003E
ENDCHAR
STARTCHAR 0032
ENCODING 50
SWIDTH 558 0
DWIDTH 31 0
BBX 26 40 3 0
BITMAP
01FF8000
07FFF000
1FFFF800
7FFFFC00
FF01FE00
7C007E00
30003F00
00001F00
00001F00
00001F00
00001F00
00001F00
00001F00
00001F00
00001F00
00003E00
00003E00
00007C00
0000FC00
0000F800
0001F000
0003E000
0007E000
000FC000
001F8000
003F0000
007E0000
00FC0000
01F80000
03F00000
07E00000
0FC00000
1F800000
3F000000
7E000000
FC000000
FFFFFFC0
FFFFFFC0
FFFFFFC0
FFFFFFC0
ENDCHAR
STARTCHAR 0033
ENCODING 51
SWIDTH 558 0
DWIDTH 31 0
BBX 27 41 2 -1
BITMAP
01FFE000
07FFF800
1FFFFC00
7FFFFE00
7F807F00
3C003F80
10001F80
00000F80
00000F80
00000F80
00000F80
00000F80
00000F80
00001F80
00001F00
00003F00
0000FE00
01FFF800
01FFE000
01FFC000
01FFFC00
01FFFE00
00007F00
00001F80
00000FC0
000007C0
000007C0
000007E0
000007E0
000007E0
000007C0
000007C0
000007C0
00000FC0
C0001F80
F8007F80
FFFFFF00
FFFFFE00
7FFFF800
1FFFE000
00140000
ENDCHAR
STARTCHAR 0034
ENCODING 52
SWIDTH 558 0
DWIDTH 31 0
BBX 30 40 1 0
BITMAP
00001F00
00003F00
00007F00
0000FF00
0000FF00
0001FF00
0003FF00
0003DF00
0007DF00
000F9F00
000F1F00
001F1F00
003E1F00
007C1F00
00781F00
00F81F00
01F01F00
01E01F00
03E01F00
07C01F00
07801F00
0F801F00
1F001F00
3E001F00
3C001F00
7C001F00
F8001F00
FFFFFFFC
FFFFFFFC
FFFFFFFC
FFFFFFFC
00001F00
00001F00
00001F00
00001F00
00001F00
00001F00
00001F00
00001F00
00001F00
ENDCHAR
STARTCHAR 0035
ENCODING 53
SWIDTH 558 0
DWIDTH 31 0
BBX 26 41 3 -1
BITMAP
1FFFFE00
1FFFFE00
1FFFFE00
1FFFFE00
1FFFFE00
1E000000
3E000000
3E000000
3E000000
3E000000
3E000000
3E000000
3C000000
3C000000
3C000000
3C000000
3FFFC000
3FFFF000
7FFFFC00
3FFFFE00
0000FF00
00003F00
00001F80
00000F80
00000F80
00000F80
000007C0
000007C0
000007C0
00000F80
00000F80
00000F80
00001F80
00001F00
C0003F00
F800FE00
FFFFFC00
FFFFF800
7FFFF000
1FFF8000
00F80000
ENDCHAR
STARTCHAR 0036
ENCODING 54
SWIDTH 558 0
DWIDTH 31 0
BBX 26 41 3 -1
BITMAP
000FFE00
003FFE00
00FFFE00
01FFFE00
03F80000
07E00000
0FC00000
1F800000
1F000000
3E000000
3E000000
3C000000
7C000000
7C000000
7C000000
781FC000
F87FF800
F9FFFC00
FBFFFE00
FFE07F00
FF001F80
FE000F80
FC000FC0
FC0007C0
F80007C0
F80007C0
F80007C0
F80007C0
780007C0
780007C0
7C0007C0
7C0007C0
3E000F80
3E000F80
1F001F80
1FC07F00
0FFFFE00
07FFFC00
03FFF800
00FFE000
00040000
ENDCHAR
STARTCHAR 0037
ENCODING 55
SWIDTH 558 0
DWIDTH 31 0
BBX 27 40 2 0
BITMAP
FFFFFFE0
FFFFFFE0
FFFFFFE0
FFFFFFE0
FFFFFFE0
000007C0
000007C0
000007C0
00000F80
00000F80
00001F00
00001F00
00003E00
00003E00
00007C00
00007C00
0000FC00
0000F800
0001F800
0001F000
0001F000
0003E000
0003E000
0007C000
0007C000
000F8000
000F8000
001F8000
001F0000
003F0000
003E0000
007E0000
007C0000
007C0000
00F80000
00F80000
01F80000
01F00000
03F00000
03E00000
ENDCHAR
STARTCHAR 0038
ENCODING 56
SWIDTH 558 0
DWIDTH 31 0
BBX 26 41 3 -1
BITMAP
00FFC000
03FFF000
0FFFFC00
1FFFFE00
3F807E00
3E003F00
7E001F00
7C000F80
7C000F80
7C000F80
7C000F80
7C000F00
7E001F00
3E001F00
3F003E00
1FC0FC00
0FF3F800
07FFF000
01FFC000
01FFC000
03FFF000
0FF7F800
1F81FE00
3F007F00
7E003F00
7C001F80
F8000F80
F80007C0
F80007C0
F80007C0
F80007C0
F80007C0
F80007C0
F8000F80
7C001F80
7F003F00
3FF3FF00
1FFFFE00
0FFFF800
03FFE000
000C0000
ENDCHAR
STARTCHAR 0039
ENCODING 57
SWIDTH 558 0
DWIDTH 31 0
BBX 26 41 3 -1
BITMAP
00FF8000
03FFE000
0FFFF000
1FFFF800
3F80FC00
3F007E00
7C003F00
7C001F00
F8000F80
F8000F80
F8000F80
F8000780
F80007C0
F80007C0
F80007C0
F80007C0
F8000FC0
F8000FC0
7C001FC0
7E003FC0
3F00FFC0
3FFFF7C0
1FFFE7C0
07FFC780
01FF0780
00000F80
00000F80
00000F80
00000F00
00001F00
00001F00
00003E00
00007E00
00007C00
0001FC00
0007F800
1EFFF000
1FFFE000
1FFF8000
1FFE0000
01C00000
ENDCHAR
STARTCHAR 003A
ENCODING 58
SWIDTH 252 0
DWIDTH 14 0
BBX 7 32 4 -1
BITMAP
10
7C
FE
FE
FE
FE
7C
78
00
00
00
00
00
00
00
00
00
00
00
00
00
00
00
00
38
7C
FE
FE
FE
FE
7C
38
ENDCHAR
STARTCHAR 003B
ENCODING 59
SWIDTH 252 0
DWIDTH 14 0
BBX 9 38 2 -7
BITMAP
0400
1F00
3F80
3F80
3F80
3F80
3F00
1E00
0000
0000
0000
0000
0000
0000
0000
0000
0000
0000
0000
0000
0000
0000
0000
0000
0000
3F00
3F00
3F00
3E00
3E00
7E00
7C00
7C00
7800
7800
F800
F000
F000
ENDCHAR
STARTCHAR 003C
ENCODING 60
SWIDTH 558 0
DWIDTH 31 0
BBX 26 27 3 6
BITMAP
00000040
000001C0
000007C0
00001FC0
00007FC0
0001FF00
0007FC00
001FF000
007FC000
01FE0000
07F80000
1FE00000
7F800000
FE000000
F8000000
FF000000
7FC00000
1FF00000
07FE0000
00FF8000
003FF000
000FFC00
0003FF00
00007FC0
00001FC0
000007C0
000000C0
ENDCHAR
STARTCHAR 003D
ENCODING 61
SWIDTH 558 0
DWIDTH 31 0
BBX 26 15 3 12
BITMAP
FFFFFFC0
FFFFFFC0
FFFFFFC0
FFFFFFC0
00000000
00000000
00000000
00000000
00000000
00000000
00000000
FFFFFFC0
FFFFFFC0
FFFFFFC0
FFFFFFC0
ENDCHAR
STARTCHAR 003E
ENCODING 62
SWIDTH 558 0
DWIDTH 31 0
BBX 26 26 3 7
BITMAP
C0000000
F0000000
FC000000
FF000000
3FC00000
0FF00000
03FC0000
00FF0000
003FC000
000FF000
0003FC00
0000FF00
00001FC0
000007C0
00003FC0
0000FF80
0007FE00
001FF000
007FC000
03FF0000
0FFC0000
7FE00000
FF800000
FE000000
F0000000
C0000000
ENDCHAR
STARTCHAR 003F
ENCODING 63
SWIDTH 432 0
DWIDTH 24 0
BBX 22 41 1 -1
BITMAP
07FF00
3FFFC0
FFFFE0
FFFFF0
7C07F0
6001F8
0000F8
00007C
00007C
00007C
00007C
00007C
0000F8
0000F8
0001F0
0003F0
0007E0
000FC0
001F80
003F00
007E00
00FC00
00F800
01F000
01E000
01E000
01E000
01E000
01E000
000000
000000
000000
000000
00C000
03F000
03F000
07F000
03F000
03F000
03F000
01C000
ENDCHAR
STARTCHAR 0040
ENCODING 64
SWIDTH 882 0
DWIDTH 49 0
BBX 44 45 3 -5
BITMAP
000003E00000
0000FFFE0000
0007FFFFC000
001FFFFFE000
003FE00FF800
00FE0001FC00
01F800007E00
03F000003F00
07C000000F00
078000000F80
0F80000007C0
1F000FF003C0
1E007FFF03C0
3E00FFFF01E0
3C01FFFF01E0
3C03E01E01E0
7807C01E00E0
7807801E00F0
780F801E00F0
780F001E00F0
F00F001E00F0
F01F001E00F0
F01F001E00F0
F01F001E00E0
F01F001E01E0
F01F003E01E0
F00F003E01E0
F00F003E03C0
F80F807E03C0
7807C0FF0780
7807FFE7FF80
7803FFC7FF00
7C01FF83FE00
3C007E00F800
3E0000000000
1E0000000000
1F0000000000
0F8000000000
07E000000000
03F000018000
01FE000F8000
00FFFFFF8000
003FFFFF8000
000FFFFE0000
0000FFC00000
ENDCHAR
STARTCHAR 0041
ENCODING 65
SWIDTH 630 0
DWIDTH 35 0
BBX 35 40 0 0
BITMAP
0001F00000
0001F80000
0001F80000
0003F80000
0003FC0000
0007FC0000
0007BC0000
0007BE0000
000F9E0000
000F9F0000
001F1F0000
001F0F0000
001F0F8000
003E0F8000
003E07C000
003C07C000
007C07C000
007C03E000
00F803E000
00F801F000
00F801F000
01F001F000
01F000F800
03FFFFF800
03FFFFF800
03FFFFFC00
07FFFFFC00
07FFFFFE00
0F80003E00
0F80003E00
0F80001F00
1F00001F00
1F00001F80
1F00000F80
3E00000F80
3E000007C0
7C000007C0
7C000007C0
7C000003E0
F8000003E0
ENDCHAR
STARTCHAR 0042
ENCODING 66
SWIDTH 648 0
DWIDTH 36 0
BBX 28 40 5 0
BITMAP
FFFF0000
FFFFF800
FFFFFE00
FFFFFF00
FFFFFF80
F8003FC0
F8000FC0
F80007C0
F80007E0
F80003E0
F80003E0
F80003E0
F80007E0
F80007C0
F80007C0
F8000F80
F8003F00
FFFFFE00
FFFFF800
FFFFF800
FFFFFE00
F803FF80
F8001FC0
F80007E0
F80003E0
F80003F0
F80001F0
F80001F0
F80001F0
F80001F0
F80001F0
F80003F0
F80003F0
F80007E0
F8000FE0
F8007FC0
FFFFFF80
FFFFFF00
FFFFFC00
FFFFE000
ENDCHAR
STARTCHAR 0043
ENCODING 67
SWIDTH 630 0
DWIDTH 35 0
BBX 30 41 3 -1
BITMAP
0007FFC0
001FFFF8
007FFFFC
01FFFFFC
03FF01F8
07F80038
0FE00000
0FC00000
1F800000
1F800000
3F000000
3E000000
7E000000
7E000000
7C000000
7C000000
7C000000
FC000000
FC000000
FC000000
FC000000
FC000000
FC000000
7C000000
7C000000
7C000000
7C000000
7E000000
3E000000
3F000000
3F000000
1F800000
1FC00000
0FE00000
0FF00000
07FE0078
03FFFFF8
00FFFFF8
007FFFF8
000FFFE0
0000F000
ENDCHAR
STARTCHAR 0044
ENCODING 68
SWIDTH 720 0
DWIDTH 40 0
BBX 32 40 5 0
BITMAP
FFFF0000
FFFFF000
FFFFFE00
FFFFFF80
FFFFFFC0
F8003FE0
F8000FF0
F80003F8
F80001F8
F80000FC
F800007C
F800007E
F800003E
F800003E
F800003F
F800001F
F800001F
F800001F
F800001F
F800001F
F800001F
F800001F
F800001F
F800001F
F800003F
F800003F
F800003E
F800003E
F800007E
F800007C
F80000FC
F80001F8
F80003F8
F80007F0
F8003FE0
F803FFC0
FFFFFF80
FFFFFE00
FFFFF800
FFFF8000
ENDCHAR
STARTCHAR 0045
ENCODING 69
SWIDTH 540 0
DWIDTH 30 0
BBX 23 40 5 0
BITMAP
FFFFFE
FFFFFE
FFFFFE
FFFFFE
FFFFFE
F80000
F80000
F80000
F80000
F80000
F80000
F80000
F80000
F80000
F80000
F80000
F80000
FFFFFC
FFFFFC
FFFFFC
FFFFFC
F80000
F80000
F80000
F80000
F80000
F80000
F80000
F80000
F80000
F80000
F80000
F80000
F80000
F80000
F80000
FFFFFE
FFFFFE
FFFFFE
FFFFFE
ENDCHAR
STARTCHAR 0046
ENCODING 70
SWIDTH 504 0
DWIDTH 28 0
BBX 23 40 5 0
BITMAP
FFFFFE
FFFFFE
FFFFFE
FFFFFE
FFFFFE
F80000
F80000
F80000
F80000
F80000
F80000
F80000
F80000
F80000
F80000
F80000
F80000
F80000
F80000
FFFFFC
FFFFFC
FFFFFC
FFFFFC
F80000
F80000
F80000
F80000
F80000
F80000
F80000
F80000
F80000
F80000
F80000
F80000
F80000
F80000
F80000
F80000
F80000
ENDCHAR
STARTCHAR 0047
ENCODING 71
SWIDTH 720 0
DWIDTH 40 0
BBX 33 41 3 -1
BITMAP
0001FFF000
000FFFFE00
003FFFFF80
00FFFFFF00
01FF807F00
03FC000E00
07F0000000
0FE0000000
1FC0000000
1F80000000
3F00000000
3E00000000
7E00000000
7E00000000
7C00000000
7C00000000
7C00000000
FC00000000
FC00000000
FC000FFF80
FC000FFF80
FC000FFF80
FC000FFF80
7C000FFF80
7C00000F80
7C00000F80
7C00000F80
7E00000F80
3E00000F80
3F00000F80
3F00000F80
1F80000F80
1FC0000F80
0FE0000F80
07F0000F80
03FE001F80
01FFFFFF80
00FFFFFF80
003FFFFF80
000FFFFC00
0000380000
ENDCHAR
STARTCHAR 0048
ENCODING 72
SWIDTH 738 0
DWIDTH 41 0
BBX 31 40 5 0
BITMAP
F800003E
F800003E
F800003E
F800003E
F800003E
F800003E
F800003E
F800003E
F800003E
F800003E
F800003E
F800003E
F800003E
F800003E
F800003E
F800003E
F800003E
FFFFFFFE
FFFFFFFE
FFFFFFFE
FFFFFFFE
FFFFFFFE
F800003E
F800003E
F800003E
F800003E
F800003E
F800003E
F800003E
F800003E
F800003E
F800003E
F800003E
F800003E
F800003E
F800003E
F800003E
F800003E
F800003E
F800003E
ENDCHAR
STARTCHAR 0049
ENCODING 73
SWIDTH 324 0
DWIDTH 18 0
BBX 15 40 2 0
BITMAP
FFFE
FFFE
FFFE
7FF8
07C0
07C0
07C0
07C0
07C0
07C0
07C0
07C0
07C0
07C0
07C0
07C0
07C0
07C0
07C0
07C0
07C0
07C0
07C0
07C0
07C0
07C0
07C0
07C0
07C0
07C0
07C0
07C0
07C0
07C0
07C0
07C0
1FF0
FFFE
FFFE
FFFE
ENDCHAR
STARTCHAR 004A
ENCODING 74
SWIDTH 270 0
DWIDTH 15 0
BBX 14 51 -4 -11
BITMAP
007C
007C
007C
007C
007C
007C
007C
007C
007C
007C
007C
007C
007C
007C
007C
007C
007C
007C
007C
007C
007C
007C
007C
007C
007C
007C
007C
007C
007C
007C
007C
007C
007C
007C
007C
007C
007C
007C
007C
007C
007C
007C
007C
00FC
00F8
01F8
FFF0
FFF0
FFC0
FF80
1800
ENDCHAR
STARTCHAR 004B
ENCODING 75
SWIDTH 612 0
DWIDTH 34 0
BBX 29 40 5 0
BITMAP
F80001F8
F80003F0
F80007E0
F8000FC0
F8001F80
F8003F00
F8007E00
F8007C00
F800F800
F801F000
F803F000
F807E000
F80FC000
F81F8000
F83F0000
F87E0000
F8FC0000
F9F80000
F9FC0000
FBFC0000
FFFE0000
FFBF0000
FF1F8000
FE1F8000
FC0FC000
F807E000
F807F000
F803F000
F801F800
F800FC00
F800FC00
F8007E00
F8003F00
F8001F80
F8001F80
F8000FC0
F80007E0
F80003F0
F80003F0
F80001F8
ENDCHAR
STARTCHAR 004C
ENCODING 76
SWIDTH 522 0
DWIDTH 29 0
BBX 23 40 5 0
BITMAP
F80000
F80000
F80000
F80000
F80000
F80000
F80000
F80000
F80000
F80000
F80000
F80000
F80000
F80000
F80000
F80000
F80000
F80000
F80000
F80000
F80000
F80000
F80000
F80000
F80000
F80000
F80000
F80000
F80000
F80000
F80000
F80000
F80000
F80000
F80000
F80000
FFFFFE
FFFFFE
FFFFFE
FFFFFE
ENDCHAR
STARTCHAR 004D
ENCODING 77
SWIDTH 900 0
DWIDTH 50 0
BBX 40 40 5 0
BITMAP
FF0000007F
FF000000FF
FF800000FF
FF800001FF
FF800001FF
FFC00001FF
FFC00003FF
FBC00003DF
FBE00003DF
FBE00007DF
F9F000079F
F9F0000F9F
F8F0000F9F
F8F8000F1F
F8F8001F1F
F878001E1F
F87C003E1F
F87C003E1F
F83E003C1F
F83E007C1F
F81E00781F
F81F00781F
F81F00F81F
F80F80F01F
F80F81F01F
F80F81F01F
F807C1E01F
F807C3E01F
F803C3C01F
F803E7C01F
F803E7C01F
F801E7801F
F801FF801F
F801FF001F
F800FF001F
F800FF001F
F8007E001F
F8007E001F
F8007E001F
F8003C001F
ENDCHAR
STARTCHAR 004E
ENCODING 78
SWIDTH 756 0
DWIDTH 42 0
BBX 32 40 5 0
BITMAP
FC00001F
FE00001F
FF00001F
FF00001F
FF80001F
FFC0001F
FFC0001F
FFE0001F
FBE0001F
FBF0001F
F9F8001F
F8F8001F
F8FC001F
F87E001F
F83E001F
F83F001F
F81F801F
F80F801F
F80FC01F
F807E01F
F807E01F
F803F01F
F801F01F
F801F81F
F800FC1F
F8007C1F
F8007E1F
F8003F1F
F8001F1F
F8001F9F
F8000FDF
F80007DF
F80007EF
F80003FF
F80003FF
F80001FF
F80000FF
F80000FF
F800007F
F800003F
ENDCHAR
STARTCHAR 004F
ENCODING 79
SWIDTH 774 0
DWIDTH 43 0
BBX 37 41 3 -1
BITMAP
0007FF8000
003FFFE000
00FFFFF800
01FFFFFE00
03FE03FF00
07F0007F80
0FE0001F80
1FC0000FC0
1F800007E0
3F000007E0
3F000003E0
3E000003F0
7E000001F0
7C000001F0
7C000001F0
7C000001F8
7C000000F8
FC000000F8
FC000000F8
FC000000F8
FC000000F8
FC000000F8
FC000000F8
7C000000F8
7C000001F8
7C000001F8
7C000001F0
7E000001F0
3E000003F0
3E000003E0
3F000007E0
1F800007E0
1F80000FC0
0FC0001F80
07F0003F80
07FC00FF00
03FFFFFE00
00FFFFFC00
007FFFF000
000FFFC000
0000300000
ENDCHAR
STARTCHAR 0050
ENCODING 80
SWIDTH 594 0
DWIDTH 33 0
BBX 26 40 5 0
BITMAP
FFFC0000
FFFFE000
FFFFF800
FFFFFC00
FFFFFE00
F800FF00
F8003F80
F8001F80
F8000F80
F8000FC0
F8000FC0
F80007C0
F80007C0
F80007C0
F8000FC0
F8000F80
F8000F80
F8001F80
F8003F00
F800FE00
FFFFFE00
FFFFF800
FFFFF000
FFFFC000
FFE00000
F8000000
F8000000
F8000000
F8000000
F8000000
F8000000
F8000000
F8000000
F8000000
F8000000
F8000000
F8000000
F8000000
F8000000
F8000000
ENDCHAR
STARTCHAR 0051
ENCODING 81
SWIDTH 774 0
DWIDTH 43 0
BBX 37 49 3 -9
BITMAP
0007FF8000
003FFFE000
00FFFFF800
01FFFFFE00
03FE03FF00
07F0007F80
0FE0001F80
1FC0000FC0
1F800007E0
3F000007E0
3F000003E0
3E000003F0
7E000001F0
7C000001F0
7C000001F0
7C000001F8
7C000000F8
FC000000F8
FC000000F8
FC000000F8
FC000000F8
FC000000F8
FC000000F8
7C000000F8
7C000001F8
7C000001F8
7C000001F0
7E000001F0
3E000003F0
3E000003E0
3F000007E0
1F800007E0
1F80000FC0
0FC0001F80
07F0003F80
07FC00FF00
03FFFFFE00
00FFFFFC00
007FFFF000
000FFFC000
00003FC000
000007E000
000003F000
000001F800
000000FC00
000000FE00
0000007F00
0000003F80
0000001FC0
ENDCHAR
STARTCHAR 0052
ENCODING 82
SWIDTH 612 0
DWIDTH 34 0
BBX 28 40 5 0
BITMAP
FFFE0000
FFFFE000
FFFFF800
FFFFFE00
FFFFFF00
F8007F00
F8001F80
F8001F80
F8000F80
F8000FC0
F80007C0
F80007C0
F80007C0
F8000FC0
F8000FC0
F8000F80
F8001F80
F8003F00
F8007F00
FFFFFE00
FFFFF800
FFFFF000
FFFFC000
FFFFE000
F803E000
F803F000
F801F000
F800F800
F800FC00
F8007C00
F8007E00
F8003F00
F8003F00
F8001F80
F8000F80
F8000FC0
F80007E0
F80007E0
F80003F0
F80001F0
ENDCHAR
STARTCHAR 0053
ENCODING 83
SWIDTH 540 0
DWIDTH 30 0
BBX 25 41 3 -1
BITMAP
00FFE000
07FFFE00
0FFFFF00
1FFFFE00
3FC0FE00
7F000E00
7E000000
7C000000
FC000000
F8000000
F8000000
FC000000
7C000000
7C000000
7E000000
3F800000
3FE00000
1FF80000
0FFF0000
03FFC000
00FFF000
003FF800
0007FC00
0001FE00
00007F00
00003F00
00001F80
00001F80
00000F80
00000F80
00000F80
00000F80
00001F00
00001F00
80003F00
F800FE00
FFFFFC00
FFFFF800
FFFFF000
3FFFC000
00700000
ENDCHAR
STARTCHAR 0054
ENCODING 84
SWIDTH 540 0
DWIDTH 30 0
BBX 29 40 1 0
BITMAP
FFFFFFF8
FFFFFFF8
FFFFFFF8
FFFFFFF8
FFFFFFF8
000F8000
000F8000
000F8000
000F8000
000F8000
000F8000
000F8000
000F8000
000F8000
000F8000
000F8000
000F8000
000F8000
000F8000
000F8000
000F8000
000F8000
000F8000
000F8000
000F8000
000F8000
000F8000
000F8000
000F8000
000F8000
000F8000
000F8000
000F8000
000F8000
000F8000
000F8000
000F8000
000F8000
000F8000
000F8000
ENDCHAR
STARTCHAR 0055
ENCODING 85
SWIDTH 720 0
DWIDTH 40 0
BBX 31 41 5 -1
BITMAP
F800003E
F800003E
F800003E
F800003E
F800003E
F800003E
F800003E
F800003E
F800003E
F800003E
F800003E
F800003E
F800003E
F800003E
F800003E
F800003E
F800003E
F800003E
F800003E
F800003E
F800003E
F800003E
F800003E
F800003E
F800003E
F800003E
F800003E
F800003C
F800007C
F800007C
7C00007C
7C0000FC
7E0000F8
3F0001F8
3F8003F0
1FE00FF0
0FFFFFE0
07FFFFC0
03FFFF00
00FFFC00
00030000
ENDCHAR
STARTCHAR 0056
ENCODING 86
SWIDTH 594 0
DWIDTH 33 0
BBX 33 40 0 0
BITMAP
F800000F80
FC00000F80
7C00001F80
7C00001F00
7E00001F00
3E00003F00
3E00003E00
1F00003E00
1F00007C00
1F00007C00
0F8000FC00
0F8000F800
0FC000F800
07C001F800
07C001F000
07E001F000
03E003F000
03E003E000
03F003E000
01F007E000
01F007C000
00F807C000
00F80F8000
00F80F8000
007C0F8000
007C1F0000
007C1F0000
003E1F0000
003E3E0000
003E3E0000
001F3E0000
001F7C0000
001F7C0000
000F7C0000
000FF80000
0007F80000
0007F00000
0007F00000
0003F00000
0003E00000
ENDCHAR
STARTCHAR 0057
ENCODING 87
SWIDTH 918 0
DWIDTH 51 0
BBX 50 40 1 0
BITMAP
F80003E00007C0
F80003F0000FC0
F80007F0000F80
7C0007F0000F80
7C0007F0000F80
7C0007F8001F80
7C000FF8001F00
3E000F78001F00
3E000F7C001F00
3E001F7C003F00
3E001F3C003E00
1F001E3E003E00
1F003E3E003E00
1F003E3E007C00
1F803E1F007C00
0F803C1F007C00
0F807C1F007C00
0F807C0F00F800
0FC0780F80F800
07C0F80F80F800
07C0F80780F800
07C0F807C1F000
03E0F007C1F000
03E1F007C1F000
03E1F003E1F000
03E1E003E3E000
01F3E003E3E000
01F3E001E3E000
01F3E001F3C000
01F3C001F7C000
00F7C000F7C000
00FFC000F7C000
00FF8000F78000
00FF8000FF8000
007F80007F8000
007F80007F8000
007F00007F0000
003F00003F0000
003F00003F0000
003E00003F0000
ENDCHAR
STARTCHAR 0058
ENCODING 88
SWIDTH 576 0
DWIDTH 32 0
BBX 31 40 1 0
BITMAP
FC00007C
7C0000FC
7E0000F8
3F0001F0
1F0003F0
1F8003E0
0F8007C0
07C007C0
07E00F80
03E01F00
01F01F00
01F83E00
00F87C00
007C7C00
007CF800
003EF800
001FF000
001FE000
000FE000
000FC000
000FE000
001FF000
003FF000
003EF800
007CF800
00F87C00
00F87E00
01F03E00
01F01F00
03E01F80
07C00F80
07C00FC0
0F8007E0
1F8003E0
1F0003F0
3E0001F0
7E0000F8
7C0000FC
F800007C
F800007E
ENDCHAR
STARTCHAR 0059
ENCODING 89
SWIDTH 558 0
DWIDTH 31 0
BBX 31 40 0 0
BITMAP
FC00003E
7C00007E
7E00007C
3E0000FC
3F0000F8
1F0001F8
1F8001F0
0F8003F0
0FC003E0
07C007C0
07E007C0
03E00F80
01F00F80
01F01F00
00F81F00
00F83E00
007C7E00
007C7C00
003EFC00
003FF800
001FF000
001FF000
000FE000
000FE000
0007C000
0007C000
0007C000
0007C000
0007C000
0007C000
0007C000
0007C000
0007C000
0007C000
0007C000
0007C000
0007C000
0007C000
0007C000
0007C000
ENDCHAR
STARTCHAR 005A
ENCODING 90
SWIDTH 558 0
DWIDTH 31 0
BBX 28 40 2 0
BITMAP
7FFFFFE0
7FFFFFE0
7FFFFFE0
7FFFFFE0
7FFFFFE0
000007C0
00000F80
00001F80
00001F00
00003E00
00007E00
00007C00
0000F800
0001F800
0001F000
0003F000
0007E000
0007C000
000FC000
001F8000
001F0000
003F0000
007E0000
007C0000
00FC0000
01F80000
01F00000
03F00000
07E00000
07C00000
0FC00000
1F800000
1F000000
3F000000
7E000000
7C000000
FFFFFFF0
FFFFFFF0
FFFFFFF0
FFFFFFF0
ENDCHAR
STARTCHAR 005B
ENCODING 91
SWIDTH 324 0
DWIDTH 18 0
BBX 13 49 4 -9
BITMAP
FFF8
FFF8
FFF8
FFF8
F800
F800
F800
F800
F800
F800
F800
F800
F800
F800
F800
F800
F800
F800
F800
F800
F800
F800
F800
F800
F800
F800
F800
F800
F800
F800
F800
F800
F800
F800
F800
F800
F800
F800
F800
F800
F800
F800
F800
F800
F800
FFF8
FFF8
FFF8
FFF8
ENDCHAR
STARTCHAR 005C
ENCODING 92
SWIDTH 360 0
DWIDTH 20 0
BBX 19 40 1 0
BITMAP
F00000
F80000
F80000
7C0000
7C0000
7C0000
3E0000
3E0000
1E0000
1F0000
1F0000
0F8000
0F8000
0F8000
07C000
07C000
03C000
03E000
03E000
01E000
01F000
01F000
00F800
00F800
007800
007C00
007C00
003E00
003E00
003E00
001F00
001F00
000F00
000F80
000F80
000780
0007C0
0007C0
0003E0
0003E0
ENDCHAR
STARTCHAR 005D
ENCODING 93
SWIDTH 324 0
DWIDTH 18 0
BBX 13 49 1 -9
BITMAP
FFF8
FFF8
FFF8
FFF8
00F8
00F8
00F8
00F8
00F8
00F8
00F8
00F8
00F8
00F8
00F8
00F8
00F8
00F8
00F8
00F8
00F8
00F8
00F8
00F8
00F8
00F8
00F8
00F8
00F8
00F8
00F8
00F8
00F8
00F8
00F8
00F8
00F8
00F8
00F8
00F8
00F8
00F8
00F8
00F8
00F8
FFF8
FFF8
FFF8
FFF8
ENDCHAR
STARTCHAR 005E
ENCODING 94
SWIDTH 558 0
DWIDTH 31 0
BBX 27 25 2 15
BITMAP
000E0000
001E0000
001F0000
003F0000
003F8000
007FC000
007BC000
00F3E000
00F1E000
01E1F000
01E0F000
01E0F800
03C07800
03C07C00
07803C00
07803E00
0F001E00
0F001F00
1E000F00
1E000F80
3E000780
3C0007C0
7C0003C0
780003E0
F80001E0
ENDCHAR
STARTCHAR 005F
ENCODING 95
SWIDTH 432 0
DWIDTH 24 0
BBX 25 4 0 -9
BITMAP
FFFFFF80
FFFFFF80
FFFFFF80
FFFFFF80
ENDCHAR
STARTCHAR 0060
ENCODING 96
SWIDTH 270 0
DWIDTH 15 0
BBX 11 9 2 34
BITMAP
FC00
7E00
7E00
3F00
1F00
0F80
07C0
03E0
01E0
ENDCHAR
STARTCHAR 0061
ENCODING 97
SWIDTH 558 0
DWIDTH 31 0
BBX 24 31 3 -1
BITMAP
01FFC0
0FFFF0
1FFFF8
1FFFFC
0F00FE
08003E
00003E
00001F
00001F
00001F
00001F
00001F
003FFF
03FFFF
0FFFFF
3FFF9F
7F801F
7E001F
FC001F
F8001F
F8001F
F8003F
F8003F
F8007F
F800FF
FC01FF
7F8FDF
7FFF8F
3FFF0F
0FFE0F
01C000
ENDCHAR
STARTCHAR 0062
ENCODING 98
SWIDTH 612 0
DWIDTH 34 0
BBX 26 43 5 -1
BITMAP
F8000000
F8000000
F8000000
F8000000
F8000000
F8000000
F8000000
F8000000
F8000000
F8000000
F8000000
F8000000
F87FC000
F9FFF000
F3FFFC00
F7FFFE00
FF80FE00
FE003F00
FC001F80
FC000F80
FC000F80
F8000FC0
F80007C0
F80007C0
F80007C0
F80007C0
F80007C0
F80007C0
F80007C0
F80007C0
F80007C0
F80007C0
F8000FC0
F8000F80
FC000F80
FC001F80
FE003F00
FF007F00
F7FFFE00
F3FFFC00
F1FFF800
E0FFE000
00040000
ENDCHAR
STARTCHAR 0063
ENCODING 99
SWIDTH 468 0
DWIDTH 26 0
BBX 22 31 3 -1
BITMAP
007FF0
03FFFC
07FFF8
0FFFF8
1FE038
3F8000
3E0000
7E0000
7C0000
7C0000
FC0000
F80000
F80000
F80000
F80000
F80000
F80000
F80000
F80000
FC0000
7C0000
7C0000
7E0000
3E0000
3F0000
1FC018
0FFFF8
0FFFF8
03FFF8
00FFF0
000400
ENDCHAR
STARTCHAR 0064
ENCODING 100
SWIDTH 612 0
DWIDTH 34 0
BBX 26 43 3 -1
BITMAP
000003C0
000003C0
000003C0
000003C0
000003C0
000003C0
000003C0
000003C0
000003C0
000003C0
000003C0
000003C0
00FF83C0
03FFE3C0
0FFFF3C0
1FFFFBC0
1FC07FC0
3F001FC0
3E000FC0
7E000FC0
7C0007C0
7C0007C0
FC0007C0
F80007C0
F80007C0
F80003C0
F80003C0
F80003C0
F80003C0
F80003C0
F80007C0
F80007C0
7C0007C0
7C0007C0
7C000FC0
7E000FC0
3F001FC0
3F803FC0
1FFFFBC0
0FFFF3C0
07FFE3C0
01FF83C0
00080000
ENDCHAR
STARTCHAR 0065
ENCODING 101
SWIDTH 558 0
DWIDTH 31 0
BBX 26 31 3 -1
BITMAP
00FFC000
03FFF000
07FFF800
0FFFFC00
1F807E00
3F003F00
3E001F00
7E001F80
7C000F80
7C000F80
78000F80
F8000F80
FFFFFF80
FFFFFFC0
FFFFFFC0
FFFFFFC0
F8000000
F8000000
F8000000
FC000000
7C000000
7C000000
7E000000
3E000000
3F800000
1FC00700
0FFFFF00
07FFFF00
03FFFF00
00FFFC00
000A0000
ENDCHAR
STARTCHAR 0066
ENCODING 102
SWIDTH 342 0
DWIDTH 19 0
BBX 21 42 1 1
BITMAP
003FF8
00FFF0
01FFF0
03FFF0
03F000
03E000
07C000
07C000
07C000
07C000
07C000
07C000
0FFF80
FFFF80
FFFF80
FFFF80
07C000
07C000
07C000
07C000
07C000
07C000
07C000
07C000
07C000
07C000
07C000
07C000
07C000
07C000
07C000
07C000
07C000
07C000
07C000
07C000
07C000
07C000
07C000
07C000
07C000
07C000
ENDCHAR
STARTCHAR 0067
ENCODING 103
SWIDTH 612 0
DWIDTH 34 0
BBX 26 43 3 -13
BITMAP
00FF83C0
03FFE3C0
07FFF3C0
0FFFFBC0
1FC07FC0
3F001FC0
3E000FC0
7E000FC0
7C0007C0
7C0007C0
FC0007C0
F80007C0
F80003C0
F80003C0
F80003C0
F80003C0
F80003C0
F80003C0
F80003C0
F80007C0
7C0007C0
7C0007C0
7C0007C0
3E000FC0
3F001FC0
1F803FC0
1FF3FBC0
0FFFF3C0
07FFE3C0
01FFC3C0
000803C0
000003C0
000007C0
000007C0
000007C0
000007C0
00000FC0
30001F80
3E007F80
3FFFFF00
3FFFFE00
1FFFF800
07FFE000
ENDCHAR
STARTCHAR 0068
ENCODING 104
SWIDTH 612 0
DWIDTH 34 0
BBX 25 42 5 0
BITMAP
F8000000
F8000000
F8000000
F8000000
F8000000
F8000000
F8000000
F8000000
F8000000
F8000000
F8000000
F8000000
F83FE000
F9FFF800
FBFFFC00
F7FFFE00
FF807F00
FE003F00
FE001F00
FC001F80
FC000F80
F8000F80
F8000F80
F8000F80
F8000F80
F8000F80
F8000F80
F8000F80
F8000F80
F8000F80
F8000F80
F8000F80
F8000F80
F8000F80
F8000F80
F8000F80
F8000F80
F8000F80
F8000F80
F8000F80
F8000F80
F8000F80
ENDCHAR
STARTCHAR 0069
ENCODING 105
SWIDTH 252 0
DWIDTH 14 0
BBX 6 41 4 0
BITMAP
38
7C
FC
FC
7C
78
00
00
00
00
00
7C
7C
7C
7C
7C
7C
7C
7C
7C
7C
7C
7C
7C
7C
7C
7C
7C
7C
7C
7C
7C
7C
7C
7C
7C
7C
7C
7C
7C
7C
ENDCHAR
STARTCHAR 006A
ENCODING 106
SWIDTH 252 0
DWIDTH 14 0
BBX 13 54 -3 -13
BITMAP
0070
00F8
01F8
01F8
00F8
00F0
0000
0000
0000
0000
0000
00F8
00F8
00F8
00F8
00F8
00F8
00F8
00F8
00F8
00F8
00F8
00F8
00F8
00F8
00F8
00F8
00F8
00F8
00F8
00F8
00F8
00F8
00F8
00F8
00F8
00F8
00F8
00F8
00F8
00F8
00F8
00F8
00F8
00F8
00F8
00F8
00F0
01F0
03F0
FFF0
FFE0
FFC0
FF80
ENDCHAR
STARTCHAR 006B
ENCODING 107
SWIDTH 522 0
DWIDTH 29 0
BBX 24 42 5 0
BITMAP
F80000
F80000
F80000
F80000
F80000
F80000
F80000
F80000
F80000
F80000
F80000
F80000
F8007E
F800FC
F801F8
F803F0
F803E0
F807C0
F80F80
F81F00
F83F00
F87E00
F8FC00
F9F800
F3F000
F7F000
F7F000
FFF800
FFFC00
FC7E00
F83E00
F83F00
F81F80
F80FC0
F807E0
F807E0
F803F0
F801F8
F800FC
F800FC
F8007E
F8003F
ENDCHAR
STARTCHAR 006C
ENCODING 108
SWIDTH 252 0
DWIDTH 14 0
BBX 5 42 5 0
BITMAP
F8
F8
F8
F8
F8
F8
F8
F8
F8
F8
F8
F8
F8
F8
F8
F8
F8
F8
F8
F8
F8
F8
F8
F8
F8
F8
F8
F8
F8
F8
F8
F8
F8
F8
F8
F8
F8
F8
F8
F8
F8
F8
ENDCHAR
STARTCHAR 006D
ENCODING 109
SWIDTH 918 0
DWIDTH 51 0
BBX 42 30 5 0
BITMAP
F07FC00FF800
F1FFF03FFE00
F3FFF87FFF00
F7FFFCFFFF80
FF80FDF01F80
FE007FC00FC0
FC003F8007C0
FC003F8007C0
F8003F0007C0
F8001F0003C0
F8001F0003C0
F8001F0003C0
F8001F0003C0
F8001F0003C0
F8001F0003C0
F8001F0003C0
F8001F0003C0
F8001F0003C0
F8001F0003C0
F8001F0003C0
F8001F0003C0
F8001F0003C0
F8001F0003C0
F8001F0003C0
F8001F0003C0
F8001F0003C0
F8001F0003C0
F8001F0003C0
F8001F0003C0
F8001F0003C0
ENDCHAR
STARTCHAR 006E
ENCODING 110
SWIDTH 612 0
DWIDTH 34 0
BBX 25 30 5 0
BITMAP
F07FE000
F1FFF800
F3FFFC00
F7FFFE00
FF807F00
FE003F00
FE001F00
FC001F80
FC000F80
F8000F80
F8000F80
F8000F80
F8000F80
F8000F80
F8000F80
F8000F80
F8000F80
F8000F80
F8000F80
F8000F80
F8000F80
F8000F80
F8000F80
F8000F80
F8000F80
F8000F80
F8000F80
F8000F80
F8000F80
F8000F80
ENDCHAR
STARTCHAR 006F
ENCODING 111
SWIDTH 594 0
DWIDTH 33 0
BBX 28 31 3 -1
BITMAP
007FE000
03FFF800
07FFFE00
0FFFFF00
1FC03F00
3F001F80
3E000FC0
7E0007C0
7C0007E0
7C0003E0
FC0003E0
F80003E0
F80003E0
F80003F0
F80001F0
F80001F0
F80003F0
F80003E0
F80003E0
FC0003E0
7C0003E0
7C0007E0
7E0007C0
3E000FC0
3F000F80
1F803F80
0FFFFF00
07FFFE00
03FFF800
00FFF000
00040000
ENDCHAR
STARTCHAR 0070
ENCODING 112
SWIDTH 612 0
DWIDTH 34 0
BBX 26 43 5 -13
BITMAP
F07FE000
F1FFF000
F3FFFC00
F7FFFE00
FF80FF00
FE003F00
FC001F80
FC001F80
F8000F80
F8000FC0
F80007C0
F80007C0
F80007C0
F80007C0
F80007C0
F80007C0
F80007C0
F80007C0
F80007C0
F80007C0
F8000FC0
F8000F80
FC000F80
FC001F80
FE003F00
FF807F00
F7FFFE00
F3FFFC00
F1FFF800
F87FE000
F8060000
F8000000
F8000000
F8000000
F8000000
F8000000
F8000000
F8000000
F8000000
F8000000
F8000000
F8000000
F8000000
ENDCHAR
STARTCHAR 0071
ENCODING 113
SWIDTH 612 0
DWIDTH 34 0
BBX 26 43 3 -13
BITMAP
00FF83C0
03FFE3C0
07FFF3C0
0FFFFBC0
1FC07FC0
3F001FC0
3E000FC0
7E000FC0
7C0007C0
7C0007C0
FC0007C0
F80007C0
F80007C0
F80003C0
F80003C0
F80003C0
F80003C0
F80003C0
F80007C0
F80007C0
7C0007C0
7C0007C0
7C000FC0
7E000FC0
3F001FC0
3F803FC0
1FFFFBC0
0FFFF3C0
07FFE3C0
01FFC3C0
001803C0
000003C0
000003C0
000003C0
000003C0
000003C0
000003C0
000003C0
000003C0
000003C0
000003C0
000003C0
000003C0
ENDCHAR
STARTCHAR 0072
ENCODING 114
SWIDTH 396 0
DWIDTH 22 0
BBX 17 30 5 0
BITMAP
F03F80
F0FF80
F1FF80
F3FF80
F7E080
F78000
FF0000
FE0000
FC0000
FC0000
F80000
F80000
F80000
F80000
F80000
F80000
F80000
F80000
F80000
F80000
F80000
F80000
F80000
F80000
F80000
F80000
F80000
F80000
F80000
F80000
ENDCHAR
STARTCHAR 0073
ENCODING 115
SWIDTH 468 0
DWIDTH 26 0
BBX 21 31 3 -1
BITMAP
07FF80
1FFFF0
3FFFF0
7FFFF0
FC00E0
F80000
F80000
F80000
F80000
F80000
FE0000
7F8000
3FE000
1FFC00
07FF00
01FFC0
007FE0
000FF0
0003F0
0001F8
0000F8
0000F8
0000F8
0000F8
8000F8
E001F0
FF3FF0
FFFFE0
FFFFC0
3FFF00
00C000
ENDCHAR
STARTCHAR 0074
ENCODING 116
SWIDTH 360 0
DWIDTH 20 0
BBX 18 38 1 -1
BITMAP
038000
038000
078000
078000
078000
078000
0F8000
3FFFC0
FFFFC0
FFFFC0
FFFFC0
0F8000
0F8000
0F8000
0F8000
0F8000
0F8000
0F8000
0F8000
0F8000
0F8000
0F8000
0F8000
0F8000
0F8000
0F8000
0F8000
0F8000
0F8000
0F8000
0F8000
0FC000
07E000
07FBC0
03FFC0
01FFC0
00FFC0
000C00
ENDCHAR
STARTCHAR 0075
ENCODING 117
SWIDTH 612 0
DWIDTH 34 0
BBX 26 31 4 -1
BITMAP
F80007C0
F80007C0
F80007C0
F80007C0
F80007C0
F80007C0
F80007C0
F80007C0
F80007C0
F80007C0
F80007C0
F80007C0
F80007C0
F80007C0
F80007C0
F80007C0
F80007C0
F80007C0
F80007C0
F8000FC0
F8000FC0
F8000FC0
7C001FC0
7C001FC0
7E003FC0
7F007FC0
3FFFF7C0
1FFFF7C0
0FFFC7C0
07FF83C0
00380000
ENDCHAR
STARTCHAR 0076
ENCODING 118
SWIDTH 504 0
DWIDTH 28 0
BBX 28 30 0 0
BITMAP
F80001F0
FC0001F0
7C0003E0
7C0003E0
3E0007E0
3E0007C0
3E0007C0
1F000F80
1F000F80
0F800F80
0F801F00
0F801F00
07C01F00
07C03E00
07C03E00
03E07C00
03E07C00
01E07C00
01F0F800
01F0F800
00F8F800
00F9F000
00F9F000
0079E000
007FE000
003FE000
003FC000
003FC000
001F8000
001F8000
ENDCHAR
STARTCHAR 0077
ENCODING 119
SWIDTH 774 0
DWIDTH 43 0
BBX 42 30 1 0
BITMAP
F8003F0007C0
F8003F0007C0
F8007F000F80
7C007F800F80
7C007F800F80
7C007F800F80
7C00F7801F00
3E00F7C01F00
3E00F3C01F00
3E01F3C01E00
3E01E3E03E00
1F01E3E03E00
1F03E1E03E00
1F03E1F03C00
0F03C1F07C00
0F87C0F07C00
0F87C0F87C00
0F8780F8F800
078F8078F800
07CF8078F800
07CF007CF000
07CF007CF000
03DF003DF000
03DE003DF000
03FE003FE000
01FE001FE000
01FC001FE000
01FC001FC000
01FC000FC000
00F8000FC000
ENDCHAR
STARTCHAR 0078
ENCODING 120
SWIDTH 522 0
DWIDTH 29 0
BBX 27 30 1 0
BITMAP
7C0007E0
7E000FC0
3F000F80
1F001F80
0F803F00
0FC03E00
07C07C00
03E0FC00
03F0F800
01F1F000
00FBF000
00FFE000
007FC000
003F8000
001F8000
003F8000
003FC000
007FE000
00FBE000
01F9F000
01F1F800
03E0F800
07E07C00
07C07E00
0F803E00
1F801F00
3F001F80
3E000FC0
7E0007C0
FC0007E0
ENDCHAR
STARTCHAR 0079
ENCODING 121
SWIDTH 504 0
DWIDTH 28 0
BBX 28 43 0 -13
BITMAP
F80001F0
7C0001F0
7C0003E0
7E0003E0
3E0003E0
3E0007C0
1F0007C0
1F000FC0
1F000F80
0F800F80
0F801F00
07C01F00
07C01F00
07C03E00
03E03E00
03E03E00
01E07C00
01F07C00
01F07800
00F8F800
00F8F800
0078F000
007DF000
007DF000
003DE000
003FE000
001FC000
001FC000
001FC000
000F8000
000F8000
001F8000
001F0000
001F0000
003E0000
003E0000
007C0000
00FC0000
01F80000
7FF80000
7FF00000
7FE00000
7F800000
ENDCHAR
STARTCHAR 007A
ENCODING 122
SWIDTH 468 0
DWIDTH 26 0
BBX 22 30 2 0
BITMAP
7FFFFC
7FFFFC
7FFFFC
7FFFFC
0000F8
0001F0
0003F0
0003E0
0007C0
000FC0
000F80
001F00
003E00
007E00
007C00
00F800
01F800
01F000
03E000
07E000
07C000
0F8000
1F0000
3F0000
3E0000
7C0000
FFFFFC
FFFFFC
FFFFFC
FFFFFC
ENDCHAR
STARTCHAR 007B
ENCODING 123
SWIDTH 378 0
DWIDTH 21 0
BBX 17 49 2 -9
BITMAP
000180
001F80
007F80
00FF80
01FF00
01F800
01F000
03E000
03E000
03E000
03E000
03E000
03E000
03E000
03E000
03E000
03E000
03E000
03E000
03E000
07E000
0FC000
FF8000
FF0000
F80000
FF0000
FF8000
0FC000
07E000
03E000
03E000
03E000
03E000
03E000
03E000
03E000
03E000
03E000
03E000
03E000
03E000
03E000
01F000
01F800
01FE00
00FF80
007F80
001F80
000380
ENDCHAR
STARTCHAR 007C
ENCODING 124
SWIDTH 540 0
DWIDTH 30 0
BBX 4 55 13 -13
BITMAP
F0
F0
F0
F0
F0
F0
F0
F0
F0
F0
F0
F0
F0
F0
F0
F0
F0
F0
F0
F0
F0
F0
F0
F0
F0
F0
F0
F0
F0
F0
F0
F0
F0
F0
F0
F0
F0
F0
F0
F0
F0
F0
F0
F0
F0
F0
F0
F0
F0
F0
F0
F0
F0
F0
F0
ENDCHAR
STARTCHAR 007D
ENCODING 125
SWIDTH 378 0
DWIDTH 21 0
BBX 18 49 2 -9
BITMAP
C00000
FC0000
FF0000
FF8000
7FC000
0FC000
07C000
03E000
03E000
03E000
03E000
03E000
03E000
03E000
03E000
03E000
03E000
03E000
03E000
03E000
03F000
01F800
00FFC0
007FC0
000FC0
007FC0
00FFC0
01F800
03F000
03E000
03E000
03E000
03E000
03E000
03E000
03E000
03E000
03E000
03E000
03E000
03E000
03E000
07C000
0FC000
3FC000
FF8000
FF0000
FC0000
E00000
ENDCHAR
STARTCHAR 007E
ENCODING 126
SWIDTH 558 0
DWIDTH 31 0
BBX 26 7 3 16
BITMAP
1FE00040
7FFC00C0
FFFF03C0
FFFFFFC0
E03FFFC0
C00FFF00
8001FC00
ENDCHAR
STARTCHAR 00A0
ENCODING 160
SWIDTH 252 0
DWIDTH 14 0
BBX 0 0 0 0
BITMAP
ENDCHAR
STARTCHAR 00A1
ENCODING 161
SWIDTH 252 0
DWIDTH 14 0
BBX 7 40 4 -10
BITMAP
7C
FE
FE
FE
FE
FE
7C
00
00
00
00
00
38
38
38
38
38
78
78
78
78
78
7C
7C
7C
7C
7C
7C
7C
7C
7C
7C
7C
7C
7C
7C
7C
7C
FC
FC
ENDCHAR
STARTCHAR 00A2
ENCODING 162
SWIDTH 558 0
DWIDTH 31 0
BBX 22 41 5 -1
BITMAP
001E00
001E00
001E00
001E00
001F80
01FFF8
07FFFC
0FFFF8
1FFBF8
3F8018
3F0000
7E0000
7C0000
7C0000
7C0000
F80000
F80000
F80000
F80000
F80000
F80000
F80000
F80000
F80000
FC0000
7C0000
7C0000
7E0000
3E0000
3F8000
1FE078
0FFFF8
07FFF8
03FFF8
007FE0
001E00
001E00
001E00
001E00
001E00
001E00
ENDCHAR
STARTCHAR 00A3
ENCODING 163
SWIDTH 558 0
DWIDTH 31 0
BBX 28 40 2 0
BITMAP
000FFC00
003FFF80
00FFFFC0
01FFFFC0
01F80780
03F00180
03E00000
03E00000
07C00000
07C00000
07C00000
07C00000
07C00000
07C00000
07C00000
07C00000
07C00000
07C00000
07C00000
FFFFFC00
FFFFFC00
FFFFFC00
07C00000
07C00000
07C00000
07C00000
07C00000
07C00000
07C00000
07C00000
07C00000
07C00000
0F800000
0F800000
1F000000
7C000000
FFFFFFF0
FFFFFFF0
FFFFFFF0
FFFFFFF0
ENDCHAR
STARTCHAR 00A4
ENCODING 164
SWIDTH 558 0
DWIDTH 31 0
BBX 25 25 3 7
BITMAP
30000200
78000700
FCFF8F80
7FFFFF00
3FFFFE00
1FE1FE00
0F807C00
1E003E00
1E001E00
3C000E00
3C000F00
3C000F00
3C000F00
3C000F00
3C000F00
3C001E00
1E001E00
1F003E00
0F807C00
1FFFFE00
3FFFFF00
7DFFFF80
787F8F80
30000700
00000200
ENDCHAR
STARTCHAR 00A5
ENCODING 165
SWIDTH 558 0
DWIDTH 31 0
BBX 30 40 1 0
BITMAP
F800007C
FC0000F8
7C0000F8
7E0001F0
3E0001F0
1F0003E0
1F0003E0
0F8007C0
0F8007C0
07C00F80
07C00F00
03E01F00
03E01E00
01F03E00
01F07C00
00F87C00
00F8F800
007CF800
007DF000
003FF000
003FE000
0FFFFFC0
0FFFFFC0
0FFFFFC0
0FFFFFC0
000F8000
000F8000
000F8000
000F8000
0FFFFFC0
0FFFFFC0
0FFFFFC0
0FFFFFC0
000F8000
000F8000
000F8000
000F8000
000F8000
000F8000
000F8000
ENDCHAR
STARTCHAR 00A6
ENCODING 166
SWIDTH 540 0
DWIDTH 30 0
BBX 4 55 13 -13
BITMAP
F0
F0
F0
F0
F0
F0
F0
F0
F0
F0
F0
F0
F0
F0
F0
F0
F0
F0
F0
F0
F0
00
00
00
00
00
00
00
00
00
00
00
00
00
F0
F0
F0
F0
F0
F0
F0
F0
F0
F0
F0
F0
F0
F0
F0
F0
F0
F0
F0
F0
F0
ENDCHAR
STARTCHAR 00A7
ENCODING 167
SWIDTH 504 0
DWIDTH 28 0
BBX 22 42 3 1
BITMAP
03FFE0
0FFFF8
3FFFF8
3F83F8
7C0030
7C0000
780000
7C0000
7C0000
7E0000
3F8000
1FF000
0FFC00
0FFF80
1FFFC0
3E1FF0
7C03F8
7801F8
7800FC
78007C
78003C
78003C
7C007C
7E0078
3F80F8
1FE1F0
0FFFF0
03FFE0
00FFC0
001FF0
0007F8
0001F8
0000FC
00007C
00007C
00007C
8000F8
F001F8
FF9FF0
FFFFE0
FFFFC0
1FFF00
ENDCHAR
STARTCHAR 00A8
ENCODING 168
SWIDTH 576 0
DWIDTH 32 0
BBX 16 6 8 35
BITMAP
1004
781E
F81F
F81F
781F
700E
ENDCHAR
STARTCHAR 00A9
ENCODING 169
SWIDTH 828 0
DWIDTH 46 0
BBX 40 41 3 -1
BITMAP
0003FFC000
001FFFF800
007FFFFE00
00FE007F00
01F0000F80
07C00003E0
07800001E0
0F000000F0
1E007FC078
3C01FFF03C
3803FFF01C
7807F3E01E
700F80200E
701F00000E
F01F00000F
E01E000007
E03E000007
E03E000007
E03C000007
E03C000007
E03C000007
E03C000007
E03C000007
E03E000007
E03E000007
F01E000007
701F00000F
700F80000E
780FC0601E
3807FFE01C
3C03FFE03C
1E00FFC078
1F000C00F8
0F800001F0
07C00003E0
03F00007C0
01FC003F80
007FE7FE00
001FFFFC00
0007FFE000
0000180000
ENDCHAR
STARTCHAR 00AA
ENCODING 170
SWIDTH 342 0
DWIDTH 19 0
BBX 15 19 2 21
BITMAP
0FF0
7FF8
7FFC
303E
001E
000E
000E
01FE
1FFE
7FFE
F80E
F00E
E01E
E01E
F03E
F87E
7FEE
7FCE
1F00
ENDCHAR
STARTCHAR 00AB
ENCODING 171
SWIDTH 504 0
DWIDTH 28 0
BBX 24 23 2 3
BITMAP
00600C
00F81F
01F83F
03F03E
03E07C
07C0F8
0F81F0
1F03E0
3F07E0
7E0FC0
7C0F80
F81F00
7C0F80
3E07C0
1F03E0
1F83F0
0FC1F8
07C0F8
03E07C
01F03E
00F81F
00F01E
004008
ENDCHAR
STARTCHAR 00AC
ENCODING 172
SWIDTH 558 0
DWIDTH 31 0
BBX 26 15 3 7
BITMAP
FFFFFFC0
FFFFFFC0
FFFFFFC0
FFFFFFC0
000003C0
000003C0
000003C0
000003C0
000003C0
000003C0
000003C0
000003C0
000003C0
000003C0
000003C0
ENDCHAR
STARTCHAR 00AD
ENCODING 173
SWIDTH 306 0
DWIDTH 17 0
BBX 14 4 2 13
BITMAP
FFFC
FFFC
FFFC
FFFC
ENDCHAR
STARTCHAR 00AE
ENCODING 174
SWIDTH 828 0
DWIDTH 46 0
BBX 40 41 3 -1
BITMAP
0003FFC000
001FFFF800
007FFFFE00
00FE007F00
01F0000F80
07C00003E0
07800001E0
0F000000F0
1E0FFF0078
3C0FFFC03C
380FFFE01C
780FFFF01E
700F81F00E
700F80F00E
F00F80F00F
E00F80F007
E00F80F007
E00F81F007
E00F83F007
E00FFFE007
E00FFFC007
E00FFF0007
E00FFF8007
E00F878007
E00F87C007
F00F83C007
700F83E00F
700F81F00E
780F81F01E
380F80F81C
3C0F80783C
1E0F807C78
1F000000F8
0F800001F0
07C00003E0
03F00007C0
01FC003F80
007FE7FE00
001FFFFC00
0007FFE000
0000180000
ENDCHAR
STARTCHAR 00AF
ENCODING 175
SWIDTH 486 0
DWIDTH 27 0
BBX 28 4 0 42
BITMAP
FFFFFFF0
FFFFFFF0
FFFFFFF0
FFFFFFF0
ENDCHAR
STARTCHAR 00B0
ENCODING 176
SWIDTH 414 0
DWIDTH 23 0
BBX 18 17 3 23
BITMAP
07F800
1FFE00
3FFF00
7C1F00
780780
F00780
F003C0
F003C0
F003C0
F003C0
F00380
700780
780F80
3FFF00
3FFE00
0FFC00
03E000
ENDCHAR
STARTCHAR 00B1
ENCODING 177
SWIDTH 558 0
DWIDTH 31 0
BBX 26 33 3 0
BITMAP
001E0000
001E0000
001E0000
001E0000
001E0000
001E0000
001E0000
001E0000
001E0000
001E0000
001E0000
FFFFFFC0
FFFFFFC0
FFFFFFC0
FFFFFFC0
001E0000
001E0000
001E0000
001E0000
001E0000
001E0000
001E0000
001E0000
001E0000
001E0000
001E0000
001E0000
00000000
00000000
FFFFFFC0
FFFFFFC0
FFFFFFC0
FFFFFFC0
ENDCHAR
STARTCHAR 00B2
ENCODING 178
SWIDTH 342 0
DWIDTH 19 0
BBX 16 24 1 23
BITMAP
0FF8
3FFC
7FFE
781F
300F
000F
000F
000F
000F
001E
001E
003C
0078
00F0
01E0
03C0
0780
0F00
1E00
3C00
7FFF
FFFF
FFFF
FFFF
ENDCHAR
STARTCHAR 00B3
ENCODING 179
SWIDTH 342 0
DWIDTH 19 0
BBX 17 24 1 23
BITMAP
1FF800
7FFC00
FFFE00
781F00
200F00
000F00
000F00
000F00
001E00
003E00
0FFC00
0FF000
0FFE00
003F00
000F00
000F80
000780
000780
000780
000F00
E01F00
FFFE00
FFFC00
3FF800
ENDCHAR
STARTCHAR 00B4
ENCODING 180
SWIDTH 270 0
DWIDTH 15 0
BBX 11 9 2 34
BITMAP
07E0
07E0
0FC0
0F80
1F80
3F00
3E00
7C00
F800
ENDCHAR
STARTCHAR 00B5
ENCODING 181
SWIDTH 612 0
DWIDTH 34 0
BBX 25 43 5 -13
BITMAP
F8000F80
F8000F80
F8000F80
F8000F80
F8000F80
F8000F80
F8000F80
F8000F80
F8000F80
F8000F80
F8000F80
F8000F80
F8000F80
F8000F80
F8000F80
F8000F80
F8000F80
F8000F80
F8000F80
F8000F80
F8001F80
F8001F80
F8001F80
F8003F80
FC007F80
FE00FF80
FFFFFF80
FFFFEF80
F7FFC780
F3FF0780
F8700000
F8000000
F8000000
F8000000
F8000000
F8000000
F8000000
F8000000
F8000000
F8000000
F8000000
F8000000
F8000000
ENDCHAR
STARTCHAR 00B6
ENCODING 182
SWIDTH 648 0
DWIDTH 36 0
BBX 28 49 3 -7
BITMAP
01FFFFF0
07FFFFF0
0FFFFFF0
1FFFE0F0
3FFFE0F0
7FFFE0F0
7FFFE0F0
7FFFE0F0
7FFFE0F0
FFFFE0F0
FFFFE0F0
FFFFE0F0
FFFFE0F0
FFFFE0F0
FFFFE0F0
FFFFE0F0
FFFFE0F0
FFFFE0F0
FFFFE0F0
7FFFE0F0
7FFFE0F0
7FFFE0F0
3FFFE0F0
3FFFE0F0
1FFFE0F0
0FFFE0F0
03FFE0F0
0001E0F0
0001E0F0
0001E0F0
0001E0F0
0001E0F0
0001E0F0
0001E0F0
0001E0F0
0001E0F0
0001E0F0
0001E0F0
0001E0F0
0001E0F0
0001E0F0
0001E0F0
0001E0F0
0001E0F0
0001E0F0
0001E0F0
0001E0F0
0001E0F0
0001E0F0
ENDCHAR
STARTCHAR 00B7
ENCODING 183
SWIDTH 252 0
DWIDTH 14 0
BBX 7 7 4 16
BITMAP
7C
FE
FE
FE
FE
FC
7C
ENDCHAR
STARTCHAR 00B8
ENCODING 184
SWIDTH 216 0
DWIDTH 12 0
BBX 11 13 1 -13
BITMAP
0E00
1E00
1C00
3F00
3F80
07C0
03E0
01E0
01E0
03E0
FFC0
FF80
FF00
ENDCHAR
STARTCHAR 00B9
ENCODING 185
SWIDTH 342 0
DWIDTH 19 0
BBX 11 24 2 23
BITMAP
01E0
07E0
0FE0
3FE0
7EE0
F9E0
71E0
21E0
01E0
01E0
01E0
01E0
01E0
01E0
01E0
01E0
01E0
01E0
01E0
01E0
01E0
01E0
01E0
01E0
ENDCHAR
STARTCHAR 00BA
ENCODING 186
SWIDTH 360 0
DWIDTH 20 0
BBX 17 19 2 21
BITMAP
07F000
1FFC00
3FFE00
7C1F00
700F00
F00780
F00780
E00780
E00380
E00380
E00380
E00780
F00780
F00700
780F00
7E3E00
3FFE00
0FF800
03E000
ENDCHAR
STARTCHAR 00BB
ENCODING 187
SWIDTH 504 0
DWIDTH 28 0
BBX 24 23 2 3
BITMAP
300600
780F00
7C0F80
3E07C0
3F07E0
1F03E0
0F81F0
07C0F8
03E07C
03F07E
01F83F
00F81F
01F03E
03F07E
07E0FC
07C0F8
0F81F0
1F03E0
3E07C0
7C0F80
FC1F80
780F00
100200
ENDCHAR
STARTCHAR 00BC
ENCODING 188
SWIDTH 738 0
DWIDTH 41 0
BBX 39 40 2 0
BITMAP
01E0000780
07E0000F80
0FE0000F00
1FE0001E00
7FE0001E00
FDE0003C00
71E0007C00
61E0007800
01E000F000
01E000F000
01E001E000
01E003E000
01E003C000
01E0078000
01E0078000
01E00F0000
01E01F01F0
01E01E03F0
01E03C03F0
01E03C07F0
01E0780FF0
01E0F00FF0
01E0F01DF0
01E1E03DF0
0003E039F0
0003C071F0
000780F1F0
000781E1F0
000F01C1F0
001F03C1F0
001E0781F0
003C07FFFE
003C0FFFFE
00780FFFFE
00F80FFFFE
00F00001F0
01E00001F0
01E00001F0
03C00001F0
07800001F0
ENDCHAR
STARTCHAR 00BD
ENCODING 189
SWIDTH 756 0
DWIDTH 42 0
BBX 39 40 1 0
BITMAP
01F0000F80
03F0000F00
0FF0001E00
1FF0001E00
3EF0003C00
FCF0007C00
70F0007800
20F000F000
00F000F000
00F001E000
00F003E000
00F003C000
00F0078000
00F0078000
00F00F0000
00F01E0000
00F01E0FF0
00F03C3FF8
00F07CFFFC
00F078783E
00F0F0601E
00F0F0001E
00F1E0001E
00F3E0001E
0003C0001E
000780001E
000780003C
000F00007C
001F0000F8
001E0001F0
003C0003E0
003C0007C0
0078000F80
00F0001F00
00F0003E00
01E0007C00
03E000F800
03C000FFFE
078000FFFE
078000FFFE
ENDCHAR
STARTCHAR 00BE
ENCODING 190
SWIDTH 774 0
DWIDTH 43 0
BBX 42 40 1 0
BITMAP
0FF000007800
3FFC0000F000
FFFE0001F000
783F0001E000
601F0003C000
000F0003C000
000F00078000
000F000F0000
001E000F0000
003E001E0000
1FFC003E0000
1FF0003C0000
1FFC00780000
00FE00780000
001F00F00000
000F01F00000
000781E03E00
000783C07E00
000783C07E00
000F0780FE00
C01F0F81FE00
FFFE0F01FE00
FFFC1E03BE00
7FF81E07BE00
01803C073E00
0000780E3E00
0000781E3E00
0000F03C3E00
0001F0383E00
0001E0783E00
0003C0F03E00
0003C0FFFFC0
000781FFFFC0
000F81FFFFC0
000F01FFFFC0
001E00003E00
001E00003E00
003C00003E00
007C00003E00
007800003E00
ENDCHAR
STARTCHAR 00BF
ENCODING 191
SWIDTH 432 0
DWIDTH 24 0
BBX 22 41 1 -11
BITMAP
001E00
003F00
003F00
003F80
003F00
003F00
001E00
000000
000000
000000
000000
000000
001E00
001E00
001E00
001E00
003E00
003E00
007C00
00F800
01F800
03F000
0FE000
1F8000
3F0000
3E0000
7C0000
7C0000
780000
F80000
F80000
F80000
F80000
7C0000
7C0008
7F0078
3FFFFC
1FFFFC
0FFFF8
07FFE0
007C00
ENDCHAR
STARTCHAR 00C0
ENCODING 192
SWIDTH 630 0
DWIDTH 35 0
BBX 35 52 0 0
BITMAP
001F800000
001F800000
000FC00000
0007E00000
0003E00000
0001F00000
0000F80000
0000780000
0000000000
0000000000
0000000000
0000000000
0001F00000
0001F80000
0001F80000
0003F80000
0003FC0000
0007FC0000
0007BC0000
0007BE0000
000F9E0000
000F9F0000
001F1F0000
001F0F0000
001F0F8000
003E0F8000
003E07C000
003C07C000
007C07C000
007C03E000
00F803E000
00F801F000
00F801F000
01F001F000
01F000F800
03FFFFF800
03FFFFF800
03FFFFFC00
07FFFFFC00
07FFFFFE00
0F80003E00
0F80003E00
0F80001F00
1F00001F00
1F00001F80
1F00000F80
3E00000F80
3E000007C0
7C000007C0
7C000007C0
7C000003E0
F8000003E0
ENDCHAR
STARTCHAR 00C1
ENCODING 193
SWIDTH 630 0
DWIDTH 35 0
BBX 35 52 0 0
BITMAP
00001FC000
00001F8000
00003F0000
00003E0000
00007C0000
0000F80000
0000F00000
0001E00000
0000000000
0000000000
0000000000
0000000000
0001F00000
0001F80000
0001F80000
0003F80000
0003FC0000
0007FC0000
0007BC0000
0007BE0000
000F9E0000
000F9F0000
001F1F0000
001F0F0000
001F0F8000
003E0F8000
003E07C000
003C07C000
007C07C000
007C03E000
00F803E000
00F801F000
00F801F000
01F001F000
01F000F800
03FFFFF800
03FFFFF800
03FFFFFC00
07FFFFFC00
07FFFFFE00
0F80003E00
0F80003E00
0F80001F00
1F00001F00
1F00001F80
1F00000F80
3E00000F80
3E000007C0
7C000007C0
7C000007C0
7C000003E0
F8000003E0
ENDCHAR
STARTCHAR 00C2
ENCODING 194
SWIDTH 630 0
DWIDTH 35 0
BBX 35 52 0 0
BITMAP
0003F80000
0003F80000
0007FC0000
000FFE0000
001F1F0000
003E0F8000
003C07C000
007803E000
0000000000
0000000000
0000000000
0000000000
0001F00000
0001F80000
0001F80000
0003F80000
0003FC0000
0007FC0000
0007BC0000
0007BE0000
000F9E0000
000F9F0000
001F1F0000
001F0F0000
001F0F8000
003E0F8000
003E07C000
003C07C000
007C07C000
007C03E000
00F803E000
00F801F000
00F801F000
01F001F000
01F000F800
03FFFFF800
03FFFFF800
03FFFFFC00
07FFFFFC00
07FFFFFE00
0F80003E00
0F80003E00
0F80001F00
1F00001F00
1F00001F80
1F00000F80
3E00000F80
3E000007C0
7C000007C0
7C000007C0
7C000003E0
F8000003E0
ENDCHAR
STARTCHAR 00C3
ENCODING 195
SWIDTH 630 0
DWIDTH 35 0
BBX 35 51 0 0
BITMAP
0006007000
003F807000
007FE0E000
007FFFE000
00F1FFE000
00E07FC000
00E01F8000
0000000000
0000000000
0000000000
0000000000
0001F00000
0001F80000
0001F80000
0003F80000
0003FC0000
0007FC0000
0007BC0000
0007BE0000
000F9E0000
000F9F0000
001F1F0000
001F0F0000
001F0F8000
003E0F8000
003E07C000
003C07C000
007C07C000
007C03E000
00F803E000
00F801F000
00F801F000
01F001F000
01F000F800
03FFFFF800
03FFFFF800
03FFFFFC00
07FFFFFC00
07FFFFFE00
0F80003E00
0F80003E00
0F80001F00
1F00001F00
1F00001F80
1F00000F80
3E00000F80
3E000007C0
7C000007C0
7C000007C0
7C000003E0
F8000003E0
ENDCHAR
STARTCHAR 00C4
ENCODING 196
SWIDTH 630 0
DWIDTH 35 0
BBX 35 50 0 0
BITMAP
003E078000
003E0F8000
003E0FC000
003E078000
001C078000
0000000000
0000000000
0000000000
0000000000
0000000000
0001F00000
0001F80000
0001F80000
0003F80000
0003FC0000
0007FC0000
0007BC0000
0007BE0000
000F9E0000
000F9F0000
001F1F0000
001F0F0000
001F0F8000
003E0F8000
003E07C000
003C07C000
007C07C000
007C03E000
00F803E000
00F801F000
00F801F000
01F001F000
01F000F800
03FFFFF800
03FFFFF800
03FFFFFC00
07FFFFFC00
07FFFFFE00
0F80003E00
0F80003E00
0F80001F00
1F00001F00
1F00001F80
1F00000F80
3E00000F80
3E000007C0
7C000007C0
7C000007C0
7C000003E0
F8000003E0
ENDCHAR
STARTCHAR 00C5
ENCODING 197
SWIDTH 630 0
DWIDTH 35 0
BBX 35 49 0 0
BITMAP
0000E00000
0003FC0000
0007FE0000
000F1E0000
000E0F0000
000E070000
000E070000
000E0F0000
000F0E0000
000FFE0000
0007FC0000
0001F80000
0003F80000
0003FC0000
0007FC0000
0007BC0000
0007BE0000
000F9E0000
000F9F0000
001F1F0000
001F0F0000
001F0F8000
003E0F8000
003E07C000
003C07C000
007C07C000
007C03E000
00F803E000
00F801F000
00F801F000
01F001F000
01F000F800
03FFFFF800
03FFFFF800
03FFFFFC00
07FFFFFC00
07FFFFFE00
0F80003E00
0F80003E00
0F80001F00
1F00001F00
1F00001F80
1F00000F80
3E00000F80
3E000007C0
7C000007C0
7C000007C0
7C000003E0
F8000003E0
ENDCHAR
STARTCHAR 00C6
ENCODING 198
SWIDTH 864 0
DWIDTH 48 0
BBX 46 40 0 0
BITMAP
00001FFFFFFC
00003FFFFFFC
00003FFFFFFC
00007FFFFFFC
00007FFFFFFC
0000F87C0000
0000F87C0000
0001F07C0000
0001F07C0000
0003F07C0000
0003E07C0000
0007E07C0000
0007C07C0000
0007C07C0000
000F807C0000
000F807C0000
001F007C0000
001F007FFFF8
003E007FFFF8
003E007FFFF8
007C007FFFF8
007C007C0000
00F8007C0000
00FFFFFC0000
01FFFFFC0000
01FFFFFC0000
03FFFFFC0000
03FFFFFC0000
07E0007C0000
07C0007C0000
0FC0007C0000
0F80007C0000
1F80007C0000
1F00007C0000
1F00007C0000
3E00007C0000
3E00007FFFFC
7C00007FFFFC
7C00007FFFFC
F800007FFFFC
ENDCHAR
STARTCHAR 00C7
ENCODING 199
SWIDTH 630 0
DWIDTH 35 0
BBX 30 53 3 -13
BITMAP
0007FFC0
001FFFF8
007FFFFC
01FFFFFC
03FF01F8
07F80038
0FE00000
0FC00000
1F800000
1F800000
3F000000
3E000000
7E000000
7E000000
7C000000
7C000000
7C000000
FC000000
FC000000
FC000000
FC000000
FC000000
FC000000
7C000000
7C000000
7C000000
7C000000
7E000000
3E000000
3F000000
3F000000
1F800000
1FC00000
0FE00000
0FF00000
07FE0078
03FFFFF8
00FFFFF8
007FFFF8
000FFFE0
0000F000
0000E000
0001E000
0001F000
0003FC00
00007E00
00001E00
00001E00
00001E00
00001E00
000FFE00
000FFC00
000FF000
ENDCHAR
STARTCHAR 00C8
ENCODING 200
SWIDTH 540 0
DWIDTH 30 0
BBX 23 52 5 0
BITMAP
07E000
03F000
01F000
01F800
00F800
007C00
003E00
001F00
000000
000000
000000
000000
FFFFFE
FFFFFE
FFFFFE
FFFFFE
FFFFFE
F80000
F80000
F80000
F80000
F80000
F80000
F80000
F80000
F80000
F80000
F80000
F80000
FFFFFC
FFFFFC
FFFFFC
FFFFFC
F80000
F80000
F80000
F80000
F80000
F80000
F80000
F80000
F80000
F80000
F80000
F80000
F80000
F80000
F80000
FFFFFE
FFFFFE
FFFFFE
FFFFFE
ENDCHAR
STARTCHAR 00C9
ENCODING 201
SWIDTH 540 0
DWIDTH 30 0
BBX 23 52 5 0
BITMAP
0003F0
0007E0
0007C0
000F80
001F00
001F00
003E00
007800
000000
000000
000000
000000
FFFFFE
FFFFFE
FFFFFE
FFFFFE
FFFFFE
F80000
F80000
F80000
F80000
F80000
F80000
F80000
F80000
F80000
F80000
F80000
F80000
FFFFFC
FFFFFC
FFFFFC
FFFFFC
F80000
F80000
F80000
F80000
F80000
F80000
F80000
F80000
F80000
F80000
F80000
F80000
F80000
F80000
F80000
FFFFFE
FFFFFE
FFFFFE
FFFFFE
ENDCHAR
STARTCHAR 00CA
ENCODING 202
SWIDTH 540 0
DWIDTH 30 0
BBX 23 52 5 0
BITMAP
007E00
00FF00
01FF00
03FF80
03E7C0
07C3E0
0F01F0
1E00F8
000000
000000
000000
000000
FFFFFE
FFFFFE
FFFFFE
FFFFFE
FFFFFE
F80000
F80000
F80000
F80000
F80000
F80000
F80000
F80000
F80000
F80000
F80000
F80000
FFFFFC
FFFFFC
FFFFFC
FFFFFC
F80000
F80000
F80000
F80000
F80000
F80000
F80000
F80000
F80000
F80000
F80000
F80000
F80000
F80000
F80000
FFFFFE
FFFFFE
FFFFFE
FFFFFE
ENDCHAR
STARTCHAR 00CB
ENCODING 203
SWIDTH 540 0
DWIDTH 30 0
BBX 23 50 5 0
BITMAP
0781E0
0F81F0
0F81F0
0F81F0
0700E0
000000
000000
000000
000000
000000
FFFFFE
FFFFFE
FFFFFE
FFFFFE
FFFFFE
F80000
F80000
F80000
F80000
F80000
F80000
F80000
F80000
F80000
F80000
F80000
F80000
FFFFFC
FFFFFC
FFFFFC
FFFFFC
F80000
F80000
F80000
F80000
F80000
F80000
F80000
F80000
F80000
F80000
F80000
F80000
F80000
F80000
F80000
FFFFFE
FFFFFE
FFFFFE
FFFFFE
ENDCHAR
STARTCHAR 00CC
ENCODING 204
SWIDTH 324 0
DWIDTH 18 0
BBX 15 52 2 0
BITMAP
FE00
7E00
3F00
1F00
0F80
07C0
03C0
01E0
0000
0000
0000
0000
FFFE
FFFE
FFFE
7FF8
07C0
07C0
07C0
07C0
07C0
07C0
07C0
07C0
07C0
07C0
07C0
07C0
07C0
07C0
07C0
07C0
07C0
07C0
07C0
07C0
07C0
07C0
07C0
07C0
07C0
07C0
07C0
07C0
07C0
07C0
07C0
07C0
1FF0
FFFE
FFFE
FFFE
ENDCHAR
STARTCHAR 00CD
ENCODING 205
SWIDTH 324 0
DWIDTH 18 0
BBX 15 52 2 0
BITMAP
007E
007E
00FC
01F8
01F0
03E0
07C0
0780
0000
0000
0000
0000
FFFE
FFFE
FFFE
7FF8
07C0
07C0
07C0
07C0
07C0
07C0
07C0
07C0
07C0
07C0
07C0
07C0
07C0
07C0
07C0
07C0
07C0
07C0
07C0
07C0
07C0
07C0
07C0
07C0
07C0
07C0
07C0
07C0
07C0
07C0
07C0
07C0
1FF0
FFFE
FFFE
FFFE
ENDCHAR
STARTCHAR 00CE
ENCODING 206
SWIDTH 324 0
DWIDTH 18 0
BBX 19 52 0 0
BITMAP
03F000
03F800
07FC00
0FFE00
1F3F00
3E1F80
7C07C0
F803E0
000000
000000
000000
000000
3FFF80
3FFF80
3FFF80
1FFE00
01F000
01F000
01F000
01F000
01F000
01F000
01F000
01F000
01F000
01F000
01F000
01F000
01F000
01F000
01F000
01F000
01F000
01F000
01F000
01F000
01F000
01F000
01F000
01F000
01F000
01F000
01F000
01F000
01F000
01F000
01F000
01F000
07FC00
3FFF80
3FFF80
3FFF80
ENDCHAR
STARTCHAR 00CF
ENCODING 207
SWIDTH 324 0
DWIDTH 18 0
BBX 15 50 2 0
BITMAP
F01E
F83E
F83E
F83E
701C
0000
0000
0000
0000
0000
FFFE
FFFE
FFFE
7FF8
07C0
07C0
07C0
07C0
07C0
07C0
07C0
07C0
07C0
07C0
07C0
07C0
07C0
07C0
07C0
07C0
07C0
07C0
07C0
07C0
07C0
07C0
07C0
07C0
07C0
07C0
07C0
07C0
07C0
07C0
07C0
07C0
1FF0
FFFE
FFFE
FFFE
ENDCHAR
STARTCHAR 00D0
ENCODING 208
SWIDTH 720 0
DWIDTH 40 0
BBX 35 40 2 0
BITMAP
0FFFE00000
0FFFFE0000
0FFFFFC000
0FFFFFF000
0FFFFFF800
0F8007FC00
0F8001FE00
0F80007F00
0F80003F00
0F80001F80
0F80000F80
0F80000FC0
0F800007C0
0F800007C0
0F800007E0
0F800003E0
0F800003E0
0F800003E0
FFFFE003E0
FFFFE003E0
FFFFE003E0
FFFFE003E0
FFFFE003E0
0F800003E0
0F800007E0
0F800007E0
0F800007C0
0F800007C0
0F80000FC0
0F80000F80
0F80001F80
0F80003F00
0F80007F00
0F8000FE00
0F8007FC00
0F807FF800
0FFFFFF000
0FFFFFC000
0FFFFF0000
0FFFF00000
ENDCHAR
STARTCHAR 00D1
ENCODING 209
SWIDTH 756 0
DWIDTH 42 0
BBX 32 51 5 0
BITMAP
001C01C0
007F01C0
00FFC1C0
01FFFFC0
01E7FF80
03C1FF00
03807E00
00000000
00000000
00000000
00000000
FC00001F
FE00001F
FF00001F
FF00001F
FF80001F
FFC0001F
FFC0001F
FFE0001F
FBE0001F
FBF0001F
F9F8001F
F8F8001F
F8FC001F
F87E001F
F83E001F
F83F001F
F81F801F
F80F801F
F80FC01F
F807E01F
F807E01F
F803F01F
F801F01F
F801F81F
F800FC1F
F8007C1F
F8007E1F
F8003F1F
F8001F1F
F8001F9F
F8000FDF
F80007DF
F80007EF
F80003FF
F80003FF
F80001FF
F80000FF
F80000FF
F800007F
F800003F
ENDCHAR
STARTCHAR 00D2
ENCODING 210
SWIDTH 774 0
DWIDTH 43 0
BBX 37 53 3 -1
BITMAP
000FC00000
0007C00000
0007E00000
0003F00000
0001F00000
0000F80000
00007C0000
00003C0000
0000000000
0000000000
0000000000
0000000000
0007FF8000
003FFFE000
00FFFFF800
01FFFFFE00
03FE03FF00
07F0007F80
0FE0001F80
1FC0000FC0
1F800007E0
3F000007E0
3F000003E0
3E000003F0
7E000001F0
7C000001F0
7C000001F0
7C000001F8
7C000000F8
FC000000F8
FC000000F8
FC000000F8
FC000000F8
FC000000F8
FC000000F8
7C000000F8
7C000001F8
7C000001F8
7C000001F0
7E000001F0
3E000003F0
3E000003E0
3F000007E0
1F800007E0
1F80000FC0
0FC0001F80
07F0003F80
07FC00FF00
03FFFFFE00
00FFFFFC00
007FFFF000
000FFFC000
0000300000
ENDCHAR
STARTCHAR 00D3
ENCODING 211
SWIDTH 774 0
DWIDTH 43 0
BBX 37 53 3 -1
BITMAP
000007E000
00000FC000
00001F8000
00001F0000
00003E0000
00007C0000
0000780000
0000F00000
0000000000
0000000000
0000000000
0000000000
0007FF8000
003FFFE000
00FFFFF800
01FFFFFE00
03FE03FF00
07F0007F80
0FE0001F80
1FC0000FC0
1F800007E0
3F000007E0
3F000003E0
3E000003F0
7E000001F0
7C000001F0
7C000001F0
7C000001F8
7C000000F8
FC000000F8
FC000000F8
FC000000F8
FC000000F8
FC000000F8
FC000000F8
7C000000F8
7C000001F8
7C000001F8
7C000001F0
7E000001F0
3E000003F0
3E000003E0
3F000007E0
1F800007E0
1F80000FC0
0FC0001F80
07F0003F80
07FC00FF00
03FFFFFE00
00FFFFFC00
007FFFF000
000FFFC000
0000300000
ENDCHAR
STARTCHAR 00D4
ENCODING 212
SWIDTH 774 0
DWIDTH 43 0
BBX 37 53 3 -1
BITMAP
0000FC0000
0001FC0000
0003FE0000
0007FF0000
000FCF8000
001F07C000
001E03E000
003C01F000
0000000000
0000000000
0000000000
0000000000
0007FF8000
003FFFE000
00FFFFF800
01FFFFFE00
03FE03FF00
07F0007F80
0FE0001F80
1FC0000FC0
1F800007E0
3F000007E0
3F000003E0
3E000003F0
7E000001F0
7C000001F0
7C000001F0
7C000001F8
7C000000F8
FC000000F8
FC000000F8
FC000000F8
FC000000F8
FC000000F8
FC000000F8
7C000000F8
7C000001F8
7C000001F8
7C000001F0
7E000001F0
3E000003F0
3E000003E0
3F000007E0
1F800007E0
1F80000FC0
0FC0001F80
07F0003F80
07FC00FF00
03FFFFFE00
00FFFFFC00
007FFFF000
000FFFC000
0000300000
ENDCHAR
STARTCHAR 00D5
ENCODING 213
SWIDTH 774 0
DWIDTH 43 0
BBX 37 52 3 -1
BITMAP
0003003800
001FC03800
003FF07800
003FFFF000
0078FFF000
00703FE000
00700FC000
0000000000
0000000000
0000000000
0000000000
0007FF8000
003FFFE000
00FFFFF800
01FFFFFE00
03FE03FF00
07F0007F80
0FE0001F80
1FC0000FC0
1F800007E0
3F000007E0
3F000003E0
3E000003F0
7E000001F0
7C000001F0
7C000001F0
7C000001F8
7C000000F8
FC000000F8
FC000000F8
FC000000F8
FC000000F8
FC000000F8
FC000000F8
7C000000F8
7C000001F8
7C000001F8
7C000001F0
7E000001F0
3E000003F0
3E000003E0
3F000007E0
1F800007E0
1F80000FC0
0FC0001F80
07F0003F80
07FC00FF00
03FFFFFE00
00FFFFFC00
007FFFF000
000FFFC000
0000300000
ENDCHAR
STARTCHAR 00D6
ENCODING 214
SWIDTH 774 0
DWIDTH 43 0
BBX 37 51 3 -1
BITMAP
001F03C000
001F07C000
001F07E000
001F03C000
000E03C000
0000000000
0000000000
0000000000
0000000000
0000000000
0007FF8000
003FFFE000
00FFFFF800
01FFFFFE00
03FE03FF00
07F0007F80
0FE0001F80
1FC0000FC0
1F800007E0
3F000007E0
3F000003E0
3E000003F0
7E000001F0
7C000001F0
7C000001F0
7C000001F8
7C000000F8
FC000000F8
FC000000F8
FC000000F8
FC000000F8
FC000000F8
FC000000F8
7C000000F8
7C000001F8
7C000001F8
7C000001F0
7E000001F0
3E000003F0
3E000003E0
3F000007E0
1F800007E0
1F80000FC0
0FC0001F80
07F0003F80
07FC00FF00
03FFFFFE00
00FFFFFC00
007FFFF000
000FFFC000
0000300000
ENDCHAR
STARTCHAR 00D7
ENCODING 215
SWIDTH 558 0
DWIDTH 31 0
BBX 24 25 4 7
BITMAP
200004
70000E
F8001F
FC003F
7E007E
3F00FC
1F81F8
0FC3F0
07E7E0
03FFC0
01FF80
00FF00
007E00
00FF00
01FF80
03FFC0
07E7E0
0FC3F0
1F81F8
3F00FC
7E007E
FC003F
F8001E
70000C
200000
ENDCHAR
STARTCHAR 00D8
ENCODING 216
SWIDTH 774 0
DWIDTH 43 0
BBX 37 43 3 -2
BITMAP
0000000180
0007FF83C0
003FFFE7C0
00FFFFFF80
01FFFFFF80
03FE03FF00
07F0007F00
0FE0003F80
1FC0007FC0
1F8000FFC0
3F0000F7E0
3F0001F3E0
3E0003E3F0
7E0007C1F0
7C0007C1F0
7C000F81F0
7C001F01F8
7C001F01F8
FC003E00F8
FC007C00F8
FC00F800F8
FC00F800F8
FC01F000F8
FC03E000F8
7C03E000F8
7C07C001F8
7C0F8001F8
7C0F0001F0
7E1F0001F0
3E3E0003F0
3E7C0003E0
3F7C0007E0
1FF80007E0
1FF0000FC0
0FF0001F80
07F0003F80
07FC00FF00
0FFFFFFE00
0FFFFFFC00
1F7FFFF000
3E0FFFC000
0E00B00000
0400000000
ENDCHAR
STARTCHAR 00D9
ENCODING 217
SWIDTH 720 0
DWIDTH 40 0
BBX 31 53 5 -1
BITMAP
00FC0000
007E0000
003F0000
001F0000
000F8000
0007C000
0003C000
0001E000
00000000
00000000
00000000
00000000
F800003E
F800003E
F800003E
F800003E
F800003E
F800003E
F800003E
F800003E
F800003E
F800003E
F800003E
F800003E
F800003E
F800003E
F800003E
F800003E
F800003E
F800003E
F800003E
F800003E
F800003E
F800003E
F800003E
F800003E
F800003E
F800003E
F800003E
F800003C
F800007C
F800007C
7C00007C
7C0000FC
7E0000F8
3F0001F8
3F8003F0
1FE00FF0
0FFFFFE0
07FFFFC0
03FFFF00
00FFFC00
00030000
ENDCHAR
STARTCHAR 00DA
ENCODING 218
SWIDTH 720 0
DWIDTH 40 0
BBX 31 53 5 -1
BITMAP
00007E00
00007C00
0000FC00
0001F800
0001F000
0003E000
0007C000
00078000
00000000
00000000
00000000
00000000
F800003E
F800003E
F800003E
F800003E
F800003E
F800003E
F800003E
F800003E
F800003E
F800003E
F800003E
F800003E
F800003E
F800003E
F800003E
F800003E
F800003E
F800003E
F800003E
F800003E
F800003E
F800003E
F800003E
F800003E
F800003E
F800003E
F800003E
F800003C
F800007C
F800007C
7C00007C
7C0000FC
7E0000F8
3F0001F8
3F8003F0
1FE00FF0
0FFFFFE0
07FFFFC0
03FFFF00
00FFFC00
00030000
ENDCHAR
STARTCHAR 00DB
ENCODING 219
SWIDTH 720 0
DWIDTH 40 0
BBX 31 53 5 -1
BITMAP
000FC000
001FE000
001FF000
003FF800
007CFC00
00F87C00
01F01E00
03E00F00
00000000
00000000
00000000
00000000
F800003E
F800003E
F800003E
F800003E
F800003E
F800003E
F800003E
F800003E
F800003E
F800003E
F800003E
F800003E
F800003E
F800003E
F800003E
F800003E
F800003E
F800003E
F800003E
F800003E
F800003E
F800003E
F800003E
F800003E
F800003E
F800003E
F800003E
F800003C
F800007C
F800007C
7C00007C
7C0000FC
7E0000F8
3F0001F8
3F8003F0
1FE00FF0
0FFFFFE0
07FFFFC0
03FFFF00
00FFFC00
00030000
ENDCHAR
STARTCHAR 00DC
ENCODING 220
SWIDTH 720 0
DWIDTH 40 0
BBX 31 51 5 -1
BITMAP
00F03E00
00F83E00
00F83E00
00F83E00
00F01C00
00000000
00000000
00000000
00000000
00000000
F800003E
F800003E
F800003E
F800003E
F800003E
F800003E
F800003E
F800003E
F800003E
F800003E
F800003E
F800003E
F800003E
F800003E
F800003E
F800003E
F800003E
F800003E
F800003E
F800003E
F800003E
F800003E
F800003E
F800003E
F800003E
F800003E
F800003E
F800003C
F800007C
F800007C
7C00007C
7C0000FC
7E0000F8
3F0001F8
3F8003F0
1FE00FF0
0FFFFFE0
07FFFFC0
03FFFF00
00FFFC00
00030000
ENDCHAR
STARTCHAR 00DD
ENCODING 221
SWIDTH 558 0
DWIDTH 31 0
BBX 31 52 0 0
BITMAP
00003F00
00007E00
0000FC00
0000F800
0001F000
0003E000
0003C000
00078000
00000000
00000000
00000000
00000000
FC00003E
7C00007E
7E00007C
3E0000FC
3F0000F8
1F0001F8
1F8001F0
0F8003F0
0FC003E0
07C007C0
07E007C0
03E00F80
01F00F80
01F01F00
00F81F00
00F83E00
007C7E00
007C7C00
003EFC00
003FF800
001FF000
001FF000
000FE000
000FE000
0007C000
0007C000
0007C000
0007C000
0007C000
0007C000
0007C000
0007C000
0007C000
0007C000
0007C000
0007C000
0007C000
0007C000
0007C000
0007C000
ENDCHAR
STARTCHAR 00DE
ENCODING 222
SWIDTH 594 0
DWIDTH 33 0
BBX 26 40 5 0
BITMAP
F8000000
F8000000
F8000000
F8000000
F8000000
F8000000
F8000000
FFFE0000
FFFFE000
FFFFF800
FFFFFE00
FFFFFE00
F8007F00
F8003F80
F8001F80
F8000F80
F8000FC0
F8000FC0
F80007C0
F80007C0
F80007C0
F8000FC0
F8000F80
F8000F80
F8001F80
F8003F00
F801FE00
FFFFFC00
FFFFF800
FFFFF000
FFFF8000
F8000000
F8000000
F8000000
F8000000
F8000000
F8000000
F8000000
F8000000
F8000000
ENDCHAR
STARTCHAR 00DF
ENCODING 223
SWIDTH 630 0
DWIDTH 35 0
BBX 28 43 5 0
BITMAP
03FFC000
0FFFF800
3FFFFC00
7FFFFE00
7E007E00
FC003F00
F8001F00
F8001F00
F8001F00
F8001F00
F8003E00
F8003E00
F800FC00
F801F800
F803F000
F807E000
F80FC000
F80F8000
F80F0000
F81F0000
F80F8000
F80FC000
F80FE000
F807F000
F803FC00
F801FE00
F8007F00
F8003F80
F8001FC0
F80007E0
F80003E0
F80003E0
F80001F0
F80001F0
F80001F0
F80001E0
F84003E0
F87007E0
F87F3FC0
F87FFFC0
F87FFF80
F81FFE00
0000C000
ENDCHAR
STARTCHAR 00E0
ENCODING 224
SWIDTH 558 0
DWIDTH 31 0
BBX 24 44 3 -1
BITMAP
07E000
03F000
03F000
01F800
00FC00
007C00
003E00
001F00
000F00
000000
000000
000000
000000
01FFC0
0FFFF0
1FFFF8
1FFFFC
0F00FE
08003E
00003E
00001F
00001F
00001F
00001F
00001F
003FFF
03FFFF
0FFFFF
3FFF9F
7F801F
7E001F
FC001F
F8001F
F8001F
F8003F
F8003F
F8007F
F800FF
FC01FF
7F8FDF
7FFF8F
3FFF0F
0FFE0F
01C000
ENDCHAR
STARTCHAR 00E1
ENCODING 225
SWIDTH 558 0
DWIDTH 31 0
BBX 24 44 3 -1
BITMAP
0001F8
0003F8
0003F0
0007E0
0007C0
000F80
001F00
001E00
003C00
000000
000000
000000
000000
01FFC0
0FFFF0
1FFFF8
1FFFFC
0F00FE
08003E
00003E
00001F
00001F
00001F
00001F
00001F
003FFF
03FFFF
0FFFFF
3FFF9F
7F801F
7E001F
FC001F
F8001F
F8001F
F8003F
F8003F
F8007F
F800FF
FC01FF
7F8FDF
7FFF8F
3FFF0F
0FFE0F
01C000
ENDCHAR
STARTCHAR 00E2
ENCODING 226
SWIDTH 558 0
DWIDTH 31 0
BBX 24 44 3 -1
BITMAP
003E00
007F00
007F00
00FF80
01F7C0
03E3E0
07C1F0
0F80F8
1F007C
000000
000000
000000
000000
01FFC0
0FFFF0
1FFFF8
1FFFFC
0F00FE
08003E
00003E
00001F
00001F
00001F
00001F
00001F
003FFF
03FFFF
0FFFFF
3FFF9F
7F801F
7E001F
FC001F
F8001F
F8001F
F8003F
F8003F
F8007F
F800FF
FC01FF
7F8FDF
7FFF8F
3FFF0F
0FFE0F
01C000
ENDCHAR
STARTCHAR 00E3
ENCODING 227
SWIDTH 558 0
DWIDTH 31 0
BBX 24 42 3 -1
BITMAP
01C00E
07F80E
0FFC1C
1FFFFC
1E3FFC
1C0FF8
1C03F0
000000
000000
000000
000000
01FFC0
0FFFF0
1FFFF8
1FFFFC
0F00FE
08003E
00003E
00001F
00001F
00001F
00001F
00001F
003FFF
03FFFF
0FFFFF
3FFF9F
7F801F
7E001F
FC001F
F8001F
F8001F
F8003F
F8003F
F8007F
F800FF
FC01FF
7F8FDF
7FFF8F
3FFF0F
0FFE0F
01C000
ENDCHAR
STARTCHAR 00E4
ENCODING 228
SWIDTH 558 0
DWIDTH 31 0
BBX 24 42 3 -1
BITMAP
010040
07C0F0
07C1F0
07C1F0
07C0F0
0380E0
000000
000000
000000
000000
000000
01FFC0
0FFFF0
1FFFF8
1FFFFC
0F00FE
08003E
00003E
00001F
00001F
00001F
00001F
00001F
003FFF
03FFFF
0FFFFF
3FFF9F
7F801F
7E001F
FC001F
F8001F
F8001F
F8003F
F8003F
F8007F
F800FF
FC01FF
7F8FDF
7FFF8F
3FFF0F
0FFE0F
01C000
ENDCHAR
STARTCHAR 00E5
ENCODING 229
SWIDTH 558 0
DWIDTH 31 0
BBX 24 46 3 -1
BITMAP
007F00
00FF80
01F3C0
01C1C0
01C0E0
0380E0
01C0E0
01C1C0
01F7C0
00FF80
007F00
000000
000000
000000
000000
01FFC0
0FFFF0
1FFFF8
1FFFFC
0F00FE
08003E
00003E
00001F
00001F
00001F
00001F
00001F
003FFF
03FFFF
0FFFFF
3FFF9F
7F801F
7E001F
FC001F
F8001F
F8001F
F8003F
F8003F
F8007F
F800FF
FC01FF
7F8FDF
7FFF8F
3FFF0F
0FFE0F
01C000
ENDCHAR
STARTCHAR 00E6
ENCODING 230
SWIDTH 864 0
DWIDTH 48 0
BBX 42 31 3 -1
BITMAP
01FF803FE000
0FFFE0FFF800
3FFFF1FFFC00
1FFFFBFFFE00
1E00FFE03F00
18007FC01F00
00007F800F80
00003F000F80
00003F0007C0
00003F0007C0
00003E0007C0
00003E0007C0
003FFFFFFFC0
03FFFFFFFFC0
1FFFFFFFFFC0
3FFF3FFFFFC0
7F003E000000
7C003E000000
FC003E000000
F8003E000000
F8003F000000
F8003F000000
F8007F000000
F8007F800000
F800FFC00080
FC03E7F00380
7F9FE3FFFF80
7FFFC1FFFF80
3FFF00FFFF80
0FFE003FFE00
01C000010000
ENDCHAR
STARTCHAR 00E7
ENCODING 231
SWIDTH 468 0
DWIDTH 26 0
BBX 22 43 3 -13
BITMAP
007FF0
03FFFC
07FFF8
0FFFF8
1FE038
3F8000
3E0000
7E0000
7C0000
7C0000
FC0000
F80000
F80000
F80000
F80000
F80000
F80000
F80000
F80000
FC0000
7C0000
7C0000
7E0000
3E0000
3F0000
1FC018
0FFFF8
0FFFF8
03FFF8
00FFF0
001E00
001C00
003C00
003E00
007F80
000FC0
0003C0
0003C0
0003C0
0003C0
01FF80
01FF80
01FE00
ENDCHAR
STARTCHAR 00E8
ENCODING 232
SWIDTH 558 0
DWIDTH 31 0
BBX 26 44 3 -1
BITMAP
03E00000
03F00000
01F80000
00F80000
00FC0000
007C0000
003E0000
001F0000
000F8000
00000000
00000000
00000000
00000000
00FFC000
03FFF000
07FFF800
0FFFFC00
1F807E00
3F003F00
3E001F00
7E001F80
7C000F80
7C000F80
78000F80
F8000F80
FFFFFF80
FFFFFFC0
FFFFFFC0
FFFFFFC0
F8000000
F8000000
F8000000
FC000000
7C000000
7C000000
7E000000
3E000000
3F800000
1FC00700
0FFFFF00
07FFFF00
03FFFF00
00FFFC00
000A0000
ENDCHAR
STARTCHAR 00E9
ENCODING 233
SWIDTH 558 0
DWIDTH 31 0
BBX 26 44 3 -1
BITMAP
0001F800
0001F800
0003F000
0007E000
0007C000
000F8000
001F0000
001E0000
003C0000
00000000
00000000
00000000
00000000
00FFC000
03FFF000
07FFF800
0FFFFC00
1F807E00
3F003F00
3E001F00
7E001F80
7C000F80
7C000F80
78000F80
F8000F80
FFFFFF80
FFFFFFC0
FFFFFFC0
FFFFFFC0
F8000000
F8000000
F8000000
FC000000
7C000000
7C000000
7E000000
3E000000
3F800000
1FC00700
0FFFFF00
07FFFF00
03FFFF00
00FFFC00
000A0000
ENDCHAR
STARTCHAR 00EA
ENCODING 234
SWIDTH 558 0
DWIDTH 31 0
BBX 26 44 3 -1
BITMAP
003E0000
003F0000
007F8000
00FF8000
01FFC000
03F3E000
07C1F000
0780F800
0F007C00
00000000
00000000
00000000
00000000
00FFC000
03FFF000
07FFF800
0FFFFC00
1F807E00
3F003F00
3E001F00
7E001F80
7C000F80
7C000F80
78000F80
F8000F80
FFFFFF80
FFFFFFC0
FFFFFFC0
FFFFFFC0
F8000000
F8000000
F8000000
FC000000
7C000000
7C000000
7E000000
3E000000
3F800000
1FC00700
0FFFFF00
07FFFF00
03FFFF00
00FFFC00
000A0000
ENDCHAR
STARTCHAR 00EB
ENCODING 235
SWIDTH 558 0
DWIDTH 31 0
BBX 26 42 3 -1
BITMAP
01004000
07C0F000
07C0F800
07C1F800
07C0F000
03807000
00000000
00000000
00000000
00000000
00000000
00FFC000
03FFF000
07FFF800
0FFFFC00
1F807E00
3F003F00
3E001F00
7E001F80
7C000F80
7C000F80
78000F80
F8000F80
FFFFFF80
FFFFFFC0
FFFFFFC0
FFFFFFC0
F8000000
F8000000
F8000000
FC000000
7C000000
7C000000
7E000000
3E000000
3F800000
1FC00700
0FFFFF00
07FFFF00
03FFFF00
00FFFC00
000A0000
ENDCHAR
STARTCHAR 00EC
ENCODING 236
SWIDTH 252 0
DWIDTH 14 0
BBX 11 43 0 0
BITMAP
FC00
FC00
7E00
3E00
1F00
0F80
0780
03C0
01E0
0000
0000
0000
0000
07C0
07C0
07C0
07C0
07C0
07C0
07C0
07C0
07C0
07C0
07C0
07C0
07C0
07C0
07C0
07C0
07C0
07C0
07C0
07C0
07C0
07C0
07C0
07C0
07C0
07C0
07C0
07C0
07C0
07C0
ENDCHAR
STARTCHAR 00ED
ENCODING 237
SWIDTH 252 0
DWIDTH 14 0
BBX 11 43 4 0
BITMAP
07E0
07E0
0FC0
0F80
1F80
3F00
3E00
7C00
F800
0000
0000
0000
0000
7C00
7C00
7C00
7C00
7C00
7C00
7C00
7C00
7C00
7C00
7C00
7C00
7C00
7C00
7C00
7C00
7C00
7C00
7C00
7C00
7C00
7C00
7C00
7C00
7C00
7C00
7C00
7C00
7C00
7C00
ENDCHAR
STARTCHAR 00EE
ENCODING 238
SWIDTH 252 0
DWIDTH 14 0
BBX 18 43 -2 0
BITMAP
01F000
03F000
07F800
0FFC00
0FFE00
1F3F00
3E1F00
7C0780
F003C0
000000
000000
000000
000000
01F000
01F000
01F000
01F000
01F000
01F000
01F000
01F000
01F000
01F000
01F000
01F000
01F000
01F000
01F000
01F000
01F000
01F000
01F000
01F000
01F000
01F000
01F000
01F000
01F000
01F000
01F000
01F000
01F000
01F000
ENDCHAR
STARTCHAR 00EF
ENCODING 239
SWIDTH 252 0
DWIDTH 14 0
BBX 16 41 -1 0
BITMAP
0004
781F
FC1F
FC1F
781F
780E
0000
0000
0000
0000
0000
03E0
03E0
03E0
03E0
03E0
03E0
03E0
03E0
03E0
03E0
03E0
03E0
03E0
03E0
03E0
03E0
03E0
03E0
03E0
03E0
03E0
03E0
03E0
03E0
03E0
03E0
03E0
03E0
03E0
03E0
ENDCHAR
STARTCHAR 00F0
ENCODING 240
SWIDTH 594 0
DWIDTH 33 0
BBX 28 43 3 0
BITMAP
00E00600
00F81F00
01FE3F00
00FFFE00
003FFC00
000FF000
001FF000
007FF800
01FFF800
03F8FC00
01E07E00
01803E00
00001F00
00000F80
00000F80
000007C0
00FFC7C0
03FFF3C0
0FFFFBE0
1FFFFFE0
1F803FE0
3F000FE0
7E0007E0
7C0007E0
7C0003F0
F80003F0
F80001F0
F80001F0
F80001F0
F80001E0
F80001E0
F80003E0
F80003E0
7C0003E0
7C0007C0
7E0007C0
3F000F80
1F801F80
1FF9FF00
0FFFFE00
03FFFC00
00FFF000
00040000
ENDCHAR
STARTCHAR 00F1
ENCODING 241
SWIDTH 612 0
DWIDTH 34 0
BBX 25 41 5 0
BITMAP
01C01C00
07F01C00
0FFC1C00
1FFFFC00
1C3FF800
381FF000
3807E000
00000000
00000000
00000000
00000000
F07FE000
F1FFF800
F3FFFC00
F7FFFE00
FF807F00
FE003F00
FE001F00
FC001F80
FC000F80
F8000F80
F8000F80
F8000F80
F8000F80
F8000F80
F8000F80
F8000F80
F8000F80
F8000F80
F8000F80
F8000F80
F8000F80
F8000F80
F8000F80
F8000F80
F8000F80
F8000F80
F8000F80
F8000F80
F8000F80
F8000F80
ENDCHAR
STARTCHAR 00F2
ENCODING 242
SWIDTH 594 0
DWIDTH 33 0
BBX 28 44 3 -1
BITMAP
01F00000
01F80000
00FC0000
007C0000
007E0000
003E0000
001F0000
000F8000
0007C000
00000000
00000000
00000000
00000000
007FE000
03FFF800
07FFFE00
0FFFFF00
1FC03F00
3F001F80
3E000FC0
7E0007C0
7C0007E0
7C0003E0
FC0003E0
F80003E0
F80003E0
F80003F0
F80001F0
F80001F0
F80003F0
F80003E0
F80003E0
FC0003E0
7C0003E0
7C0007E0
7E0007C0
3E000FC0
3F000F80
1F803F80
0FFFFF00
07FFFE00
03FFF800
00FFF000
00040000
ENDCHAR
STARTCHAR 00F3
ENCODING 243
SWIDTH 594 0
DWIDTH 33 0
BBX 28 44 3 -1
BITMAP
0000FC00
0000FC00
0001F800
0003F000
0003E000
0007C000
000F8000
000F0000
001E0000
00000000
00000000
00000000
00000000
007FE000
03FFF800
07FFFE00
0FFFFF00
1FC03F00
3F001F80
3E000FC0
7E0007C0
7C0007E0
7C0003E0
FC0003E0
F80003E0
F80003E0
F80003F0
F80001F0
F80001F0
F80003F0
F80003E0
F80003E0
FC0003E0
7C0003E0
7C0007E0
7E0007C0
3E000FC0
3F000F80
1F803F80
0FFFFF00
07FFFE00
03FFF800
00FFF000
00040000
ENDCHAR
STARTCHAR 00F4
ENCODING 244
SWIDTH 594 0
DWIDTH 33 0
BBX 28 44 3 -1
BITMAP
001F0000
001F8000
003FC000
007FC000
00FFE000
01F9F000
03E0F800
03C07C00
07803E00
00000000
00000000
00000000
00000000
007FE000
03FFF800
07FFFE00
0FFFFF00
1FC03F00
3F001F80
3E000FC0
7E0007C0
7C0007E0
7C0003E0
FC0003E0
F80003E0
F80003E0
F80003F0
F80001F0
F80001F0
F80003F0
F80003E0
F80003E0
FC0003E0
7C0003E0
7C0007E0
7E0007C0
3E000FC0
3F000F80
1F803F80
0FFFFF00
07FFFE00
03FFF800
00FFF000
00040000
ENDCHAR
STARTCHAR 00F5
ENCODING 245
SWIDTH 594 0
DWIDTH 33 0
BBX 28 42 3 -1
BITMAP
00F00700
03FC0700
07FF0F00
07FFFE00
0F1FFE00
0E07FC00
0E01F800
00000000
00000000
00000000
00000000
007FE000
03FFF800
07FFFE00
0FFFFF00
1FC03F00
3F001F80
3E000FC0
7E0007C0
7C0007E0
7C0003E0
FC0003E0
F80003E0
F80003E0
F80003F0
F80001F0
F80001F0
F80003F0
F80003E0
F80003E0
FC0003E0
7C0003E0
7C0007E0
7E0007C0
3E000FC0
3F000F80
1F803F80
0FFFFF00
07FFFE00
03FFF800
00FFF000
00040000
ENDCHAR
STARTCHAR 00F6
ENCODING 246
SWIDTH 594 0
DWIDTH 33 0
BBX 28 42 3 -1
BITMAP
00802000
03E07800
03E07C00
03E0FC00
03E07800
01C03800
00000000
00000000
00000000
00000000
00000000
007FE000
03FFF800
07FFFE00
0FFFFF00
1FC03F00
3F001F80
3E000FC0
7E0007C0
7C0007E0
7C0003E0
FC0003E0
F80003E0
F80003E0
F80003F0
F80001F0
F80001F0
F80003F0
F80003E0
F80003E0
FC0003E0
7C0003E0
7C0007E0
7E0007C0
3E000FC0
3F000F80
1F803F80
0FFFFF00
07FFFE00
03FFF800
00FFF000
00040000
ENDCHAR
STARTCHAR 00F7
ENCODING 247
SWIDTH 558 0
DWIDTH 31 0
BBX 26 25 3 7
BITMAP
003E0000
003F0000
003F0000
003F0000
003F0000
001E0000
00000000
00000000
00000000
00000000
FFFFFFC0
FFFFFFC0
FFFFFFC0
FFFFFFC0
00000000
00000000
00000000
00000000
00000000
003E0000
003F0000
003F0000
003F0000
003F0000
001E0000
ENDCHAR
STARTCHAR 00F8
ENCODING 248
SWIDTH 594 0
DWIDTH 33 0
BBX 28 33 3 -2
BITMAP
00000180
007FE3C0
03FFFFC0
07FFFF80
0FFFFF80
1FC07F00
3F003F80
3E003FC0
7E007FC0
7C00FFE0
7C00F3E0
FC01F3E0
F803E3E0
F807C3E0
F80783F0
F80F81F0
F81F01F0
F81E03F0
F83E03E0
F87C03E0
FCF803E0
7CF003E0
7DF007E0
7FE007C0
3FC00FC0
3FC00F80
1FC03F80
1FFFFF00
1FFFFE00
3FFFF800
7CFFF000
38040000
08000000
ENDCHAR
STARTCHAR 00F9
ENCODING 249
SWIDTH 612 0
DWIDTH 34 0
BBX 26 44 4 -1
BITMAP
03F00000
03F00000
01F80000
00F80000
007C0000
003E0000
001E0000
000F0000
00078000
00000000
00000000
00000000
00000000
F80007C0
F80007C0
F80007C0
F80007C0
F80007C0
F80007C0
F80007C0
F80007C0
F80007C0
F80007C0
F80007C0
F80007C0
F80007C0
F80007C0
F80007C0
F80007C0
F80007C0
F80007C0
F80007C0
F8000FC0
F8000FC0
F8000FC0
7C001FC0
7C001FC0
7E003FC0
7F007FC0
3FFFF7C0
1FFFF7C0
0FFFC7C0
07FF83C0
00380000
ENDCHAR
STARTCHAR 00FA
ENCODING 250
SWIDTH 612 0
DWIDTH 34 0
BBX 26 44 4 -1
BITMAP
0001F800
0001F800
0003F000
0003E000
0007E000
000FC000
000F8000
001F0000
003E0000
00000000
00000000
00000000
00000000
F80007C0
F80007C0
F80007C0
F80007C0
F80007C0
F80007C0
F80007C0
F80007C0
F80007C0
F80007C0
F80007C0
F80007C0
F80007C0
F80007C0
F80007C0
F80007C0
F80007C0
F80007C0
F80007C0
F8000FC0
F8000FC0
F8000FC0
7C001FC0
7C001FC0
7E003FC0
7F007FC0
3FFFF7C0
1FFFF7C0
0FFFC7C0
07FF83C0
00380000
ENDCHAR
STARTCHAR 00FB
ENCODING 251
SWIDTH 612 0
DWIDTH 34 0
BBX 26 44 4 -1
BITMAP
001F0000
003F0000
007F8000
00FFC000
00FFE000
01F3F000
03E1F000
07C07800
0F003C00
00000000
00000000
00000000
00000000
F80007C0
F80007C0
F80007C0
F80007C0
F80007C0
F80007C0
F80007C0
F80007C0
F80007C0
F80007C0
F80007C0
F80007C0
F80007C0
F80007C0
F80007C0
F80007C0
F80007C0
F80007C0
F80007C0
F8000FC0
F8000FC0
F8000FC0
7C001FC0
7C001FC0
7E003FC0
7F007FC0
3FFFF7C0
1FFFF7C0
0FFFC7C0
07FF83C0
00380000
ENDCHAR
STARTCHAR 00FC
ENCODING 252
SWIDTH 612 0
DWIDTH 34 0
BBX 26 42 4 -1
BITMAP
00002000
03C0F800
07E0F800
07E0F800
03C0F800
03C07000
00000000
00000000
00000000
00000000
00000000
F80007C0
F80007C0
F80007C0
F80007C0
F80007C0
F80007C0
F80007C0
F80007C0
F80007C0
F80007C0
F80007C0
F80007C0
F80007C0
F80007C0
F80007C0
F80007C0
F80007C0
F80007C0
F80007C0
F8000FC0
F8000FC0
F8000FC0
7C001FC0
7C001FC0
7E003FC0
7F007FC0
3FFFF7C0
1FFFF7C0
0FFFC7C0
07FF83C0
00380000
ENDCHAR
STARTCHAR 00FD
ENCODING 253
SWIDTH 504 0
DWIDTH 28 0
BBX 28 56 0 -13
BITMAP
0000FC00
0000FC00
0001F800
0001F000
0003F000
0007E000
0007C000
000F8000
001F0000
00000000
00000000
00000000
00000000
F80001F0
7C0001F0
7C0003E0
7E0003E0
3E0003E0
3E0007C0
1F0007C0
1F000FC0
1F000F80
0F800F80
0F801F00
07C01F00
07C01F00
07C03E00
03E03E00
03E03E00
01E07C00
01F07C00
01F07800
00F8F800
00F8F800
0078F000
007DF000
007DF000
003DE000
003FE000
001FC000
001FC000
001FC000
000F8000
000F8000
001F8000
001F0000
001F0000
003E0000
003E0000
007C0000
00FC0000
01F80000
7FF80000
7FF00000
7FE00000
7F800000
ENDCHAR
STARTCHAR 00FE
ENCODING 254
SWIDTH 612 0
DWIDTH 34 0
BBX 26 55 5 -13
BITMAP
F8000000
F8000000
F8000000
F8000000
F8000000
F8000000
F8000000
F8000000
F8000000
F8000000
F8000000
F8000000
F87FE000
F9FFF000
FBFFFC00
FFFFFE00
FF807E00
FE003F00
FC001F80
FC000F80
FC000F80
F8000FC0
F80007C0
F80007C0
F80007C0
F80007C0
F80007C0
F80007C0
F80007C0
F80007C0
F80007C0
F80007C0
F8000FC0
F8000F80
FC000F80
FC001F80
FE003F00
FF807F00
F7FFFE00
F3FFFC00
F1FFF800
F87FE000
F8060000
F8000000
F8000000
F8000000
F8000000
F8000000
F8000000
F8000000
F8000000
F8000000
F8000000
F8000000
F8000000
ENDCHAR
STARTCHAR 00FF
ENCODING 255
SWIDTH 504 0
DWIDTH 28 0
BBX 28 54 0 -13
BITMAP
00001000
01E07C00
03F07C00
03F07C00
01E07C00
01E03800
00000000
00000000
00000000
00000000
00000000
F80001F0
7C0001F0
7C0003E0
7E0003E0
3E0003E0
3E0007C0
1F0007C0
1F000FC0
1F000F80
0F800F80
0F801F00
07C01F00
07C01F00
07C03E00
03E03E00
03E03E00
01E07C00
01F07C00
01F07800
00F8F800
00F8F800
0078F000
007DF000
007DF000
003DE000
003FE000
001FC000
001FC000
001FC000
000F8000
000F8000
001F8000
001F0000
001F0000
003E0000
003E0000
007C0000
00FC0000
01F80000
7FF80000
7FF00000
7FE00000
7F800000
ENDCHAR
STARTCHAR 0100
ENCODING 256
SWIDTH 630 0
DWIDTH 35 0
BBX 35 48 0 0
BITMAP
007FFFC000
007FFFC000
007FFFC000
007FFFC000
0000000000
0000000000
0000000000
0000000000
0001F00000
0001F80000
0001F80000
0003F80000
0003FC0000
0007FC0000
0007BC0000
0007BE0000
000F9E0000
000F9F0000
001F1F0000
001F0F0000
001F0F8000
003E0F8000
003E07C000
003C07C000
007C07C000
007C03E000
00F803E000
00F801F000
00F801F000
01F001F000
01F000F800
03FFFFF800
03FFFFF800
03FFFFFC00
07FFFFFC00
07FFFFFE00
0F80003E00
0F80003E00
0F80001F00
1F00001F00
1F00001F80
1F00000F80
3E00000F80
3E000007C0
7C000007C0
7C000007C0
7C000003E0
F8000003E0
ENDCHAR
STARTCHAR 0101
ENCODING 257
SWIDTH 558 0
DWIDTH 31 0
BBX 24 39 3 -1
BITMAP
0FFFF8
0FFFF8
0FFFF8
0FFFF8
000000
000000
000000
000000
01FFC0
0FFFF0
1FFFF8
1FFFFC
0F00FE
08003E
00003E
00001F
00001F
00001F
00001F
00001F
003FFF
03FFFF
0FFFFF
3FFF9F
7F801F
7E001F
FC001F
F8001F
F8001F
F8003F
F8003F
F8007F
F800FF
FC01FF
7F8FDF
7FFF8F
3FFF0F
0FFE0F
01C000
ENDCHAR
STARTCHAR 0102
ENCODING 258
SWIDTH 630 0
DWIDTH 35 0
BBX 35 51 0 0
BITMAP
007001C000
007001C000
007803C000
003FFF8000
003FFF8000
001FFF0000
0007FC0000
0000000000
0000000000
0000000000
0000000000
0001F00000
0001F80000
0001F80000
0003F80000
0003FC0000
0007FC0000
0007BC0000
0007BE0000
000F9E0000
000F9F0000
001F1F0000
001F0F0000
001F0F8000
003E0F8000
003E07C000
003C07C000
007C07C000
007C03E000
00F803E000
00F801F000
00F801F000
01F001F000
01F000F800
03FFFFF800
03FFFFF800
03FFFFFC00
07FFFFFC00
07FFFFFE00
0F80003E00
0F80003E00
0F80001F00
1F00001F00
1F00001F80
1F00000F80
3E00000F80
3E000007C0
7C000007C0
7C000007C0
7C000003E0
F8000003E0
ENDCHAR
STARTCHAR 0103
ENCODING 259
SWIDTH 558 0
DWIDTH 31 0
BBX 24 42 3 -1
BITMAP
0E0038
0E0038
0F0078
07FFF0
07FFE0
03FFC0
00FF80
000000
000000
000000
000000
01FFC0
0FFFF0
1FFFF8
1FFFFC
0F00FE
08003E
00003E
00001F
00001F
00001F
00001F
00001F
003FFF
03FFFF
0FFFFF
3FFF9F
7F801F
7E001F
FC001F
F8001F
F8001F
F8003F
F8003F
F8007F
F800FF
FC01FF
7F8FDF
7FFF8F
3FFF0F
0FFE0F
01C000
ENDCHAR
STARTCHAR 0104
ENCODING 260
SWIDTH 630 0
DWIDTH 35 0
BBX 35 52 0 -12
BITMAP
0001F00000
0001F80000
0001F80000
0003F80000
0003FC0000
0007FC0000
0007BC0000
0007BE0000
000F9E0000
000F9F0000
001F1F0000
001F0F0000
001F0F8000
003E0F8000
003E07C000
003C07C000
007C07C000
007C03E000
00F803E000
00F801F000
00F801F000
01F001F000
01F000F800
03FFFFF800
03FFFFF800
03FFFFFC00
07FFFFFC00
07FFFFFE00
0F80003E00
0F80003E00
0F80001F00
1F00001F00
1F00001F80
1F00000F80
3E00000F80
3E000007C0
7C000007C0
7C000007C0
7C000003E0
F8000003E0
00000003C0
0000000780
0000000F00
0000001E00
0000001E00
0000003C00
0000003C00
0000003C00
0000003E00
0000001FE0
0000001FE0
00000007E0
ENDCHAR
STARTCHAR 0105
ENCODING 261
SWIDTH 558 0
DWIDTH 31 0
BBX 25 42 3 -12
BITMAP
01FFC000
0FFFF000
1FFFF800
1FFFFC00
0F00FE00
08003E00
00003E00
00001F00
00001F00
00001F00
00001F00
00001F00
003FFF00
03FFFF00
0FFFFF00
3FFF9F00
7F801F00
7E001F00
FC001F00
F8001F00
F8001F00
F8003F00
F8003F00
F8007F00
F800FF00
FC01FF00
7F8FDF00
7FFF8F00
3FFF0F00
0FFE0F00
01C01E00
00003C00
00003800
00007800
0000F000
0000F000
0000F000
0000F000
0000F800
0000FF80
00007F80
00003F80
ENDCHAR
STARTCHAR 0106
ENCODING 262
SWIDTH 630 0
DWIDTH 35 0
BBX 30 53 3 -1
BITMAP
00000FC0
00001F80
00001F00
00003F00
00007E00
00007C00
0000F800
0001F000
00000000
00000000
00000000
00000000
0007FFC0
001FFFF8
007FFFFC
01FFFFFC
03FF01F8
07F80038
0FE00000
0FC00000
1F800000
1F800000
3F000000
3E000000
7E000000
7E000000
7C000000
7C000000
7C000000
FC000000
FC000000
FC000000
FC000000
FC000000
FC000000
7C000000
7C000000
7C000000
7C000000
7E000000
3E000000
3F000000
3F000000
1F800000
1FC00000
0FE00000
0FF00000
07FE0078
03FFFFF8
00FFFFF8
007FFFF8
000FFFE0
0000F000
ENDCHAR
STARTCHAR 0107
ENCODING 263
SWIDTH 468 0
DWIDTH 26 0
BBX 22 44 3 -1
BITMAP
0001F8
0001F8
0003F0
0007E0
0007C0
000F80
001F00
001E00
003C00
000000
000000
000000
000000
007FF0
03FFFC
07FFF8
0FFFF8
1FE038
3F8000
3E0000
7E0000
7C0000
7C0000
FC0000
F80000
F80000
F80000
F80000
F80000
F80000
F80000
F80000
FC0000
7C0000
7C0000
7E0000
3E0000
3F0000
1FC018
0FFFF8
0FFFF8
03FFF8
00FFF0
000400
ENDCHAR
STARTCHAR 0108
ENCODING 264
SWIDTH 630 0
DWIDTH 35 0
BBX 30 53 3 -1
BITMAP
0001F800
0003FC00
0007FE00
0007FE00
000F9F00
001F0F80
003E07C0
007801E0
00000000
00000000
00000000
00000000
0007FFC0
001FFFF8
007FFFFC
01FFFFFC
03FF01F8
07F80038
0FE00000
0FC00000
1F800000
1F800000
3F000000
3E000000
7E000000
7E000000
7C000000
7C000000
7C000000
FC000000
FC000000
FC000000
FC000000
FC000000
FC000000
7C000000
7C000000
7C000000
7C000000
7E000000
3E000000
3F000000
3F000000
1F800000
1FC00000
0FE00000
0FF00000
07FE0078
03FFFFF8
00FFFFF8
007FFFF8
000FFFE0
0000F000
ENDCHAR
STARTCHAR 0109
ENCODING 265
SWIDTH 468 0
DWIDTH 26 0
BBX 22 44 3 -1
BITMAP
003E00
003F00
007F80
00FF80
01FFC0
03E3E0
07C1F0
0780F8
0F007C
000000
000000
000000
000000
007FF0
03FFFC
07FFF8
0FFFF8
1FE038
3F8000
3E0000
7E0000
7C0000
7C0000
FC0000
F80000
F80000
F80000
F80000
F80000
F80000
F80000
F80000
FC0000
7C0000
7C0000
7E0000
3E0000
3F0000
1FC018
0FFFF8
0FFFF8
03FFF8
00FFF0
000400
ENDCHAR
STARTCHAR 010A
ENCODING 266
SWIDTH 630 0
DWIDTH 35 0
BBX 30 52 3 -1
BITMAP
00007000
0000F800
0001F800
0001F800
0001F800
0000F000
00000000
00000000
00000000
00000000
00000000
0007FFC0
001FFFF8
007FFFFC
01FFFFFC
03FF01F8
07F80038
0FE00000
0FC00000
1F800000
1F800000
3F000000
3E000000
7E000000
7E000000
7C000000
7C000000
7C000000
FC000000
FC000000
FC000000
FC000000
FC000000
FC000000
7C000000
7C000000
7C000000
7C000000
7E000000
3E000000
3F000000
3F000000
1F800000
1FC00000
0FE00000
0FF00000
07FE0078
03FFFFF8
00FFFFF8
007FFFF8
000FFFE0
0000F000
ENDCHAR
STARTCHAR 010B
ENCODING 267
SWIDTH 468 0
DWIDTH 26 0
BBX 22 42 3 -1
BITMAP
001C00
003E00
003F00
003F00
003E00
001E00
000000
000000
000000
000000
000000
007FF0
03FFFC
07FFF8
0FFFF8
1FE038
3F8000
3E0000
7E0000
7C0000
7C0000
FC0000
F80000
F80000
F80000
F80000
F80000
F80000
F80000
F80000
FC0000
7C0000
7C0000
7E0000
3E0000
3F0000
1FC018
0FFFF8
0FFFF8
03FFF8
00FFF0
000400
ENDCHAR
STARTCHAR 010C
ENCODING 268
SWIDTH 630 0
DWIDTH 35 0
BBX 30 53 3 -1
BITMAP
007801E0
003E07C0
001F0F80
000F9F00
0007FE00
0007FE00
0003FC00
0001F800
00000000
00000000
00000000
00000000
0007FFC0
001FFFF8
007FFFFC
01FFFFFC
03FF01F8
07F80038
0FE00000
0FC00000
1F800000
1F800000
3F000000
3E000000
7E000000
7E000000
7C000000
7C000000
7C000000
FC000000
FC000000
FC000000
FC000000
FC000000
FC000000
7C000000
7C000000
7C000000
7C000000
7E000000
3E000000
3F000000
3F000000
1F800000
1FC00000
0FE00000
0FF00000
07FE0078
03FFFFF8
00FFFFF8
007FFFF8
000FFFE0
0000F000
ENDCHAR
STARTCHAR 010D
ENCODING 269
SWIDTH 468 0
DWIDTH 26 0
BBX 22 44 3 -1
BITMAP
1E001C
0F007C
0780F8
03E1F0
03F3E0
01FFC0
00FF80
007F00
003F00
000000
000000
000000
000000
007FF0
03FFFC
07FFF8
0FFFF8
1FE038
3F8000
3E0000
7E0000
7C0000
7C0000
FC0000
F80000
F80000
F80000
F80000
F80000
F80000
F80000
F80000
FC0000
7C0000
7C0000
7E0000
3E0000
3F0000
1FC018
0FFFF8
0FFFF8
03FFF8
00FFF0
000400
ENDCHAR
STARTCHAR 010E
ENCODING 270
SWIDTH 720 0
DWIDTH 40 0
BBX 32 52 5 0
BITMAP
03C00F00
01F03E00
00F87C00
007CF800
003FF000
003FF000
001FE000
000FC000
00000000
00000000
00000000
00000000
FFFF0000
FFFFF000
FFFFFE00
FFFFFF80
FFFFFFC0
F8003FE0
F8000FF0
F80003F8
F80001F8
F80000FC
F800007C
F800007E
F800003E
F800003E
F800003F
F800001F
F800001F
F800001F
F800001F
F800001F
F800001F
F800001F
F800001F
F800001F
F800003F
F800003F
F800003E
F800003E
F800007E
F800007C
F80000FC
F80001F8
F80003F8
F80007F0
F8003FE0
F803FFC0
FFFFFF80
FFFFFE00
FFFFF800
FFFF8000
ENDCHAR
STARTCHAR 010F
ENCODING 271
SWIDTH 612 0
DWIDTH 34 0
BBX 35 43 3 -1
BITMAP
000003C3E0
000003C3E0
000003C3C0
000003C3C0
000003C3C0
000003C780
000003C780
000003C700
000003C600
000003C000
000003C000
000003C000
00FF83C000
03FFE3C000
0FFFF3C000
1FFFFBC000
1FC07FC000
3F001FC000
3E000FC000
7E000FC000
7C0007C000
7C0007C000
FC0007C000
F80007C000
F80007C000
F80003C000
F80003C000
F80003C000
F80003C000
F80003C000
F80007C000
F80007C000
7C0007C000
7C0007C000
7C000FC000
7E000FC000
3F001FC000
3F803FC000
1FFFFBC000
0FFFF3C000
07FFE3C000
01FF83C000
0008000000
ENDCHAR
STARTCHAR 0110
ENCODING 272
SWIDTH 720 0
DWIDTH 40 0
BBX 35 40 2 0
BITMAP
0FFFE00000
0FFFFE0000
0FFFFFC000
0FFFFFF000
0FFFFFF800
0F8007FC00
0F8001FE00
0F80007F00
0F80003F00
0F80001F80
0F80000F80
0F80000FC0
0F800007C0
0F800007C0
0F800007E0
0F800003E0
0F800003E0
0F800003E0
FFFFE003E0
FFFFE003E0
FFFFE003E0
FFFFE003E0
FFFFE003E0
0F800003E0
0F800007E0
0F800007E0
0F800007C0
0F800007C0
0F80000FC0
0F80000F80
0F80001F80
0F80003F00
0F80007F00
0F8000FE00
0F8007FC00
0F807FF800
0FFFFFF000
0FFFFFC000
0FFFFF0000
0FFFF00000
ENDCHAR
STARTCHAR 0111
ENCODING 273
SWIDTH 612 0
DWIDTH 34 0
BBX 31 43 3 -1
BITMAP
000003C0
000003C0
000003C0
000003C0
000003C0
003FFFFE
003FFFFE
003FFFFE
000003C0
000003C0
000003C0
000003C0
00FF83C0
03FFE3C0
07FFF3C0
0FFFFBC0
1FC07FC0
3F001FC0
3E000FC0
7E000FC0
7C0007C0
7C0007C0
FC0007C0
F80007C0
F80007C0
F80003C0
F80003C0
F80003C0
F80003C0
F80003C0
F80007C0
FC0007C0
7C0007C0
7C0007C0
7C0007C0
7E000FC0
3F001FC0
3F803FC0
1FFFFBC0
0FFFF3C0
07FFE3C0
01FF83C0
00080000
ENDCHAR
STARTCHAR 0112
ENCODING 274
SWIDTH 540 0
DWIDTH 30 0
BBX 23 48 5 0
BITMAP
0FFFF0
0FFFF0
0FFFF0
0FFFF0
000000
000000
000000
000000
FFFFFE
FFFFFE
FFFFFE
FFFFFE
FFFFFE
F80000
F80000
F80000
F80000
F80000
F80000
F80000
F80000
F80000
F80000
F80000
F80000
FFFFFC
FFFFFC
FFFFFC
FFFFFC
F80000
F80000
F80000
F80000
F80000
F80000
F80000
F80000
F80000
F80000
F80000
F80000
F80000
F80000
F80000
FFFFFE
FFFFFE
FFFFFE
FFFFFE
ENDCHAR
STARTCHAR 0113
ENCODING 275
SWIDTH 558 0
DWIDTH 31 0
BBX 26 39 3 -1
BITMAP
07FFF800
07FFF800
07FFF800
07FFF800
00000000
00000000
00000000
00000000
00FFC000
03FFF000
07FFF800
0FFFFC00
1F807E00
3F003F00
3E001F00
7E001F80
7C000F80
7C000F80
78000F80
F8000F80
FFFFFF80
FFFFFFC0
FFFFFFC0
FFFFFFC0
F8000000
F8000000
F8000000
FC000000
7C000000
7C000000
7E000000
3E000000
3F800000
1FC00700
0FFFFF00
07FFFF00
03FFFF00
00FFFC00
000A0000
ENDCHAR
STARTCHAR 0114
ENCODING 276
SWIDTH 540 0
DWIDTH 30 0
BBX 23 51 5 0
BITMAP
1C0078
1E0070
0E00F0
0FFFF0
07FFE0
03FFC0
01FF00
000000
000000
000000
000000
FFFFFE
FFFFFE
FFFFFE
FFFFFE
FFFFFE
F80000
F80000
F80000
F80000
F80000
F80000
F80000
F80000
F80000
F80000
F80000
F80000
FFFFFC
FFFFFC
FFFFFC
FFFFFC
F80000
F80000
F80000
F80000
F80000
F80000
F80000
F80000
F80000
F80000
F80000
F80000
F80000
F80000
F80000
FFFFFE
FFFFFE
FFFFFE
FFFFFE
ENDCHAR
STARTCHAR 0115
ENCODING 277
SWIDTH 558 0
DWIDTH 31 0
BBX 26 42 3 -1
BITMAP
0E003800
0F003800
07007800
07FFF000
03FFF000
01FFE000
00FF8000
00000000
00000000
00000000
00000000
00FFC000
03FFF000
07FFF800
0FFFFC00
1F807E00
3F003F00
3E001F00
7E001F80
7C000F80
7C000F80
78000F80
F8000F80
FFFFFF80
FFFFFFC0
FFFFFFC0
FFFFFFC0
F8000000
F8000000
F8000000
FC000000
7C000000
7C000000
7E000000
3E000000
3F800000
1FC00700
0FFFFF00
07FFFF00
03FFFF00
00FFFC00
000A0000
ENDCHAR
STARTCHAR 0116
ENCODING 278
SWIDTH 540 0
DWIDTH 30 0
BBX 23 51 5 0
BITMAP
001800
007C00
007E00
007E00
007E00
003C00
000000
000000
000000
000000
000000
FFFFFE
FFFFFE
FFFFFE
FFFFFE
FFFFFE
F80000
F80000
F80000
F80000
F80000
F80000
F80000
F80000
F80000
F80000
F80000
F80000
FFFFFC
FFFFFC
FFFFFC
FFFFFC
F80000
F80000
F80000
F80000
F80000
F80000
F80000
F80000
F80000
F80000
F80000
F80000
F80000
F80000
F80000
FFFFFE
FFFFFE
FFFFFE
FFFFFE
ENDCHAR
STARTCHAR 0117
ENCODING 279
SWIDTH 558 0
DWIDTH 31 0
BBX 26 42 3 -1
BITMAP
001C0000
003E0000
003F0000
003F0000
003F0000
001E0000
00000000
00000000
00000000
00000000
00000000
00FFC000
03FFF000
07FFF800
0FFFFC00
1F807E00
3F003F00
3E001F00
7E001F80
7C000F80
7C000F80
78000F80
F8000F80
FFFFFF80
FFFFFFC0
FFFFFFC0
FFFFFFC0
F8000000
F8000000
F8000000
FC000000
7C000000
7C000000
7E000000
3E000000
3F800000
1FC00700
0FFFFF00
07FFFF00
03FFFF00
00FFFC00
000A0000
ENDCHAR
STARTCHAR 0118
ENCODING 280
SWIDTH 540 0
DWIDTH 30 0
BBX 23 52 5 -12
BITMAP
FFFFFE
FFFFFE
FFFFFE
FFFFFE
FFFFFE
F80000
F80000
F80000
F80000
F80000
F80000
F80000
F80000
F80000
F80000
F80000
F80000
FFFFFC
FFFFFC
FFFFFC
FFFFFC
F80000
F80000
F80000
F80000
F80000
F80000
F80000
F80000
F80000
F80000
F80000
F80000
F80000
F80000
F80000
FFFFFE
FFFFFE
FFFFFE
FFFFFE
000070
0000E0
0001E0
0003C0
000380
000780
000780
000780
0007C0
0003FC
0003FC
0001FC
ENDCHAR
STARTCHAR 0119
ENCODING 281
SWIDTH 558 0
DWIDTH 31 0
BBX 26 42 3 -12
BITMAP
00FFC000
03FFF000
07FFF800
0FFFFC00
1F807E00
3F003F00
3E001F00
7E001F80
7C000F80
7C000F80
78000F80
F8000F80
FFFFFF80
FFFFFFC0
FFFFFFC0
FFFFFFC0
F8000000
F8000000
F8000000
FC000000
7C000000
7C000000
7E000000
3E000000
3F800000
1FC00700
0FFFFF00
07FFFF00
03FFFF00
00FFFE00
000ABC00
00007800
0000F000
0000E000
0001E000
0001E000
0001E000
0001E000
0001F000
0001FF00
0000FF00
00007F00
ENDCHAR
STARTCHAR 011A
ENCODING 282
SWIDTH 540 0
DWIDTH 30 0
BBX 23 52 5 0
BITMAP
1E0078
0F81F0
07C3E0
03E7C0
03FF80
01FF00
00FF00
007E00
000000
000000
000000
000000
FFFFFE
FFFFFE
FFFFFE
FFFFFE
FFFFFE
F80000
F80000
F80000
F80000
F80000
F80000
F80000
F80000
F80000
F80000
F80000
F80000
FFFFFC
FFFFFC
FFFFFC
FFFFFC
F80000
F80000
F80000
F80000
F80000
F80000
F80000
F80000
F80000
F80000
F80000
F80000
F80000
F80000
F80000
FFFFFE
FFFFFE
FFFFFE
FFFFFE
ENDCHAR
STARTCHAR 011B
ENCODING 283
SWIDTH 558 0
DWIDTH 31 0
BBX 26 44 3 -1
BITMAP
1E001C00
0F007C00
07C0F800
03E1F000
01F3E000
01FFC000
00FF8000
007F0000
003F0000
00000000
00000000
00000000
00000000
00FFC000
03FFF000
07FFF800
0FFFFC00
1F807E00
3F003F00
3E001F00
7E001F80
7C000F80
7C000F80
78000F80
F8000F80
FFFFFF80
FFFFFFC0
FFFFFFC0
FFFFFFC0
F8000000
F8000000
F8000000
FC000000
7C000000
7C000000
7E000000
3E000000
3F800000
1FC00700
0FFFFF00
07FFFF00
03FFFF00
00FFFC00
000A0000
ENDCHAR
STARTCHAR 011C
ENCODING 284
SWIDTH 720 0
DWIDTH 40 0
BBX 33 53 3 -1
BITMAP
0000FE0000
0000FE0000
0001FF0000
0003FF8000
0007CFC000
000F83E000
001F01F000
003E00F800
0000000000
0000000000
0000000000
0000000000
0001FFF000
000FFFFE00
003FFFFF80
00FFFFFF00
01FF807F00
03FC000E00
07F0000000
0FE0000000
1FC0000000
1F80000000
3F00000000
3E00000000
7E00000000
7E00000000
7C00000000
7C00000000
7C00000000
FC00000000
FC00000000
FC000FFF80
FC000FFF80
FC000FFF80
FC000FFF80
7C000FFF80
7C00000F80
7C00000F80
7C00000F80
7E00000F80
3E00000F80
3F00000F80
3F00000F80
1F80000F80
1FC0000F80
0FE0000F80
07F0000F80
03FE001F80
01FFFFFF80
00FFFFFF80
003FFFFF80
000FFFFC00
0000380000
ENDCHAR
STARTCHAR 011D
ENCODING 285
SWIDTH 612 0
DWIDTH 34 0
BBX 26 56 3 -13
BITMAP
001F0000
003F8000
003F8000
007FC000
00FBE000
01F1F000
03E0F800
07C07C00
0F803E00
00000000
00000000
00000000
00000000
00FF83C0
03FFE3C0
07FFF3C0
0FFFFBC0
1FC07FC0
3F001FC0
3E000FC0
7E000FC0
7C0007C0
7C0007C0
FC0007C0
F80007C0
F80003C0
F80003C0
F80003C0
F80003C0
F80003C0
F80003C0
F80003C0
F80007C0
7C0007C0
7C0007C0
7C0007C0
3E000FC0
3F001FC0
1F803FC0
1FF3FBC0
0FFFF3C0
07FFE3C0
01FFC3C0
000803C0
000003C0
000007C0
000007C0
000007C0
000007C0
00000FC0
30001F80
3E007F80
3FFFFF00
3FFFFE00
1FFFF800
07FFE000
ENDCHAR
STARTCHAR 011E
ENCODING 286
SWIDTH 720 0
DWIDTH 40 0
BBX 33 52 3 -1
BITMAP
001C007000
001C007000
001E00F000
000FFFE000
000FFFC000
0007FF8000
0001FF0000
0000000000
0000000000
0000000000
0000000000
0001FFF000
000FFFFE00
003FFFFF80
00FFFFFF00
01FF807F00
03FC000E00
07F0000000
0FE0000000
1FC0000000
1F80000000
3F00000000
3E00000000
7E00000000
7E00000000
7C00000000
7C00000000
7C00000000
FC00000000
FC00000000
FC000FFF80
FC000FFF80
FC000FFF80
FC000FFF80
7C000FFF80
7C00000F80
7C00000F80
7C00000F80
7E00000F80
3E00000F80
3F00000F80
3F00000F80
1F80000F80
1FC0000F80
0FE0000F80
07F0000F80
03FE001F80
01FFFFFF80
00FFFFFF80
003FFFFF80
000FFFFC00
0000380000
ENDCHAR
STARTCHAR 011F
ENCODING 287
SWIDTH 612 0
DWIDTH 34 0
BBX 26 54 3 -13
BITMAP
07001C00
07001C00
07803800
03FFF800
03FFF000
01FFE000
007FC000
00000000
00000000
00000000
00000000
00FF83C0
03FFE3C0
07FFF3C0
0FFFFBC0
1FC07FC0
3F001FC0
3E000FC0
7E000FC0
7C0007C0
7C0007C0
FC0007C0
F80007C0
F80003C0
F80003C0
F80003C0
F80003C0
F80003C0
F80003C0
F80003C0
F80007C0
7C0007C0
7C0007C0
7C0007C0
3E000FC0
3F001FC0
1F803FC0
1FF3FBC0
0FFFF3C0
07FFE3C0
01FFC3C0
000803C0
000003C0
000007C0
000007C0
000007C0
000007C0
00000FC0
30001F80
3E007F80
3FFFFF00
3FFFFE00
1FFFF800
07FFE000
ENDCHAR
STARTCHAR 0120
ENCODING 288
SWIDTH 720 0
DWIDTH 40 0
BBX 33 52 3 -1
BITMAP
0000380000
00007C0000
00007C0000
00007C0000
00007C0000
00007C0000
0000000000
0000000000
0000000000
0000000000
0000000000
0001FFF000
000FFFFE00
003FFFFF80
00FFFFFF00
01FF807F00
03FC000E00
07F0000000
0FE0000000
1FC0000000
1F80000000
3F00000000
3E00000000
7E00000000
7E00000000
7C00000000
7C00000000
7C00000000
FC00000000
FC00000000
FC000FFF80
FC000FFF80
FC000FFF80
FC000FFF80
7C000FFF80
7C00000F80
7C00000F80
7C00000F80
7E00000F80
3E00000F80
3F00000F80
3F00000F80
1F80000F80
1FC0000F80
0FE0000F80
07F0000F80
03FE001F80
01FFFFFF80
00FFFFFF80
003FFFFF80
000FFFFC00
0000380000
ENDCHAR
STARTCHAR 0121
ENCODING 289
SWIDTH 612 0
DWIDTH 34 0
BBX 26 54 3 -13
BITMAP
000E0000
001F0000
001F0000
001F0000
001F0000
001F0000
00000000
00000000
00000000
00000000
00000000
00FF83C0
03FFE3C0
07FFF3C0
0FFFFBC0
1FC07FC0
3F001FC0
3E000FC0
7E000FC0
7C0007C0
7C0007C0
FC0007C0
F80007C0
F80003C0
F80003C0
F80003C0
F80003C0
F80003C0
F80003C0
F80003C0
F80007C0
7C0007C0
7C0007C0
7C0007C0
3E000FC0
3F001FC0
1F803FC0
1FF3FBC0
0FFFF3C0
07FFE3C0
01FFC3C0
000803C0
000003C0
000007C0
000007C0
000007C0
000007C0
00000FC0
30001F80
3E007F80
3FFFFF00
3FFFFE00
1FFFF800
07FFE000
ENDCHAR
STARTCHAR 0122
ENCODING 290
SWIDTH 720 0
DWIDTH 40 0
BBX 33 52 3 -12
BITMAP
0001FFF000
000FFFFE00
003FFFFF80
00FFFFFF00
01FF807F00
03FC000E00
07F0000000
0FE0000000
1FC0000000
1F80000000
3F00000000
3E00000000
7E00000000
7E00000000
7C00000000
7C00000000
7C00000000
FC00000000
FC00000000
FC000FFF80
FC000FFF80
FC000FFF80
FC000FFF80
7C000FFF80
7C00000F80
7C00000F80
7C00000F80
7E00000F80
3E00000F80
3F00000F80
3F00000F80
1F80000F80
1FC0000F80
0FE0000F80
07F0000F80
03FE001F80
01FFFFFF80
00FFFFFF80
003FFFFF80
000FFFFC00
0000380000
0000000000
0000000000
00003E0000
00003E0000
00003C0000
00007C0000
0000780000
0000780000
0000700000
0000F00000
0000E00000
ENDCHAR
STARTCHAR 0123
ENCODING 291
SWIDTH 612 0
DWIDTH 34 0
BBX 26 56 3 -13
BITMAP
00038000
00038000
00078000
000F0000
000F0000
001F0000
001E0000
003E0000
003E0000
00000000
00000000
00000000
00000000
00FF83C0
03FFE3C0
07FFF3C0
0FFFFBC0
1FC07FC0
3F001FC0
3E000FC0
7E000FC0
7C0007C0
7C0007C0
FC0007C0
F80007C0
F80003C0
F80003C0
F80003C0
F80003C0
F80003C0
F80003C0
F80003C0
F80007C0
7C0007C0
7C0007C0
7C0007C0
3E000FC0
3F001FC0
1F803FC0
1FF3FBC0
0FFFF3C0
07FFE3C0
01FFC3C0
000803C0
000003C0
000007C0
000007C0
000007C0
000007C0
00000FC0
30001F80
3E007F80
3FFFFF00
3FFFFE00
1FFFF800
07FFE000
ENDCHAR
STARTCHAR 0124
ENCODING 292
SWIDTH 738 0
DWIDTH 41 0
BBX 31 52 5 0
BITMAP
000FE000
000FE000
001FF000
003EF800
007C7C00
00F83E00
01F01F00
01E00F80
00000000
00000000
00000000
00000000
F800003E
F800003E
F800003E
F800003E
F800003E
F800003E
F800003E
F800003E
F800003E
F800003E
F800003E
F800003E
F800003E
F800003E
F800003E
F800003E
F800003E
FFFFFFFE
FFFFFFFE
FFFFFFFE
FFFFFFFE
FFFFFFFE
F800003E
F800003E
F800003E
F800003E
F800003E
F800003E
F800003E
F800003E
F800003E
F800003E
F800003E
F800003E
F800003E
F800003E
F800003E
F800003E
F800003E
F800003E
ENDCHAR
STARTCHAR 0125
ENCODING 293
SWIDTH 612 0
DWIDTH 34 0
BBX 32 55 -2 0
BITMAP
03F00000
03F80000
07F80000
0FFC0000
1F3E0000
3E1F0000
7C0F8000
7807C000
F001E000
00000000
00000000
00000000
00000000
01F00000
01F00000
01F00000
01F00000
01F00000
01F00000
01F00000
01F00000
01F00000
01F00000
01F00000
01F00000
01F07FC0
01F3FFF0
01F7FFF8
01EFFFFC
01FF00FE
01FC007E
01FC003E
01F8003F
01F8001F
01F0001F
01F0001F
01F0001F
01F0001F
01F0001F
01F0001F
01F0001F
01F0001F
01F0001F
01F0001F
01F0001F
01F0001F
01F0001F
01F0001F
01F0001F
01F0001F
01F0001F
01F0001F
01F0001F
01F0001F
01F0001F
ENDCHAR
STARTCHAR 0126
ENCODING 294
SWIDTH 738 0
DWIDTH 41 0
BBX 41 40 0 0
BITMAP
07C00001F000
07C00001F000
07C00001F000
07C00001F000
07C00001F000
07C00001F000
07C00001F000
FFFFFFFFFF80
FFFFFFFFFF80
FFFFFFFFFF80
FFFFFFFFFF80
07C00001F000
07C00001F000
07C00001F000
07C00001F000
07C00001F000
07C00001F000
07FFFFFFF000
07FFFFFFF000
07FFFFFFF000
07FFFFFFF000
07FFFFFFF000
07C00001F000
07C00001F000
07C00001F000
07C00001F000
07C00001F000
07C00001F000
07C00001F000
07C00001F000
07C00001F000
07C00001F000
07C00001F000
07C00001F000
07C00001F000
07C00001F000
07C00001F000
07C00001F000
07C00001F000
07C00001F000
ENDCHAR
STARTCHAR 0127
ENCODING 295
SWIDTH 612 0
DWIDTH 34 0
BBX 30 42 0 0
BITMAP
07C00000
07C00000
07C00000
07C00000
07C00000
FFFFF800
FFFFF800
FFFFF800
07C00000
07C00000
07C00000
07C00000
07C00000
07C1FF00
07C7FFC0
07DFFFE0
07BFFFF0
07FC03F8
07F801F8
07F000F8
07E000FC
07E0007C
07C0007C
07C0007C
07C0007C
07C0007C
07C0007C
07C0007C
07C0007C
07C0007C
07C0007C
07C0007C
07C0007C
07C0007C
07C0007C
07C0007C
07C0007C
07C0007C
07C0007C
07C0007C
07C0007C
07C0007C
ENDCHAR
STARTCHAR 0128
ENCODING 296
SWIDTH 324 0
DWIDTH 18 0
BBX 21 51 -1 0
BITMAP
030038
1FC070
3FF070
7FFFF0
78FFE0
703FE0
E01FC0
000000
000000
000000
000000
1FFFC0
1FFFC0
1FFFC0
0FFF00
00F800
00F800
00F800
00F800
00F800
00F800
00F800
00F800
00F800
00F800
00F800
00F800
00F800
00F800
00F800
00F800
00F800
00F800
00F800
00F800
00F800
00F800
00F800
00F800
00F800
00F800
00F800
00F800
00F800
00F800
00F800
00F800
03FE00
1FFFC0
1FFFC0
1FFFC0
ENDCHAR
STARTCHAR 0129
ENCODING 297
SWIDTH 252 0
DWIDTH 14 0
BBX 20 41 -3 0
BITMAP
070070
1FC070
3FF070
7FFFF0
70FFE0
E07FC0
E01F80
000000
000000
000000
000000
00F800
00F800
00F800
00F800
00F800
00F800
00F800
00F800
00F800
00F800
00F800
00F800
00F800
00F800
00F800
00F800
00F800
00F800
00F800
00F800
00F800
00F800
00F800
00F800
00F800
00F800
00F800
00F800
00F800
00F800
ENDCHAR
STARTCHAR 012A
ENCODING 298
SWIDTH 324 0
DWIDTH 18 0
BBX 17 48 1 0
BITMAP
FFFF80
FFFF80
FFFF80
FFFF80
000000
000000
000000
000000
7FFF00
7FFF00
7FFF00
3FFC00
03E000
03E000
03E000
03E000
03E000
03E000
03E000
03E000
03E000
03E000
03E000
03E000
03E000
03E000
03E000
03E000
03E000
03E000
03E000
03E000
03E000
03E000
03E000
03E000
03E000
03E000
03E000
03E000
03E000
03E000
03E000
03E000
0FF800
7FFF00
7FFF00
7FFF00
ENDCHAR
STARTCHAR 012B
ENCODING 299
SWIDTH 252 0
DWIDTH 14 0
BBX 16 38 -1 0
BITMAP
FFFF
FFFF
FFFF
FFFF
0000
0000
0000
0000
03E0
03E0
03E0
03E0
03E0
03E0
03E0
03E0
03E0
03E0
03E0
03E0
03E0
03E0
03E0
03E0
03E0
03E0
03E0
03E0
03E0
03E0
03E0
03E0
03E0
03E0
03E0
03E0
03E0
03E0
ENDCHAR
STARTCHAR 012C
ENCODING 300
SWIDTH 324 0
DWIDTH 18 0
BBX 17 51 1 0
BITMAP
E00380
E00380
F00700
7FFF00
7FFE00
3FFC00
0FF800
000000
000000
000000
000000
7FFF00
7FFF00
7FFF00
3FFC00
03E000
03E000
03E000
03E000
03E000
03E000
03E000
03E000
03E000
03E000
03E000
03E000
03E000
03E000
03E000
03E000
03E000
03E000
03E000
03E000
03E000
03E000
03E000
03E000
03E000
03E000
03E000
03E000
03E000
03E000
03E000
03E000
0FF800
7FFF00
7FFF00
7FFF00
ENDCHAR
STARTCHAR 012D
ENCODING 301
SWIDTH 252 0
DWIDTH 14 0
BBX 17 41 -1 0
BITMAP
E00380
E00780
F00F00
FFFF00
7FFE00
3FFC00
0FF000
000000
000000
000000
000000
03E000
03E000
03E000
03E000
03E000
03E000
03E000
03E000
03E000
03E000
03E000
03E000
03E000
03E000
03E000
03E000
03E000
03E000
03E000
03E000
03E000
03E000
03E000
03E000
03E000
03E000
03E000
03E000
03E000
03E000
ENDCHAR
STARTCHAR 012E
ENCODING 302
SWIDTH 324 0
DWIDTH 18 0
BBX 15 52 2 -12
BITMAP
FFFE
FFFE
FFFE
7FF8
07C0
07C0
07C0
07C0
07C0
07C0
07C0
07C0
07C0
07C0
07C0
07C0
07C0
07C0
07C0
07C0
07C0
07C0
07C0
07C0
07C0
07C0
07C0
07C0
07C0
07C0
07C0
07C0
07C0
07C0
07C0
07C0
1FF0
FFFE
FFFE
FFFE
0078
00F0
01E0
03C0
03C0
0780
0780
0780
07C0
03FE
03FE
00FE
ENDCHAR
STARTCHAR 012F
ENCODING 303
SWIDTH 252 0
DWIDTH 14 0
BBX 10 53 1 -12
BITMAP
0700
0F80
1F80
1F80
0F80
0F00
0000
0000
0000
0000
0000
0F80
0F80
0F80
0F80
0F80
0F80
0F80
0F80
0F80
0F80
0F80
0F80
0F80
0F80
0F80
0F80
0F80
0F80
0F80
0F80
0F80
0F80
0F80
0F80
0F80
0F80
0F80
0F80
0F80
0F80
0F00
1E00
3C00
3800
7800
7800
F800
7800
7800
7FC0
3FC0
1FC0
ENDCHAR
STARTCHAR 0130
ENCODING 304
SWIDTH 324 0
DWIDTH 18 0
BBX 15 51 2 0
BITMAP
0380
07C0
07C0
07C0
07C0
07C0
0000
0000
0000
0000
0000
FFFE
FFFE
FFFE
7FF8
07C0
07C0
07C0
07C0
07C0
07C0
07C0
07C0
07C0
07C0
07C0
07C0
07C0
07C0
07C0
07C0
07C0
07C0
07C0
07C0
07C0
07C0
07C0
07C0
07C0
07C0
07C0
07C0
07C0
07C0
07C0
07C0
1FF0
FFFE
FFFE
FFFE
ENDCHAR
STARTCHAR 0131
ENCODING 305
SWIDTH 252 0
DWIDTH 14 0
BBX 5 30 5 0
BITMAP
F8
F8
F8
F8
F8
F8
F8
F8
F8
F8
F8
F8
F8
F8
F8
F8
F8
F8
F8
F8
F8
F8
F8
F8
F8
F8
F8
F8
F8
F8
ENDCHAR
STARTCHAR 0132
ENCODING 306
SWIDTH 612 0
DWIDTH 34 0
BBX 27 51 2 -11
BITMAP
FFFE03E0
FFFE03E0
FFFE03E0
7FF803E0
07C003E0
07C003E0
07C003E0
07C003E0
07C003E0
07C003E0
07C003E0
07C003E0
07C003E0
07C003E0
07C003E0
07C003E0
07C003E0
07C003E0
07C003E0
07C003E0
07C003E0
07C003E0
07C003E0
07C003E0
07C003E0
07C003E0
07C003E0
07C003E0
07C003E0
07C003E0
07C003E0
07C003E0
07C003E0
07C003E0
07C003E0
07C003E0
1FF003E0
FFFE03E0
FFFE03E0
FFFE03E0
000003E0
000003E0
000003E0
000007C0
000007C0
00001FC0
000FFF80
000FFF00
000FFE00
000FFC00
00008000
ENDCHAR
STARTCHAR 0133
ENCODING 307
SWIDTH 504 0
DWIDTH 28 0
BBX 20 54 4 -13
BITMAP
3800E0
7C01F0
FC01F0
FC01F0
7C01F0
7801F0
000000
000000
000000
000000
000000
7C01F0
7C01F0
7C01F0
7C01F0
7C01F0
7C01F0
7C01F0
7C01F0
7C01F0
7C01F0
7C01F0
7C01F0
7C01F0
7C01F0
7C01F0
7C01F0
7C01F0
7C01F0
7C01F0
7C01F0
7C01F0
7C01F0
7C01F0
7C01F0
7C01F0
7C01F0
7C01F0
7C01F0
7C01F0
7C01F0
0001F0
0001F0
0001F0
0001F0
0001F0
0001F0
0001F0
0003F0
0003E0
01FFE0
01FFC0
01FF80
01FF00
ENDCHAR
STARTCHAR 0134
ENCODING 308
SWIDTH 270 0
DWIDTH 15 0
BBX 21 63 -4 -11
BITMAP
00FE00
00FE00
01FF00
03EF80
07C7C0
0F83E0
1F01F0
1E00F8
000000
000000
000000
000000
007C00
007C00
007C00
007C00
007C00
007C00
007C00
007C00
007C00
007C00
007C00
007C00
007C00
007C00
007C00
007C00
007C00
007C00
007C00
007C00
007C00
007C00
007C00
007C00
007C00
007C00
007C00
007C00
007C00
007C00
007C00
007C00
007C00
007C00
007C00
007C00
007C00
007C00
007C00
007C00
007C00
007C00
007C00
00FC00
00F800
01F800
FFF000
FFF000
FFC000
FF8000
180000
ENDCHAR
STARTCHAR 0135
ENCODING 309
SWIDTH 252 0
DWIDTH 14 0
BBX 19 56 -3 -13
BITMAP
00F800
01F800
03FC00
07FE00
07FF00
0F9F80
1F0F80
3E03C0
7801E0
000000
000000
000000
000000
00F800
00F800
00F800
00F800
00F800
00F800
00F800
00F800
00F800
00F800
00F800
00F800
00F800
00F800
00F800
00F800
00F800
00F800
00F800
00F800
00F800
00F800
00F800
00F800
00F800
00F800
00F800
00F800
00F800
00F800
00F800
00F800
00F800
00F800
00F800
00F800
00F000
01F000
03F000
FFF000
FFE000
FFC000
FF8000
ENDCHAR
STARTCHAR 0136
ENCODING 310
SWIDTH 612 0
DWIDTH 34 0
BBX 29 52 5 -12
BITMAP
F80001F8
F80003F0
F80007E0
F8000FC0
F8001F80
F8003F00
F8007E00
F8007C00
F800F800
F801F000
F803F000
F807E000
F80FC000
F81F8000
F83F0000
F87E0000
F8FC0000
F9F80000
F9FC0000
FBFC0000
FFFE0000
FFBF0000
FF1F8000
FE1F8000
FC0FC000
F807E000
F807F000
F803F000
F801F800
F800FC00
F800FC00
F8007E00
F8003F00
F8001F80
F8001F80
F8000FC0
F80007E0
F80003F0
F80003F0
F80001F8
00000000
00000000
00000000
000F8000
000F8000
000F0000
001F0000
001E0000
001E0000
001C0000
003C0000
00380000
ENDCHAR
STARTCHAR 0137
ENCODING 311
SWIDTH 522 0
DWIDTH 29 0
BBX 24 54 5 -12
BITMAP
F80000
F80000
F80000
F80000
F80000
F80000
F80000
F80000
F80000
F80000
F80000
F80000
F8007E
F800FC
F801F8
F803F0
F803E0
F807C0
F80F80
F81F00
F83F00
F87E00
F8FC00
F9F800
F3F000
F7F000
F7F000
FFF800
FFFC00
FC7E00
F83E00
F83F00
F81F80
F80FC0
F807E0
F807E0
F803F0
F801F8
F800FC
F800FC
F8007E
F8003F
000000
000000
000000
007800
00F800
00F800
00F000
00F000
01E000
01E000
01C000
03C000
ENDCHAR
STARTCHAR 0138
ENCODING 312
SWIDTH 522 0
DWIDTH 29 0
BBX 24 30 5 0
BITMAP
F8007E
F800FC
F801F8
F801F0
F803F0
F807E0
F80FC0
F81F80
F83F00
F87E00
F87C00
F8FC00
F9F800
FBF000
FFF800
FFFC00
FFFC00
FE7E00
FC3F00
F81F00
F81F80
F80FC0
F807E0
F803E0
F803F0
F801F8
F800FC
F8007C
F8007E
F8003F
ENDCHAR
STARTCHAR 0139
ENCODING 313
SWIDTH 522 0
DWIDTH 29 0
BBX 23 52 5 0
BITMAP
07E000
0FC000
1F8000
1F0000
3E0000
7C0000
780000
F00000
000000
000000
000000
000000
F80000
F80000
F80000
F80000
F80000
F80000
F80000
F80000
F80000
F80000
F80000
F80000
F80000
F80000
F80000
F80000
F80000
F80000
F80000
F80000
F80000
F80000
F80000
F80000
F80000
F80000
F80000
F80000
F80000
F80000
F80000
F80000
F80000
F80000
F80000
F80000
FFFFFE
FFFFFE
FFFFFE
FFFFFE
ENDCHAR
STARTCHAR 013A
ENCODING 314
SWIDTH 252 0
DWIDTH 14 0
BBX 11 55 4 0
BITMAP
07E0
07E0
0FC0
1F80
1F00
3E00
7C00
7800
F000
0000
0000
0000
0000
7C00
7C00
7C00
7C00
7C00
7C00
7C00
7C00
7C00
7C00
7C00
7C00
7C00
7C00
7C00
7C00
7C00
7C00
7C00
7C00
7C00
7C00
7C00
7C00
7C00
7C00
7C00
7C00
7C00
7C00
7C00
7C00
7C00
7C00
7C00
7C00
7C00
7C00
7C00
7C00
7C00
7C00
ENDCHAR
STARTCHAR 013B
ENCODING 315
SWIDTH 522 0
DWIDTH 29 0
BBX 23 52 5 -12
BITMAP
F80000
F80000
F80000
F80000
F80000
F80000
F80000
F80000
F80000
F80000
F80000
F80000
F80000
F80000
F80000
F80000
F80000
F80000
F80000
F80000
F80000
F80000
F80000
F80000
F80000
F80000
F80000
F80000
F80000
F80000
F80000
F80000
F80000
F80000
F80000
F80000
FFFFFE
FFFFFE
FFFFFE
FFFFFE
000000
000000
000000
003E00
003E00
003E00
003C00
003C00
007800
007800
007000
00E000
ENDCHAR
STARTCHAR 013C
ENCODING 316
SWIDTH 252 0
DWIDTH 14 0
BBX 7 54 4 -12
BITMAP
7C
7C
7C
7C
7C
7C
7C
7C
7C
7C
7C
7C
7C
7C
7C
7C
7C
7C
7C
7C
7C
7C
7C
7C
7C
7C
7C
7C
7C
7C
7C
7C
7C
7C
7C
7C
7C
7C
7C
7C
7C
7C
00
00
00
3E
3E
3C
7C
78
78
F0
F0
E0
ENDCHAR
STARTCHAR 013D
ENCODING 317
SWIDTH 522 0
DWIDTH 29 0
BBX 23 40 5 0
BITMAP
F8003E
F8003E
F8003C
F8007C
F80078
F80078
F80070
F800F0
F800E0
F80000
F80000
F80000
F80000
F80000
F80000
F80000
F80000
F80000
F80000
F80000
F80000
F80000
F80000
F80000
F80000
F80000
F80000
F80000
F80000
F80000
F80000
F80000
F80000
F80000
F80000
F80000
FFFFFE
FFFFFE
FFFFFE
FFFFFE
ENDCHAR
STARTCHAR 013E
ENCODING 318
SWIDTH 252 0
DWIDTH 14 0
BBX 14 42 5 0
BITMAP
F87C
F878
F8F8
F8F8
F8F0
F8F0
F8E0
F9C0
F9C0
F800
F800
F800
F800
F800
F800
F800
F800
F800
F800
F800
F800
F800
F800
F800
F800
F800
F800
F800
F800
F800
F800
F800
F800
F800
F800
F800
F800
F800
F800
F800
F800
F800
ENDCHAR
STARTCHAR 013F
ENCODING 319
SWIDTH 522 0
DWIDTH 29 0
BBX 23 40 5 0
BITMAP
F80000
F80000
F80000
F80000
F80000
F80000
F80000
F80000
F80000
F80000
F80000
F80000
F80000
F80000
F80000
F80000
F80000
F801C0
F803E0
F807E0
F807E0
F803E0
F803C0
F80000
F80000
F80000
F80000
F80000
F80000
F80000
F80000
F80000
F80000
F80000
F80000
F80000
FFFFFE
FFFFFE
FFFFFE
FFFFFE
ENDCHAR
STARTCHAR 0140
ENCODING 320
SWIDTH 252 0
DWIDTH 14 0
BBX 12 42 5 0
BITMAP
F800
F800
F800
F800
F800
F800
F800
F800
F800
F800
F800
F800
F800
F800
F800
F800
F800
F800
F8E0
F9F0
F9F0
F9F0
F9F0
F8E0
F800
F800
F800
F800
F800
F800
F800
F800
F800
F800
F800
F800
F800
F800
F800
F800
F800
F800
ENDCHAR
STARTCHAR 0141
ENCODING 321
SWIDTH 522 0
DWIDTH 29 0
BBX 27 40 1 0
BITMAP
0F800000
0F800000
0F800000
0F800000
0F800000
0F800000
0F800000
0F800000
0F800000
0F800000
0F800000
0F800000
0F800000
0F800000
0F800000
0F81C000
0F87C000
0F8FE000
0FBFC000
0FFF0000
0FFC0000
0FF80000
1FE00000
7F800000
FF800000
FF800000
7F800000
4F800000
0F800000
0F800000
0F800000
0F800000
0F800000
0F800000
0F800000
0F800000
0FFFFFE0
0FFFFFE0
0FFFFFE0
0FFFFFE0
ENDCHAR
STARTCHAR 0142
ENCODING 322
SWIDTH 252 0
DWIDTH 14 0
BBX 14 42 0 0
BITMAP
0F80
0F80
0F80
0F80
0F80
0F80
0F80
0F80
0F80
0F80
0F80
0F80
0F80
0F80
0F80
0F80
0F88
0F9C
0FFC
0FFC
0FF8
0FE0
1FC0
7F80
FF80
FF80
7F80
4F80
0F80
0F80
0F80
0F80
0F80
0F80
0F80
0F80
0F80
0F80
0F80
0F80
0F80
0F80
ENDCHAR
STARTCHAR 0143
ENCODING 323
SWIDTH 756 0
DWIDTH 42 0
BBX 32 52 5 0
BITMAP
00003F00
00007E00
00007C00
0000FC00
0001F800
0001F000
0003E000
0007C000
00000000
00000000
00000000
00000000
FC00001F
FE00001F
FF00001F
FF00001F
FF80001F
FFC0001F
FFC0001F
FFE0001F
FBE0001F
FBF0001F
F9F8001F
F8F8001F
F8FC001F
F87E001F
F83E001F
F83F001F
F81F801F
F80F801F
F80FC01F
F807E01F
F807E01F
F803F01F
F801F01F
F801F81F
F800FC1F
F8007C1F
F8007E1F
F8003F1F
F8001F1F
F8001F9F
F8000FDF
F80007DF
F80007EF
F80003FF
F80003FF
F80001FF
F80000FF
F80000FF
F800007F
F800003F
ENDCHAR
STARTCHAR 0144
ENCODING 324
SWIDTH 612 0
DWIDTH 34 0
BBX 25 43 5 0
BITMAP
0003F000
0003F000
0007E000
0007C000
000FC000
001F8000
001F0000
003E0000
007C0000
00000000
00000000
00000000
00000000
F07FE000
F1FFF800
F3FFFC00
F7FFFE00
FF807F00
FE003F00
FE001F00
FC001F80
FC000F80
F8000F80
F8000F80
F8000F80
F8000F80
F8000F80
F8000F80
F8000F80
F8000F80
F8000F80
F8000F80
F8000F80
F8000F80
F8000F80
F8000F80
F8000F80
F8000F80
F8000F80
F8000F80
F8000F80
F8000F80
F8000F80
ENDCHAR
STARTCHAR 0145
ENCODING 325
SWIDTH 756 0
DWIDTH 42 0
BBX 32 52 5 -12
BITMAP
FC00001F
FE00001F
FF00001F
FF00001F
FF80001F
FFC0001F
FFC0001F
FFE0001F
FBE0001F
FBF0001F
F9F8001F
F8F8001F
F8FC001F
F87E001F
F83E001F
F83F001F
F81F801F
F80F801F
F80FC01F
F807E01F
F807E01F
F803F01F
F801F01F
F801F81F
F800FC1F
F8007C1F
F8007E1F
F8003F1F
F8001F1F
F8001F9F
F8000FDF
F80007DF
F80007EF
F80003FF
F80003FF
F80001FF
F80000FF
F80000FF
F800007F
F800003F
00000000
00000000
00000000
0001F000
0001F000
0003E000
0003E000
0003C000
0003C000
00078000
00078000
00070000
ENDCHAR
STARTCHAR 0146
ENCODING 326
SWIDTH 612 0
DWIDTH 34 0
BBX 25 42 5 -12
BITMAP
F07FE000
F1FFF800
F3FFFC00
F7FFFE00
FF807F00
FE003F00
FE001F00
FC001F80
FC000F80
F8000F80
F8000F80
F8000F80
F8000F80
F8000F80
F8000F80
F8000F80
F8000F80
F8000F80
F8000F80
F8000F80
F8000F80
F8000F80
F8000F80
F8000F80
F8000F80
F8000F80
F8000F80
F8000F80
F8000F80
F8000F80
00000000
00000000
00000000
001F0000
001F0000
001E0000
003E0000
003C0000
003C0000
00780000
00780000
00700000
ENDCHAR
STARTCHAR 0147
ENCODING 327
SWIDTH 756 0
DWIDTH 42 0
BBX 32 52 5 0
BITMAP
01E00780
00F81F00
007C3E00
003E7C00
001FF800
001FF800
000FF000
0007E000
00000000
00000000
00000000
00000000
FC00001F
FE00001F
FF00001F
FF00001F
FF80001F
FFC0001F
FFC0001F
FFE0001F
FBE0001F
FBF0001F
F9F8001F
F8F8001F
F8FC001F
F87E001F
F83E001F
F83F001F
F81F801F
F80F801F
F80FC01F
F807E01F
F807E01F
F803F01F
F801F01F
F801F81F
F800FC1F
F8007C1F
F8007E1F
F8003F1F
F8001F1F
F8001F9F
F8000FDF
F80007DF
F80007EF
F80003FF
F80003FF
F80001FF
F80000FF
F80000FF
F800007F
F800003F
ENDCHAR
STARTCHAR 0148
ENCODING 328
SWIDTH 612 0
DWIDTH 34 0
BBX 25 43 5 0
BITMAP
1C003C00
1F007800
0F81F000
07C3E000
03E7C000
01FFC000
00FF8000
00FF0000
007E0000
00000000
00000000
00000000
00000000
F07FE000
F1FFF800
F3FFFC00
F7FFFE00
FF807F00
FE003F00
FE001F00
FC001F80
FC000F80
F8000F80
F8000F80
F8000F80
F8000F80
F8000F80
F8000F80
F8000F80
F8000F80
F8000F80
F8000F80
F8000F80
F8000F80
F8000F80
F8000F80
F8000F80
F8000F80
F8000F80
F8000F80
F8000F80
F8000F80
F8000F80
ENDCHAR
STARTCHAR 0149
ENCODING 329
SWIDTH 684 0
DWIDTH 38 0
BBX 34 40 0 0
BITMAP
1F00000000
1F00000000
3F00000000
3F00000000
3E00000000
3E00000000
3E00000000
3C00000000
7C00000000
7C00000000
78783FF000
7878FFFC00
F079FFFE00
F07BFFFF00
007FC03F80
007F001F80
007E000F80
007E000F80
007C0007C0
007C0007C0
007C0007C0
007C0007C0
007C0007C0
007C0007C0
007C0007C0
007C0007C0
007C0007C0
007C0007C0
007C0007C0
007C0007C0
007C0007C0
007C0007C0
007C0007C0
007C0007C0
007C0007C0
007C0007C0
007C0007C0
007C0007C0
007C0007C0
007C0007C0
ENDCHAR
STARTCHAR 014A
ENCODING 330
SWIDTH 756 0
DWIDTH 42 0
BBX 32 51 5 -11
BITMAP
FC00001F
FE00001F
FF00001F
FF00001F
FF80001F
FFC0001F
FFC0001F
FFE0001F
FBF0001F
FBF0001F
F9F8001F
F8FC001F
F8FC001F
F87E001F
F83F001F
F81F001F
F81F801F
F80FC01F
F807C01F
F807E01F
F803F01F
F801F01F
F801F81F
F800FC1F
F8007C1F
F8007E1F
F8003F1F
F8001F1F
F8001F9F
F8000FDF
F80007DF
F80007FF
F80003FF
F80001FF
F80001FF
F80000FF
F800007F
F800007F
F800003F
F800001F
0000001F
0000001F
0000001F
0000003E
0000003E
000000FE
00007FFC
00007FF8
00007FF0
00007FE0
00000400
ENDCHAR
STARTCHAR 014B
ENCODING 331
SWIDTH 612 0
DWIDTH 34 0
BBX 25 43 5 -13
BITMAP
F07FE000
F1FFF800
F3FFFC00
F7FFFE00
FF807F00
FE003F00
FE001F00
FC001F80
F8000F80
F8000F80
F8000F80
F8000F80
F8000F80
F8000F80
F8000F80
F8000F80
F8000F80
F8000F80
F8000F80
F8000F80
F8000F80
F8000F80
F8000F80
F8000F80
F8000F80
F8000F80
F8000F80
F8000F80
F8000F80
F8000F80
00000F80
00000F80
00000F80
00000F80
00000F80
00000F80
00000F80
00001F80
00001F00
0007FF00
0007FE00
0007FC00
0007F800
ENDCHAR
STARTCHAR 014C
ENCODING 332
SWIDTH 774 0
DWIDTH 43 0
BBX 37 49 3 -1
BITMAP
003FFFE000
003FFFE000
003FFFE000
003FFFE000
0000000000
0000000000
0000000000
0000000000
0007FF8000
003FFFE000
00FFFFF800
01FFFFFE00
03FE03FF00
07F0007F80
0FE0001F80
1FC0000FC0
1F800007E0
3F000007E0
3F000003E0
3E000003F0
7E000001F0
7C000001F0
7C000001F0
7C000001F8
7C000000F8
FC000000F8
FC000000F8
FC000000F8
FC000000F8
FC000000F8
FC000000F8
7C000000F8
7C000001F8
7C000001F8
7C000001F0
7E000001F0
3E000003F0
3E000003E0
3F000007E0
1F800007E0
1F80000FC0
0FC0001F80
07F0003F80
07FC00FF00
03FFFFFE00
00FFFFFC00
007FFFF000
000FFFC000
0000300000
ENDCHAR
STARTCHAR 014D
ENCODING 333
SWIDTH 594 0
DWIDTH 33 0
BBX 28 39 3 -1
BITMAP
03FFFC00
03FFFC00
03FFFC00
03FFFC00
00000000
00000000
00000000
00000000
007FE000
03FFF800
07FFFE00
0FFFFF00
1FC03F00
3F001F80
3E000FC0
7E0007C0
7C0007E0
7C0003E0
FC0003E0
F80003E0
F80003E0
F80003F0
F80001F0
F80001F0
F80003F0
F80003E0
F80003E0
FC0003E0
7C0003E0
7C0007E0
7E0007C0
3E000FC0
3F000F80
1F803F80
0FFFFF00
07FFFE00
03FFF800
00FFF000
00040000
ENDCHAR
STARTCHAR 014E
ENCODING 334
SWIDTH 774 0
DWIDTH 43 0
BBX 37 52 3 -1
BITMAP
003800E000
003800E000
001C01E000
001FFFC000
000FFFC000
000FFF8000
0003FE0000
0000000000
0000000000
0000000000
0000000000
0007FF8000
003FFFE000
00FFFFF800
01FFFFFE00
03FE03FF00
07F0007F80
0FE0001F80
1FC0000FC0
1F800007E0
3F000007E0
3F000003E0
3E000003F0
7E000001F0
7C000001F0
7C000001F0
7C000001F8
7C000000F8
FC000000F8
FC000000F8
FC000000F8
FC000000F8
FC000000F8
FC000000F8
7C000000F8
7C000001F8
7C000001F8
7C000001F0
7E000001F0
3E000003F0
3E000003E0
3F000007E0
1F800007E0
1F80000FC0
0FC0001F80
07F0003F80
07FC00FF00
03FFFFFE00
00FFFFFC00
007FFFF000
000FFFC000
0000300000
ENDCHAR
STARTCHAR 014F
ENCODING 335
SWIDTH 594 0
DWIDTH 33 0
BBX 28 42 3 -1
BITMAP
07001C00
07801C00
03803C00
03FFF800
01FFF800
00FFF000
007FC000
00000000
00000000
00000000
00000000
007FE000
03FFF800
07FFFE00
0FFFFF00
1FC03F00
3F001F80
3E000FC0
7E0007C0
7C0007E0
7C0003E0
FC0003E0
F80003E0
F80003E0
F80003F0
F80001F0
F80001F0
F80003F0
F80003E0
F80003E0
FC0003E0
7C0003E0
7C0007E0
7E0007C0
3E000FC0
3F000F80
1F803F80
0FFFFF00
07FFFE00
03FFF800
00FFF000
00040000
ENDCHAR
STARTCHAR 0150
ENCODING 336
SWIDTH 774 0
DWIDTH 43 0
BBX 37 53 3 -1
BITMAP
0007E1F000
0007C3F000
000F83E000
001F07C000
001F078000
003E0F0000
003C1E0000
00781C0000
0000000000
0000000000
0000000000
0000000000
0007FF8000
003FFFE000
00FFFFF800
01FFFFFE00
03FE03FF00
07F0007F80
0FE0001F80
1FC0000FC0
1F800007E0
3F000007E0
3F000003E0
3E000003F0
7E000001F0
7C000001F0
7C000001F0
7C000001F8
7C000000F8
FC000000F8
FC000000F8
FC000000F8
FC000000F8
FC000000F8
FC000000F8
7C000000F8
7C000001F8
7C000001F8
7C000001F0
7E000001F0
3E000003F0
3E000003E0
3F000007E0
1F800007E0
1F80000FC0
0FC0001F80
07F0003F80
07FC00FF00
03FFFFFE00
00FFFFFC00
007FFFF000
000FFFC000
0000300000
ENDCHAR
STARTCHAR 0151
ENCODING 337
SWIDTH 594 0
DWIDTH 33 0
BBX 28 44 3 -1
BITMAP
007C3F00
00FC3E00
00F87E00
01F07C00
03E0F800
03E0F000
07C1E000
0783C000
0F038000
00000000
00000000
00000000
00000000
007FE000
03FFF800
07FFFE00
0FFFFF00
1FC03F00
3F001F80
3E000FC0
7E0007C0
7C0007E0
7C0003E0
FC0003E0
F80003E0
F80003E0
F80003F0
F80001F0
F80001F0
F80003F0
F80003E0
F80003E0
FC0003E0
7C0003E0
7C0007E0
7E0007C0
3E000FC0
3F000F80
1F803F80
0FFFFF00
07FFFE00
03FFF800
00FFF000
00040000
ENDCHAR
STARTCHAR 0152
ENCODING 338
SWIDTH 918 0
DWIDTH 51 0
BBX 45 41 3 -1
BITMAP
000FFFFFFFF8
003FFFFFFFF8
00FFFFFFFFF8
01FFFFFFFFF8
03FE01FFFFF8
07F000F80000
0FE000F80000
1FC000F80000
1F8000F80000
3F0000F80000
3F0000F80000
3E0000F80000
7E0000F80000
7C0000F80000
7C0000F80000
7C0000F80000
7C0000F80000
FC0000FFFFF0
FC0000FFFFF0
FC0000FFFFF0
FC0000FFFFF0
FC0000F80000
FC0000F80000
7C0000F80000
7C0000F80000
7C0000F80000
7C0000F80000
7E0000F80000
3E0000F80000
3E0000F80000
3F0000F80000
1F8000F80000
1F8000F80000
0FC000F80000
07F000F80000
07FC00F80000
03FFFFFFFFF8
00FFFFFFFFF8
007FFFFFFFF8
000FFFFFFFF8
000030000000
ENDCHAR
STARTCHAR 0153
ENCODING 339
SWIDTH 936 0
DWIDTH 52 0
BBX 47 31 3 -1
BITMAP
007FC003FE00
03FFF00FFF80
07FFFC1FFFE0
0FFFFE3FFFF0
1FC07E7E03F0
3F001F7C01F8
3E000FF800F8
7E000FF0007C
7C0007F0007C
7C0007E0007C
FC0007E0007C
F80003E0007E
F80003FFFFFE
F80003FFFFFE
F80003FFFFFE
F80003FFFFFE
F80003E00000
F80003E00000
F80003E00000
F80007E00000
7C0007E00000
7C0007F00000
7C000FF00000
3E000FF80000
3F001F7C0000
1F803F7F0038
0FFFFE3FFFF8
07FFFC1FFFF8
03FFF80FFFF8
00FFE003FFE0
000400001800
ENDCHAR
STARTCHAR 0154
ENCODING 340
SWIDTH 612 0
DWIDTH 34 0
BBX 28 52 5 0
BITMAP
0003F000
0003E000
0007E000
000FC000
000F8000
001F0000
003E0000
003C0000
00000000
00000000
00000000
00000000
FFFE0000
FFFFE000
FFFFF800
FFFFFE00
FFFFFF00
F8007F00
F8001F80
F8001F80
F8000F80
F8000FC0
F80007C0
F80007C0
F80007C0
F8000FC0
F8000FC0
F8000F80
F8001F80
F8003F00
F8007F00
FFFFFE00
FFFFF800
FFFFF000
FFFFC000
FFFFE000
F803E000
F803F000
F801F000
F800F800
F800FC00
F8007C00
F8007E00
F8003F00
F8003F00
F8001F80
F8000F80
F8000FC0
F80007E0
F80007E0
F80003F0
F80001F0
ENDCHAR
STARTCHAR 0155
ENCODING 341
SWIDTH 396 0
DWIDTH 22 0
BBX 17 43 5 0
BITMAP
001F80
003F00
003E00
007E00
00FC00
00F800
01F000
03E000
03C000
000000
000000
000000
000000
F03F80
F0FF80
F1FF80
F3FF80
F7E080
F78000
FF0000
FE0000
FC0000
FC0000
F80000
F80000
F80000
F80000
F80000
F80000
F80000
F80000
F80000
F80000
F80000
F80000
F80000
F80000
F80000
F80000
F80000
F80000
F80000
F80000
ENDCHAR
STARTCHAR 0156
ENCODING 342
SWIDTH 612 0
DWIDTH 34 0
BBX 28 52 5 -12
BITMAP
FFFE0000
FFFFE000
FFFFF800
FFFFFE00
FFFFFF00
F8007F00
F8001F80
F8001F80
F8000F80
F8000FC0
F80007C0
F80007C0
F80007C0
F8000FC0
F8000FC0
F8000F80
F8001F80
F8003F00
F8007F00
FFFFFE00
FFFFF800
FFFFF000
FFFFC000
FFFFE000
F803E000
F803F000
F801F000
F800F800
F800FC00
F8007C00
F8007E00
F8003F00
F8003F00
F8001F80
F8000F80
F8000FC0
F80007E0
F80007E0
F80003F0
F80001F0
00000000
00000000
00000000
000F8000
000F8000
000F0000
001F0000
001E0000
001E0000
003C0000
003C0000
00380000
ENDCHAR
STARTCHAR 0157
ENCODING 343
SWIDTH 396 0
DWIDTH 22 0
BBX 19 42 3 -12
BITMAP
3C0FE0
3C3FE0
3C7FE0
3CFFE0
3DF820
3DE000
3FC000
3F8000
3F0000
3F0000
3E0000
3E0000
3E0000
3E0000
3E0000
3E0000
3E0000
3E0000
3E0000
3E0000
3E0000
3E0000
3E0000
3E0000
3E0000
3E0000
3E0000
3E0000
3E0000
3E0000
000000
000000
000000
1F0000
1E0000
3E0000
3E0000
3C0000
3C0000
780000
700000
F00000
ENDCHAR
STARTCHAR 0158
ENCODING 344
SWIDTH 612 0
DWIDTH 34 0
BBX 28 52 5 0
BITMAP
1F007800
0F80F000
07C3F000
03E7E000
01FFC000
00FF8000
00FF0000
007E0000
00000000
00000000
00000000
00000000
FFFE0000
FFFFE000
FFFFF800
FFFFFE00
FFFFFF00
F8007F00
F8001F80
F8001F80
F8000F80
F8000FC0
F80007C0
F80007C0
F80007C0
F8000FC0
F8000FC0
F8000F80
F8001F80
F8003F00
F8007F00
FFFFFE00
FFFFF800
FFFFF000
FFFFC000
FFFFE000
F803E000
F803F000
F801F000
F800F800
F800FC00
F8007C00
F8007E00
F8003F00
F8003F00
F8001F80
F8000F80
F8000FC0
F80007E0
F80007E0
F80003F0
F80001F0
ENDCHAR
STARTCHAR 0159
ENCODING 345
SWIDTH 396 0
DWIDTH 22 0
BBX 19 43 4 0
BITMAP
E001E0
F803C0
7C0780
3E1F00
1F3F00
0FFE00
07FC00
03F800
03F000
000000
000000
000000
000000
781FC0
787FC0
78FFC0
79FFC0
7BF040
7BC000
7F8000
7F0000
7E0000
7E0000
7C0000
7C0000
7C0000
7C0000
7C0000
7C0000
7C0000
7C0000
7C0000
7C0000
7C0000
7C0000
7C0000
7C0000
7C0000
7C0000
7C0000
7C0000
7C0000
7C0000
ENDCHAR
STARTCHAR 015A
ENCODING 346
SWIDTH 540 0
DWIDTH 30 0
BBX 25 53 3 -1
BITMAP
0001F800
0003F000
0007E000
0007C000
000F8000
000F0000
001E0000
003C0000
00000000
00000000
00000000
00000000
00FFE000
07FFFE00
0FFFFF00
1FFFFE00
3FC0FE00
7F000E00
7E000000
7C000000
FC000000
F8000000
F8000000
FC000000
7C000000
7C000000
7E000000
3F800000
3FE00000
1FF80000
0FFF0000
03FFC000
00FFF000
003FF800
0007FC00
0001FE00
00007F00
00003F00
00001F80
00001F80
00000F80
00000F80
00000F80
00000F80
00001F00
00001F00
80003F00
F800FE00
FFFFFC00
FFFFF800
FFFFF000
3FFFC000
00700000
ENDCHAR
STARTCHAR 015B
ENCODING 347
SWIDTH 468 0
DWIDTH 26 0
BBX 21 44 3 -1
BITMAP
0007E0
000FC0
000F80
001F80
003F00
003E00
007C00
00F800
00F000
000000
000000
000000
000000
07FF80
1FFFF0
3FFFF0
7FFFF0
FC00E0
F80000
F80000
F80000
F80000
F80000
FE0000
7F8000
3FE000
1FFC00
07FF00
01FFC0
007FE0
000FF0
0003F0
0001F8
0000F8
0000F8
0000F8
0000F8
8000F8
E001F0
FF3FF0
FFFFE0
FFFFC0
3FFF00
00C000
ENDCHAR
STARTCHAR 015C
ENCODING 348
SWIDTH 540 0
DWIDTH 30 0
BBX 25 53 3 -1
BITMAP
003F0000
007F8000
00FF8000
01FFC000
03F3E000
03E1F000
0780F800
0F007C00
00000000
00000000
00000000
00000000
00FFE000
07FFFE00
0FFFFF00
1FFFFE00
3FC0FE00
7F000E00
7E000000
7C000000
FC000000
F8000000
F8000000
FC000000
7C000000
7C000000
7E000000
3F800000
3FE00000
1FF80000
0FFF0000
03FFC000
00FFF000
003FF800
0007FC00
0001FE00
00007F00
00003F00
00001F80
00001F80
00000F80
00000F80
00000F80
00000F80
00001F00
00001F00
80003F00
F800FE00
FFFFFC00
FFFFF800
FFFFF000
3FFFC000
00700000
ENDCHAR
STARTCHAR 015D
ENCODING 349
SWIDTH 468 0
DWIDTH 26 0
BBX 21 44 3 -1
BITMAP
00F800
01F800
03FC00
03FE00
07FF00
0F9F80
1F07C0
3E03E0
7801F0
000000
000000
000000
000000
07FF80
1FFFF0
3FFFF0
7FFFF0
FC00E0
F80000
F80000
F80000
F80000
F80000
FE0000
7F8000
3FE000
1FFC00
07FF00
01FFC0
007FE0
000FF0
0003F0
0001F8
0000F8
0000F8
0000F8
0000F8
8000F8
E001F0
FF3FF0
FFFFE0
FFFFC0
3FFF00
00C000
ENDCHAR
STARTCHAR 015E
ENCODING 350
SWIDTH 540 0
DWIDTH 30 0
BBX 25 53 3 -13
BITMAP
00FFE000
07FFFE00
0FFFFF00
1FFFFE00
3FC0FE00
7F000E00
7E000000
7C000000
FC000000
F8000000
F8000000
FC000000
7C000000
7C000000
7E000000
3F800000
3FE00000
1FF80000
0FFF0000
03FFC000
00FFF000
003FF800
0007FC00
0001FE00
00007F00
00003F00
00001F80
00001F80
00000F80
00000F80
00000F80
00000F80
00001F00
00001F00
80003F00
F800FE00
FFFFFC00
FFFFF800
FFFFF000
3FFFC000
00780000
00780000
00700000
00FC0000
00FE0000
001F0000
000F8000
00078000
00078000
000F8000
03FF0000
03FE0000
03FC0000
ENDCHAR
STARTCHAR 015F
ENCODING 351
SWIDTH 468 0
DWIDTH 26 0
BBX 21 43 3 -13
BITMAP
07FF80
1FFFF0
3FFFF0
7FFFF0
FC00E0
F80000
F80000
F80000
F80000
F80000
FE0000
7F8000
3FE000
1FFC00
07FF00
01FFC0
007FE0
000FF0
0003F0
0001F8
0000F8
0000F8
0000F8
0000F8
8000F8
E001F0
FF3FF0
FFFFE0
FFFFC0
3FFF00
00F000
00F000
00E000
01F800
01FC00
003E00
001F00
000F00
000F00
001F00
07FE00
07FC00
07F800
ENDCHAR
STARTCHAR 0160
ENCODING 352
SWIDTH 540 0
DWIDTH 30 0
BBX 25 53 3 -1
BITMAP
0F007C00
0780F800
07E1F000
03F3E000
01FFC000
00FF8000
007F8000
003F0000
00000000
00000000
00000000
00000000
00FFE000
07FFFE00
0FFFFF00
1FFFFE00
3FC0FE00
7F000E00
7E000000
7C000000
FC000000
F8000000
F8000000
FC000000
7C000000
7C000000
7E000000
3F800000
3FE00000
1FF80000
0FFF0000
03FFC000
00FFF000
003FF800
0007FC00
0001FE00
00007F00
00003F00
00001F80
00001F80
00000F80
00000F80
00000F80
00000F80
00001F00
00001F00
80003F00
F800FE00
FFFFFC00
FFFFF800
FFFFF000
3FFFC000
00700000
ENDCHAR
STARTCHAR 0161
ENCODING 353
SWIDTH 468 0
DWIDTH 26 0
BBX 21 44 3 -1
BITMAP
7000F0
7C01E0
3E03C0
1F0F80
0F9F80
07FF00
03FE00
01FC00
01F800
000000
000000
000000
000000
07FF80
1FFFF0
3FFFF0
7FFFF0
FC00E0
F80000
F80000
F80000
F80000
F80000
FE0000
7F8000
3FE000
1FFC00
07FF00
01FFC0
007FE0
000FF0
0003F0
0001F8
0000F8
0000F8
0000F8
0000F8
8000F8
E001F0
FF3FF0
FFFFE0
FFFFC0
3FFF00
00C000
ENDCHAR
STARTCHAR 0162
ENCODING 354
SWIDTH 540 0
DWIDTH 30 0
BBX 29 53 1 -13
BITMAP
FFFFFFF8
FFFFFFF8
FFFFFFF8
FFFFFFF8
FFFFFFF8
000F8000
000F8000
000F8000
000F8000
000F8000
000F8000
000F8000
000F8000
000F8000
000F8000
000F8000
000F8000
000F8000
000F8000
000F8000
000F8000
000F8000
000F8000
000F8000
000F8000
000F8000
000F8000
000F8000
000F8000
000F8000
000F8000
000F8000
000F8000
000F8000
000F8000
000F8000
000F8000
000F8000
000F8000
000F8000
00070000
00070000
000E0000
000F8000
001FE000
0003F000
0000F000
0000F000
0000F000
0001F000
007FE000
007FC000
007F8000
ENDCHAR
STARTCHAR 0163
ENCODING 355
SWIDTH 360 0
DWIDTH 20 0
BBX 18 50 1 -13
BITMAP
038000
038000
078000
078000
078000
078000
0F8000
3FFFC0
FFFFC0
FFFFC0
FFFFC0
0F8000
0F8000
0F8000
0F8000
0F8000
0F8000
0F8000
0F8000
0F8000
0F8000
0F8000
0F8000
0F8000
0F8000
0F8000
0F8000
0F8000
0F8000
0F8000
0F8000
0FC000
07E000
07FBC0
03FFC0
01FFC0
00FFC0
003C00
007000
007000
00F800
00FE00
003F00
000F00
000700
000F00
000F00
07FF00
07FE00
07F800
ENDCHAR
STARTCHAR 0164
ENCODING 356
SWIDTH 540 0
DWIDTH 30 0
BBX 29 52 1 0
BITMAP
07C01F00
03E03E00
01F07C00
00F8F800
007FF000
003FE000
001FC000
001F8000
00000000
00000000
00000000
00000000
FFFFFFF8
FFFFFFF8
FFFFFFF8
FFFFFFF8
FFFFFFF8
000F8000
000F8000
000F8000
000F8000
000F8000
000F8000
000F8000
000F8000
000F8000
000F8000
000F8000
000F8000
000F8000
000F8000
000F8000
000F8000
000F8000
000F8000
000F8000
000F8000
000F8000
000F8000
000F8000
000F8000
000F8000
000F8000
000F8000
000F8000
000F8000
000F8000
000F8000
000F8000
000F8000
000F8000
000F8000
ENDCHAR
STARTCHAR 0165
ENCODING 357
SWIDTH 360 0
DWIDTH 20 0
BBX 25 43 1 -1
BITMAP
00000F80
00000F80
00000F00
00000F00
00001E00
03801E00
03801C00
07801C00
07803800
07800000
07800000
0F800000
3FFFC000
FFFFC000
FFFFC000
FFFFC000
0F800000
0F800000
0F800000
0F800000
0F800000
0F800000
0F800000
0F800000
0F800000
0F800000
0F800000
0F800000
0F800000
0F800000
0F800000
0F800000
0F800000
0F800000
0F800000
0F800000
0FC00000
07E00000
07FBC000
03FFC000
01FFC000
00FFC000
000C0000
ENDCHAR
STARTCHAR 0166
ENCODING 358
SWIDTH 540 0
DWIDTH 30 0
BBX 29 40 1 0
BITMAP
FFFFFFF8
FFFFFFF8
FFFFFFF8
FFFFFFF8
FFFFFFF8
000F8000
000F8000
000F8000
000F8000
000F8000
000F8000
000F8000
000F8000
000F8000
000F8000
000F8000
000F8000
000F8000
0FFFFF80
0FFFFF80
0FFFFF80
0FFFFF80
000F8000
000F8000
000F8000
000F8000
000F8000
000F8000
000F8000
000F8000
000F8000
000F8000
000F8000
000F8000
000F8000
000F8000
000F8000
000F8000
000F8000
000F8000
ENDCHAR
STARTCHAR 0167
ENCODING 359
SWIDTH 360 0
DWIDTH 20 0
BBX 18 38 1 -1
BITMAP
038000
038000
078000
078000
078000
078000
0F8000
3FFFC0
FFFFC0
FFFFC0
FFFFC0
0F8000
0F8000
0F8000
0F8000
0F8000
0F8000
0F8000
FFFF80
FFFF80
FFFF80
0F8000
0F8000
0F8000
0F8000
0F8000
0F8000
0F8000
0F8000
0F8000
0F8000
0FC000
07E000
07FBC0
03FFC0
01FFC0
00FFC0
000C00
ENDCHAR
STARTCHAR 0168
ENCODING 360
SWIDTH 720 0
DWIDTH 40 0
BBX 31 52 5 -1
BITMAP
003801C0
00FE0380
01FF8380
03FFFF80
03CFFF00
0783FF00
0700FE00
00000000
00000000
00000000
00000000
F800003E
F800003E
F800003E
F800003E
F800003E
F800003E
F800003E
F800003E
F800003E
F800003E
F800003E
F800003E
F800003E
F800003E
F800003E
F800003E
F800003E
F800003E
F800003E
F800003E
F800003E
F800003E
F800003E
F800003E
F800003E
F800003E
F800003E
F800003C
F800007C
F800007C
7C00007C
7C0000FC
7E0000F8
3F0001F8
3F8003F0
1FE00FF0
0FFFFFE0
07FFFFC0
03FFFF00
00FFFC00
00030000
ENDCHAR
STARTCHAR 0169
ENCODING 361
SWIDTH 612 0
DWIDTH 34 0
BBX 26 42 4 -1
BITMAP
00E00E00
03F80E00
07FE0E00
0FFFFE00
0E1FFC00
1C0FF800
1C03F000
00000000
00000000
00000000
00000000
F80007C0
F80007C0
F80007C0
F80007C0
F80007C0
F80007C0
F80007C0
F80007C0
F80007C0
F80007C0
F80007C0
F80007C0
F80007C0
F80007C0
F80007C0
F80007C0
F80007C0
F80007C0
F80007C0
F8000FC0
F8000FC0
F8000FC0
7C001FC0
7C001FC0
7E003FC0
7F007FC0
3FFFF7C0
1FFFF7C0
0FFFC7C0
07FF83C0
00380000
ENDCHAR
STARTCHAR 016A
ENCODING 362
SWIDTH 720 0
DWIDTH 40 0
BBX 31 49 5 -1
BITMAP
01FFFF00
01FFFF00
01FFFF00
01FFFF00
00000000
00000000
00000000
00000000
F800003E
F800003E
F800003E
F800003E
F800003E
F800003E
F800003E
F800003E
F800003E
F800003E
F800003E
F800003E
F800003E
F800003E
F800003E
F800003E
F800003E
F800003E
F800003E
F800003E
F800003E
F800003E
F800003E
F800003E
F800003E
F800003E
F800003E
F800003C
F800007C
F800007C
7C00007C
7C0000FC
7E0000F8
3F0001F8
3F8003F0
1FE00FF0
0FFFFFE0
07FFFFC0
03FFFF00
00FFFC00
00030000
ENDCHAR
STARTCHAR 016B
ENCODING 363
SWIDTH 612 0
DWIDTH 34 0
BBX 26 39 4 -1
BITMAP
07FFF800
07FFF800
07FFF800
07FFF800
00000000
00000000
00000000
00000000
F80007C0
F80007C0
F80007C0
F80007C0
F80007C0
F80007C0
F80007C0
F80007C0
F80007C0
F80007C0
F80007C0
F80007C0
F80007C0
F80007C0
F80007C0
F80007C0
F80007C0
F80007C0
F80007C0
F8000FC0
F8000FC0
F8000FC0
7C001FC0
7C001FC0
7E003FC0
7F007FC0
3FFFF7C0
1FFFF7C0
0FFFC7C0
07FF83C0
00380000
ENDCHAR
STARTCHAR 016C
ENCODING 364
SWIDTH 720 0
DWIDTH 40 0
BBX 31 52 5 -1
BITMAP
01C00700
01C00F00
01E00E00
00FFFE00
00FFFC00
007FF800
003FF000
00000000
00000000
00000000
00000000
F800003E
F800003E
F800003E
F800003E
F800003E
F800003E
F800003E
F800003E
F800003E
F800003E
F800003E
F800003E
F800003E
F800003E
F800003E
F800003E
F800003E
F800003E
F800003E
F800003E
F800003E
F800003E
F800003E
F800003E
F800003E
F800003E
F800003E
F800003C
F800007C
F800007C
7C00007C
7C0000FC
7E0000F8
3F0001F8
3F8003F0
1FE00FF0
0FFFFFE0
07FFFFC0
03FFFF00
00FFFC00
00030000
ENDCHAR
STARTCHAR 016D
ENCODING 365
SWIDTH 612 0
DWIDTH 34 0
BBX 26 42 4 -1
BITMAP
07001C00
07003C00
07807800
07FFF800
03FFF000
01FFE000
007F8000
00000000
00000000
00000000
00000000
F80007C0
F80007C0
F80007C0
F80007C0
F80007C0
F80007C0
F80007C0
F80007C0
F80007C0
F80007C0
F80007C0
F80007C0
F80007C0
F80007C0
F80007C0
F80007C0
F80007C0
F80007C0
F80007C0
F8000FC0
F8000FC0
F8000FC0
7C001FC0
7C001FC0
7E003FC0
7F007FC0
3FFFF7C0
1FFFF7C0
0FFFC7C0
07FF83C0
00380000
ENDCHAR
STARTCHAR 016E
ENCODING 366
SWIDTH 720 0
DWIDTH 40 0
BBX 31 56 5 -1
BITMAP
000FE000
001FF000
003EF800
00783800
00703800
00703800
00703800
00783800
003CF800
003FF000
000FE000
00000000
00000000
00000000
00000000
F800003E
F800003E
F800003E
F800003E
F800003E
F800003E
F800003E
F800003E
F800003E
F800003E
F800003E
F800003E
F800003E
F800003E
F800003E
F800003E
F800003E
F800003E
F800003E
F800003E
F800003E
F800003E
F800003E
F800003E
F800003E
F800003E
F800003E
F800003C
F800007C
F800007C
7C00007C
7C0000FC
7E0000F8
3F0001F8
3F8003F0
1FE00FF0
0FFFFFE0
07FFFFC0
03FFFF00
00FFFC00
00030000
ENDCHAR
STARTCHAR 016F
ENCODING 367
SWIDTH 612 0
DWIDTH 34 0
BBX 26 46 4 -1
BITMAP
003F8000
00FFC000
00F3E000
01E0E000
01C0E000
01C0E000
01C0E000
01E0E000
00FFE000
00FFC000
003F8000
00000000
00000000
00000000
00000000
F80007C0
F80007C0
F80007C0
F80007C0
F80007C0
F80007C0
F80007C0
F80007C0
F80007C0
F80007C0
F80007C0
F80007C0
F80007C0
F80007C0
F80007C0
F80007C0
F80007C0
F80007C0
F80007C0
F8000FC0
F8000FC0
F8000FC0
7C001FC0
7C001FC0
7E003FC0
7F007FC0
3FFFF7C0
1FFFF7C0
0FFFC7C0
07FF83C0
00380000
ENDCHAR
STARTCHAR 0170
ENCODING 368
SWIDTH 720 0
DWIDTH 40 0
BBX 31 53 5 -1
BITMAP
003E1F80
007E1F00
007C3F00
00F83E00
01F07C00
01E07800
03C0F000
0781E000
00000000
00000000
00000000
00000000
F800003E
F800003E
F800003E
F800003E
F800003E
F800003E
F800003E
F800003E
F800003E
F800003E
F800003E
F800003E
F800003E
F800003E
F800003E
F800003E
F800003E
F800003E
F800003E
F800003E
F800003E
F800003E
F800003E
F800003E
F800003E
F800003E
F800003E
F800003C
F800007C
F800007C
7C00007C
7C0000FC
7E0000F8
3F0001F8
3F8003F0
1FE00FF0
0FFFFFE0
07FFFFC0
03FFFF00
00FFFC00
00030000
ENDCHAR
STARTCHAR 0171
ENCODING 369
SWIDTH 612 0
DWIDTH 34 0
BBX 26 44 4 -1
BITMAP
00F83E00
01F87E00
01F07C00
03F0F800
03E0F800
07C1F000
0783E000
0F03C000
1E078000
00000000
00000000
00000000
00000000
F80007C0
F80007C0
F80007C0
F80007C0
F80007C0
F80007C0
F80007C0
F80007C0
F80007C0
F80007C0
F80007C0
F80007C0
F80007C0
F80007C0
F80007C0
F80007C0
F80007C0
F80007C0
F80007C0
F8000FC0
F8000FC0
F8000FC0
7C001FC0
7C001FC0
7E003FC0
7F007FC0
3FFFF7C0
1FFFF7C0
0FFFC7C0
07FF83C0
00380000
ENDCHAR
STARTCHAR 0172
ENCODING 370
SWIDTH 720 0
DWIDTH 40 0
BBX 31 52 5 -12
BITMAP
F800003E
F800003E
F800003E
F800003E
F800003E
F800003E
F800003E
F800003E
F800003E
F800003E
F800003E
F800003E
F800003E
F800003E
F800003E
F800003E
F800003E
F800003E
F800003E
F800003E
F800003E
F800003E
F800003E
F800003E
F800003E
F800003E
F800003E
F800003E
F800007C
F800007C
7C00007C
7C0000FC
7E0000F8
3F0001F8
3F8003F0
1FE00FF0
0FFFFFE0
07FFFFC0
03FFFF80
00FFFF00
00031E00
00001C00
00003C00
00003800
00007800
00007800
00007800
00007800
00007C00
00007FC0
00003FC0
00001FC0
ENDCHAR
STARTCHAR 0173
ENCODING 371
SWIDTH 612 0
DWIDTH 34 0
BBX 26 42 4 -12
BITMAP
F80007C0
F80007C0
F80007C0
F80007C0
F80007C0
F80007C0
F80007C0
F80007C0
F80007C0
F80007C0
F80007C0
F80007C0
F80007C0
F80007C0
F80007C0
F80007C0
F80007C0
F80007C0
F80007C0
F8000FC0
F8000FC0
F8000FC0
7C001FC0
7C001FC0
7E003FC0
7F007FC0
3FFFF7C0
1FFFF7C0
0FFFC7C0
07FF83C0
00380F00
00001E00
00001C00
00003C00
00007800
00007800
00007800
00007800
00007C00
00007FC0
00003FC0
00001FC0
ENDCHAR
STARTCHAR 0174
ENCODING 372
SWIDTH 918 0
DWIDTH 51 0
BBX 50 52 1 0
BITMAP
000003F0000000
000007F8000000
00000FF8000000
00001FFC000000
00003F3E000000
00003E1F000000
0000780F800000
0000F007C00000
00000000000000
00000000000000
00000000000000
00000000000000
F80003E00007C0
F80003F0000FC0
F80007F0000F80
7C0007F0000F80
7C0007F0000F80
7C0007F8001F80
7C000FF8001F00
3E000F78001F00
3E000F7C001F00
3E001F7C003F00
3E001F3C003E00
1F001E3E003E00
1F003E3E003E00
1F003E3E007C00
1F803E1F007C00
0F803C1F007C00
0F807C1F007C00
0F807C0F00F800
0FC0780F80F800
07C0F80F80F800
07C0F80780F800
07C0F807C1F000
03E0F007C1F000
03E1F007C1F000
03E1F003E1F000
03E1E003E3E000
01F3E003E3E000
01F3E001E3E000
01F3E001F3C000
01F3C001F7C000
00F7C000F7C000
00FFC000F7C000
00FF8000F78000
00FF8000FF8000
007F80007F8000
007F80007F8000
007F00007F0000
003F00003F0000
003F00003F0000
003E00003F0000
ENDCHAR
STARTCHAR 0175
ENCODING 373
SWIDTH 774 0
DWIDTH 43 0
BBX 42 43 1 0
BITMAP
00003E000000
00003F000000
00007F800000
0000FF800000
0001FFC00000
0003F3E00000
0007C1F00000
000780F80000
000F007C0000
000000000000
000000000000
000000000000
000000000000
F8003F0007C0
F8003F0007C0
F8007F000F80
7C007F800F80
7C007F800F80
7C007F800F80
7C00F7801F00
3E00F7C01F00
3E00F3C01F00
3E01F3C01E00
3E01E3E03E00
1F01E3E03E00
1F03E1E03E00
1F03E1F03C00
0F03C1F07C00
0F87C0F07C00
0F87C0F87C00
0F8780F8F800
078F8078F800
07CF8078F800
07CF007CF000
07CF007CF000
03DF003DF000
03DE003DF000
03FE003FE000
01FE001FE000
01FC001FE000
01FC001FC000
01FC000FC000
00F8000FC000
ENDCHAR
STARTCHAR 0176
ENCODING 374
SWIDTH 558 0
DWIDTH 31 0
BBX 31 52 0 0
BITMAP
0007E000
000FE000
001FF000
003FF800
007E7C00
00F83E00
00F01F00
01E00F80
00000000
00000000
00000000
00000000
FC00003E
7C00007E
7E00007C
3E0000FC
3F0000F8
1F0001F8
1F8001F0
0F8003F0
0FC003E0
07C007C0
07E007C0
03E00F80
01F00F80
01F01F00
00F81F00
00F83E00
007C7E00
007C7C00
003EFC00
003FF800
001FF000
001FF000
000FE000
000FE000
0007C000
0007C000
0007C000
0007C000
0007C000
0007C000
0007C000
0007C000
0007C000
0007C000
0007C000
0007C000
0007C000
0007C000
0007C000
0007C000
ENDCHAR
STARTCHAR 0177
ENCODING 375
SWIDTH 504 0
DWIDTH 28 0
BBX 28 56 0 -13
BITMAP
000F8000
001F8000
003FC000
007FE000
007FF000
00F9F800
01F0F800
03E03C00
07801E00
00000000
00000000
00000000
00000000
F80001F0
7C0001F0
7C0003E0
7E0003E0
3E0003E0
3E0007C0
1F0007C0
1F000FC0
1F000F80
0F800F80
0F801F00
07C01F00
07C01F00
07C03E00
03E03E00
03E03E00
01E07C00
01F07C00
01F07800
00F8F800
00F8F800
0078F000
007DF000
007DF000
003DE000
003FE000
001FC000
001FC000
001FC000
000F8000
000F8000
001F8000
001F0000
001F0000
003E0000
003E0000
007C0000
00FC0000
01F80000
7FF80000
7FF00000
7FE00000
7F800000
ENDCHAR
STARTCHAR 0178
ENCODING 376
SWIDTH 558 0
DWIDTH 31 0
BBX 31 50 0 0
BITMAP
00F81E00
00F83E00
00F83F00
00F81E00
00701E00
00000000
00000000
00000000
00000000
00000000
FC00003E
7C00007E
7E00007C
3E0000FC
3F0000F8
1F0001F8
1F8001F0
0F8003F0
0FC003E0
07C007C0
07E007C0
03E00F80
01F00F80
01F01F00
00F81F00
00F83E00
007C7E00
007C7C00
003EFC00
003FF800
001FF000
001FF000
000FE000
000FE000
0007C000
0007C000
0007C000
0007C000
0007C000
0007C000
0007C000
0007C000
0007C000
0007C000
0007C000
0007C000
0007C000
0007C000
0007C000
0007C000
ENDCHAR
STARTCHAR 0179
ENCODING 377
SWIDTH 558 0
DWIDTH 31 0
BBX 28 52 2 0
BITMAP
0000FC00
0001F800
0001F000
0003F000
0007E000
0007C000
000F8000
001F0000
00000000
00000000
00000000
00000000
7FFFFFE0
7FFFFFE0
7FFFFFE0
7FFFFFE0
7FFFFFE0
000007C0
00000F80
00001F80
00001F00
00003E00
00007E00
00007C00
0000F800
0001F800
0001F000
0003F000
0007E000
0007C000
000FC000
001F8000
001F0000
003F0000
007E0000
007C0000
00FC0000
01F80000
01F00000
03F00000
07E00000
07C00000
0FC00000
1F800000
1F000000
3F000000
7E000000
7C000000
FFFFFFF0
FFFFFFF0
FFFFFFF0
FFFFFFF0
ENDCHAR
STARTCHAR 017A
ENCODING 378
SWIDTH 468 0
DWIDTH 26 0
BBX 22 43 2 0
BITMAP
0007E0
0007E0
000FC0
000F80
001F00
003E00
003E00
007C00
00F000
000000
000000
000000
000000
7FFFFC
7FFFFC
7FFFFC
7FFFFC
0000F8
0001F0
0003F0
0003E0
0007C0
000FC0
000F80
001F00
003E00
007E00
007C00
00F800
01F800
01F000
03E000
07E000
07C000
0F8000
1F0000
3F0000
3E0000
7C0000
FFFFFC
FFFFFC
FFFFFC
FFFFFC
ENDCHAR
STARTCHAR 017B
ENCODING 379
SWIDTH 558 0
DWIDTH 31 0
BBX 28 51 2 0
BITMAP
00070000
000F8000
001F8000
001F8000
001F8000
000F0000
00000000
00000000
00000000
00000000
00000000
7FFFFFE0
7FFFFFE0
7FFFFFE0
7FFFFFE0
7FFFFFE0
000007C0
00000F80
00001F80
00001F00
00003E00
00007E00
00007C00
0000F800
0001F800
0001F000
0003F000
0007E000
0007C000
000FC000
001F8000
001F0000
003F0000
007E0000
007C0000
00FC0000
01F80000
01F00000
03F00000
07E00000
07C00000
0FC00000
1F800000
1F000000
3F000000
7E000000
7C000000
FFFFFFF0
FFFFFFF0
FFFFFFF0
FFFFFFF0
ENDCHAR
STARTCHAR 017C
ENCODING 380
SWIDTH 468 0
DWIDTH 26 0
BBX 22 41 2 0
BITMAP
007800
007C00
00FC00
00FC00
00FC00
007800
000000
000000
000000
000000
000000
7FFFFC
7FFFFC
7FFFFC
7FFFFC
0000F8
0001F0
0003F0
0003E0
0007C0
000FC0
000F80
001F00
003E00
007E00
007C00
00F800
01F800
01F000
03E000
07E000
07C000
0F8000
1F0000
3F0000
3E0000
7C0000
FFFFFC
FFFFFC
FFFFFC
FFFFFC
ENDCHAR
STARTCHAR 017D
ENCODING 381
SWIDTH 558 0
DWIDTH 31 0
BBX 28 52 2 0
BITMAP
07801E00
03E07C00
01F0F800
00F9F000
007FE000
007FE000
003FC000
001F8000
00000000
00000000
00000000
00000000
7FFFFFE0
7FFFFFE0
7FFFFFE0
7FFFFFE0
7FFFFFE0
000007C0
00000F80
00001F80
00001F00
00003E00
00007E00
00007C00
0000F800
0001F800
0001F000
0003F000
0007E000
0007C000
000FC000
001F8000
001F0000
003F0000
007E0000
007C0000
00FC0000
01F80000
01F00000
03F00000
07E00000
07C00000
0FC00000
1F800000
1F000000
3F000000
7E000000
7C000000
FFFFFFF0
FFFFFFF0
FFFFFFF0
FFFFFFF0
ENDCHAR
STARTCHAR 017E
ENCODING 382
SWIDTH 468 0
DWIDTH 26 0
BBX 22 43 2 0
BITMAP
380070
3C01F0
1F03E0
0F87C0
07CF80
03FF00
03FE00
01FE00
00FC00
000000
000000
000000
000000
7FFFFC
7FFFFC
7FFFFC
7FFFFC
0000F8
0001F0
0003F0
0003E0
0007C0
000FC0
000F80
001F00
003E00
007E00
007C00
00F800
01F800
01F000
03E000
07E000
07C000
0F8000
1F0000
3F0000
3E0000
7C0000
FFFFFC
FFFFFC
FFFFFC
FFFFFC
ENDCHAR
STARTCHAR 017F
ENCODING 383
SWIDTH 324 0
DWIDTH 18 0
BBX 15 42 5 1
BITMAP
07FE
1FFE
3FFC
7FFC
7C00
FC00
F800
F800
F800
F800
F800
F800
F800
F800
F800
F800
F800
F800
F800
F800
F800
F800
F800
F800
F800
F800
F800
F800
F800
F800
F800
F800
F800
F800
F800
F800
F800
F800
F800
F800
F800
F800
ENDCHAR
STARTCHAR 0180
ENCODING 384
SWIDTH 612 0
DWIDTH 34 0
BBX 31 43 0 -1
BITMAP
07C00000
07C00000
07C00000
07C00000
07C00000
FFFFF800
FFFFF800
FFFFF800
07C00000
07C00000
07C00000
07C00000
07C3FE00
07CFFF80
079FFFE0
07BFFFF0
07FC07F0
07F001F8
07E000FC
07E0007C
07E0007C
07C0007E
07C0003E
07C0003E
07C0003E
07C0003E
07C0003E
07C0003E
07C0003E
07C0003E
07C0003E
07C0003E
07C0007E
07C0007C
07E0007C
07E000FC
07F001F8
07F803F8
07BFFFF0
079FFFE0
078FFFC0
0707FF00
00002000
ENDCHAR
STARTCHAR 0181
ENCODING 385
SWIDTH 720 0
DWIDTH 40 0
BBX 37 40 1 0
BITMAP
03FFFF0000
3FFFFFF800
7FFFFFFE00
FFFFFFFF80
FFFFFFFFC0
F87C001FC0
F07C000FE0
F07C0007E0
F07C0003E0
F07C0003E0
007C0003E0
007C0003E0
007C0003E0
007C0003E0
007C0007C0
007C000FC0
007C001F80
007FFFFF00
007FFFF800
007FFFF800
007FFFFF00
007C01FFC0
007C000FE0
007C0007E0
007C0003F0
007C0001F0
007C0001F0
007C0001F0
007C0001F8
007C0001F8
007C0001F0
007C0001F0
007C0003F0
007C0007F0
007C000FE0
007C007FC0
007FFFFF80
007FFFFF00
007FFFFE00
007FFFF000
ENDCHAR
STARTCHAR 0182
ENCODING 386
SWIDTH 612 0
DWIDTH 34 0
BBX 26 40 5 0
BITMAP
FFFFFF00
FFFFFF00
FFFFFF00
FFFFFF00
FFFFFF00
F8000000
F8000000
F8000000
F8000000
F8000000
F8000000
F8000000
F8000000
F8000000
F8000000
F8000000
F8000000
FFFF8000
FFFFF000
FFFFFC00
FFFFFE00
F81FFF00
F8003F80
F8001F80
F8000FC0
F80007C0
F80007C0
F80007C0
F80007C0
F80007C0
F80007C0
F80007C0
F8000FC0
F8001F80
F8003F80
F803FF00
FFFFFF00
FFFFFC00
FFFFF800
FFFF8000
ENDCHAR
STARTCHAR 0183
ENCODING 387
SWIDTH 612 0
DWIDTH 34 0
BBX 26 43 5 -1
BITMAP
FFFFFE00
FFFFFE00
FFFFFE00
FFFFFE00
F8000000
F8000000
F8000000
F8000000
F8000000
F8000000
F8000000
F8000000
F87FC000
F9FFF000
F3FFFC00
F7FFFE00
FF80FE00
FE003F00
FC001F80
FC000F80
FC000F80
F8000FC0
F80007C0
F80007C0
F80007C0
F80007C0
F80007C0
F80007C0
F80007C0
F80007C0
F80007C0
F80007C0
F8000FC0
F8000F80
FC000F80
FC001F80
FE003F00
FF007F00
F7FFFE00
F3FFFC00
F1FFF800
E0FFE000
00040000
ENDCHAR
STARTCHAR 0184
ENCODING 388
SWIDTH 630 0
DWIDTH 35 0
BBX 27 41 5 -1
BITMAP
F8000000
F8000000
F8000000
F8000000
F8000000
F8000000
F8000000
F8000000
F8000000
F8000000
F8000000
F8000000
F8000000
F8000000
F8000000
F8000000
F8000000
FFFF8000
FFFFF800
FFFFFE00
FFFFFF00
F80FFF80
F8003FC0
F8000FC0
F80007E0
F80003E0
F80003E0
F80003E0
F80003E0
F80003E0
F80003E0
F80003E0
FC0003E0
7C0007E0
7E000FC0
3F801FC0
3FFFFF80
1FFFFF00
07FFFC00
01FFF000
00060000
ENDCHAR
STARTCHAR 0185
ENCODING 389
SWIDTH 612 0
DWIDTH 34 0
BBX 26 43 5 -1
BITMAP
F0000000
F0000000
F0000000
F0000000
F0000000
F0000000
F0000000
F0000000
F0000000
F0000000
F0000000
F0000000
F07FC000
F1FFF000
F3FFFC00
F7FFFE00
FF80FE00
FE003F00
FC001F00
FC001F80
F8000F80
F8000F80
F8000FC0
F80007C0
F80007C0
F00007C0
F00007C0
F00007C0
F00007C0
F80007C0
F80007C0
F8000FC0
F8000F80
FC000F80
7C000F80
7E001F00
3F003F00
3F807E00
1FFFFE00
0FFFFC00
07FFF000
01FFC000
000E0000
ENDCHAR
STARTCHAR 0186
ENCODING 390
SWIDTH 630 0
DWIDTH 35 0
BBX 30 41 2 -1
BITMAP
0FFF8000
7FFFF000
FFFFFC00
FFFFFE00
7E03FF00
70007F80
00001FC0
00000FE0
000007E0
000003F0
000003F0
000001F0
000001F8
000000F8
000000F8
000000F8
000000FC
000000FC
000000FC
000000FC
000000FC
000000FC
000000FC
000000FC
000000F8
000000F8
000000F8
000001F8
000001F0
000003F0
000003F0
000007E0
00000FE0
00001FC0
00003F80
7801FF00
7FFFFE00
7FFFFC00
7FFFF800
1FFFC000
00180000
ENDCHAR
STARTCHAR 0187
ENCODING 391
SWIDTH 630 0
DWIDTH 35 0
BBX 36 49 3 -1
BITMAP
00000001C0
0000000FF0
0000001FF0
0000001FF0
0000003FF0
0000003E00
0000003C00
0000003C00
0007FFFC00
001FFFFC00
007FFFFC00
01FFFFF800
03FF01F800
07F8003800
0FE0000000
0FC0000000
1F80000000
1F80000000
3F00000000
3E00000000
7E00000000
7E00000000
7C00000000
7C00000000
7C00000000
FC00000000
FC00000000
FC00000000
FC00000000
FC00000000
FC00000000
7C00000000
7C00000000
7C00000000
7C00000000
7E00000000
3E00000000
3F00000000
3F00000000
1F80000000
1FC0000000
0FE0000000
0FF0000000
07FE007800
03FFFFF800
00FFFFF800
007FFFF800
000FFFE000
0000F00000
ENDCHAR
STARTCHAR 0188
ENCODING 392
SWIDTH 486 0
DWIDTH 27 0
BBX 27 43 3 0
BITMAP
00000FE0
00001FE0
00003FE0
00003FE0
00003C00
00003C00
00003C00
00003C00
00003C00
00003C00
00003C00
00003C00
007FFC00
03FFFC00
07FFF800
0FFFF800
1FE03800
3F800000
3E000000
7E000000
7C000000
7C000000
FC000000
F8000000
F8000000
F8000000
F8000000
F8000000
F8000000
F8000000
F8000000
FC000000
7C000000
7C000000
7E000000
3E000000
3F000000
1FC01800
0FFFF800
0FFFF800
03FFF800
00FFF000
00040000
ENDCHAR
STARTCHAR 0189
ENCODING 393
SWIDTH 720 0
DWIDTH 40 0
BBX 35 40 2 0
BITMAP
0FFFE00000
0FFFFE0000
0FFFFFC000
0FFFFFF000
0FFFFFF800
0F8007FC00
0F8001FE00
0F80007F00
0F80003F00
0F80001F80
0F80000F80
0F80000FC0
0F800007C0
0F800007C0
0F800007E0
0F800003E0
0F800003E0
0F800003E0
FFFFE003E0
FFFFE003E0
FFFFE003E0
FFFFE003E0
FFFFE003E0
0F800003E0
0F800007E0
0F800007E0
0F800007C0
0F800007C0
0F80000FC0
0F80000F80
0F80001F80
0F80003F00
0F80007F00
0F8000FE00
0F8007FC00
0F807FF800
0FFFFFF000
0FFFFFC000
0FFFFF0000
0FFFF00000
ENDCHAR
STARTCHAR 018A
ENCODING 394
SWIDTH 810 0
DWIDTH 45 0
BBX 41 40 1 0
BITMAP
03FFFF000000
3FFFFFF80000
7FFFFFFE0000
FFFFFFFF8000
FFFFFFFFC000
F87C001FF000
F07C0007F000
F07C0003F800
F07C0000FC00
F07C0000FC00
007C00007E00
007C00003E00
007C00003F00
007C00003F00
007C00001F00
007C00001F00
007C00001F00
007C00001F80
007C00001F80
007C00001F80
007C00001F80
007C00001F80
007C00001F00
007C00001F00
007C00001F00
007C00001F00
007C00003F00
007C00003F00
007C00003E00
007C00007E00
007C0000FC00
007C0000FC00
007C0003F800
007C0007F800
007C001FF000
007C01FFE000
007FFFFF8000
007FFFFE0000
007FFFF80000
007FFF800000
ENDCHAR
STARTCHAR 018B
ENCODING 395
SWIDTH 612 0
DWIDTH 34 0
BBX 26 40 3 0
BITMAP
3FFFFFC0
3FFFFFC0
3FFFFFC0
3FFFFFC0
3FFFFFC0
000007C0
000007C0
000007C0
000007C0
000007C0
000007C0
000007C0
000007C0
000007C0
000007C0
000007C0
000007C0
001FFFC0
01FFFFC0
07FFFFC0
0FFFFFC0
3FFE07C0
3F8007C0
7E0007C0
7C0007C0
FC0007C0
F80007C0
F80007C0
F80007C0
F80007C0
F80007C0
FC0007C0
FC0007C0
7E0007C0
7F0007C0
3FF807C0
1FFFFFC0
0FFFFFC0
03FFFFC0
007FFFC0
ENDCHAR
STARTCHAR 018C
ENCODING 396
SWIDTH 612 0
DWIDTH 34 0
BBX 26 43 3 -1
BITMAP
1FFFFFC0
1FFFFFC0
1FFFFFC0
1FFFFFC0
000003C0
000003C0
000003C0
000003C0
000003C0
000003C0
000003C0
000003C0
00FF83C0
03FFE3C0
0FFFF3C0
1FFFFBC0
1FC07FC0
3F001FC0
3E000FC0
7E000FC0
7C0007C0
7C0007C0
FC0007C0
F80007C0
F80007C0
F80003C0
F80003C0
F80003C0
F80003C0
F80003C0
F80007C0
F80007C0
7C0007C0
7C0007C0
7C000FC0
7E000FC0
3F001FC0
3F803FC0
1FFFFBC0
0FFFF3C0
07FFE3C0
01FF83C0
00080000
ENDCHAR
STARTCHAR 018D
ENCODING 397
SWIDTH 594 0
DWIDTH 33 0
BBX 27 43 4 -13
BITMAP
00FFE000
03FFF800
0FFFFC00
1FFFFF00
1F807F00
3F001F80
7E000FC0
7C0007C0
FC0007C0
F80003E0
F80003E0
F80003E0
F80003E0
F80003E0
F80003E0
F80003E0
F80003E0
F80007C0
7C0007C0
7E000FC0
3E001F80
1F003F00
1FC07E00
0FE1FC00
03FFF800
01FFE000
00FF8000
003FE000
000FF000
0003F800
0001F800
0000FC00
00007C00
00007C00
00007C00
00007C00
18007C00
3E00FC00
3F83F800
7FFFF000
1FFFE000
07FFC000
007C0000
ENDCHAR
STARTCHAR 018E
ENCODING 398
SWIDTH 540 0
DWIDTH 30 0
BBX 23 40 3 0
BITMAP
FFFFFE
FFFFFE
FFFFFE
FFFFFE
FFFFFE
00007E
00007E
00007E
00007E
00007E
00007E
00007E
00007E
00007E
00007E
00007E
00007E
7FFFFE
7FFFFE
7FFFFE
7FFFFE
00007E
00007E
00007E
00007E
00007E
00007E
00007E
00007E
00007E
00007E
00007E
00007E
00007E
00007E
00007E
FFFFFE
FFFFFE
FFFFFE
FFFFFE
ENDCHAR
STARTCHAR 018F
ENCODING 399
SWIDTH 738 0
DWIDTH 41 0
BBX 35 41 3 -1
BITMAP
01FFFC0000
0FFFFF8000
1FFFFFC000
1FFFFFF000
1FC01FF800
1C0003FC00
000000FE00
0000007E00
0000003F00
0000001F00
0000001F80
0000000F80
0000000FC0
00000007C0
00000007C0
00000007C0
00000007C0
00000007C0
FFFFFFFFE0
FFFFFFFFE0
FFFFFFFFE0
FFFFFFFFE0
FFFFFFFFE0
FC000007C0
FC000007C0
7C000007C0
7C000007C0
7C000007C0
7C00000F80
7E00000F80
3E00001F80
3E00001F00
1F00003F00
1F80007E00
0FC001FC00
0FF007FC00
07FFFFF800
03FFFFE000
00FFFFC000
003FFE0000
0000C00000
ENDCHAR
STARTCHAR 0190
ENCODING 400
SWIDTH 576 0
DWIDTH 32 0
BBX 28 41 3 -1
BITMAP
007FF000
01FFFE00
07FFFF80
0FFFFFE0
1FE01FE0
1F8003C0
3F0000C0
3F000000
3E000000
3E000000
3E000000
3E000000
3E000000
3F000000
1F800000
0FC00000
07F00000
03FFFE00
00FFFE00
007FFE00
03FFFE00
0FFFFE00
1FC00000
3F000000
7E000000
7C000000
FC000000
F8000000
F8000000
F8000000
F8000000
FC000000
FC000000
7E000000
7F000070
3FC003F0
1FFFFFF0
0FFFFFF0
07FFFFE0
01FFFF00
00018000
ENDCHAR
STARTCHAR 0191
ENCODING 401
SWIDTH 576 0
DWIDTH 32 0
BBX 32 53 -1 -13
BITMAP
001FFFFF
001FFFFF
001FFFFF
001FFFFF
001FFFFF
001F0000
001F0000
001F0000
001F0000
001F0000
001F0000
001F0000
001F0000
001F0000
001F0000
001F0000
001F0000
001FFFFE
001FFFFE
001FFFFE
001FFFFE
001F0000
001F0000
001F0000
001F0000
001F0000
001F0000
001F0000
001F0000
001F0000
001F0000
001F0000
001F0000
001F0000
001F0000
001F0000
001F0000
001F0000
001F0000
001F0000
001F0000
001F0000
001F0000
E01F0000
F81F0000
F81F0000
F81F0000
F83F0000
FC7F0000
7FFE0000
7FFE0000
3FF80000
1FF00000
ENDCHAR
STARTCHAR 0192
ENCODING 402
SWIDTH 414 0
DWIDTH 23 0
BBX 26 55 -1 -12
BITMAP
0000FFC0
0003FFC0
0007FFC0
000FFF80
000FC000
000F8000
001F0000
001F0000
001F0000
001F0000
001F0000
001F0000
003FFE00
03FFFE00
03FFFE00
03FFFE00
001F0000
001F0000
001F0000
001F0000
001F0000
001F0000
001F0000
001F0000
001F0000
001F0000
001F0000
001F0000
001F0000
001F0000
001F0000
001F0000
001F0000
001F0000
001F0000
001F0000
001F0000
001F0000
001F0000
001F0000
001F0000
001F0000
001F0000
001F0000
001F0000
001F0000
E01F0000
F81F0000
F81F0000
F81F0000
7C3E0000
7FFE0000
3FFC0000
3FFC0000
0FF00000
ENDCHAR
STARTCHAR 0193
ENCODING 403
SWIDTH 720 0
DWIDTH 40 0
BBX 38 49 3 -1
BITMAP
0000000030
00000001FC
00000003FC
00000007FC
00000007FC
0000000780
0000000780
0000000780
0001FFF780
000FFFFF80
003FFFFF80
00FFFFFF00
01FF807F00
03FC000E00
07F0000000
0FE0000000
1FC0000000
1F80000000
3F00000000
3E00000000
7E00000000
7E00000000
7C00000000
7C00000000
7C00000000
FC00000000
FC00000000
FC000FFF80
FC000FFF80
FC000FFF80
FC000FFF80
7C000FFF80
7C00000F80
7C00000F80
7C00000F80
7E00000F80
3E00000F80
3F00000F80
3F00000F80
1F80000F80
1FC0000F80
0FE0000F80
07F0000F80
03FE001F80
01FFFFFF80
00FFFFFF80
003FFFFF80
000FFFFC00
0000380000
ENDCHAR
STARTCHAR 0194
ENCODING 404
SWIDTH 558 0
DWIDTH 31 0
BBX 32 53 0 -13
BITMAP
F800003F
FC00003E
7C00003E
7C00007C
3E00007C
3E0000FC
3F0000F8
1F0000F8
1F0001F8
0F8001F0
0F8001F0
0F8003E0
07C003E0
07C007E0
07E007C0
03E007C0
03E00F80
01F00F80
01F00F80
01F01F00
00F81F00
00F83E00
007C3E00
007C3E00
007C7C00
003E7C00
003E7C00
001EF800
001FF800
001FF000
000FF000
000FF000
000FE000
0007E000
0007E000
000FE000
000FF000
000FF000
001FF800
001EF800
003E7800
003E7C00
003C7C00
003C7C00
007C3C00
007C3C00
007C3C00
007C3C00
003E7C00
003FFC00
001FF800
001FF000
0007E000
ENDCHAR
STARTCHAR 0195
ENCODING 405
SWIDTH 918 0
DWIDTH 51 0
BBX 42 43 5 -1
BITMAP
F80000000000
F80000000000
F80000000000
F80000000000
F80000000000
F80000000000
F80000000000
F80000000000
F80000000000
F80000000000
F80000000000
F80000000000
F87FC00007C0
F9FFF00007C0
FBFFF80007C0
F7FFFC0007C0
FF80FC0007C0
FE007E0007C0
FC003E0007C0
FC003E0007C0
F8003E0007C0
F8001E0007C0
F8001E0007C0
F8001F0007C0
F8001F0007C0
F8001F0007C0
F8001F0007C0
F8001F0007C0
F8001F0007C0
F8001F0007C0
F8001F0007C0
F8001F0007C0
F8001F0007C0
F8001F0007C0
F8001F0007C0
F8001F000FC0
F8001F800F80
F8000FC01F80
F8000FFFFF80
F80007FFFF00
F80003FFFE00
F80000FFF800
0000000F0000
ENDCHAR
STARTCHAR 0196
ENCODING 406
SWIDTH 342 0
DWIDTH 19 0
BBX 14 41 5 -1
BITMAP
F800
F800
F800
F800
F800
F800
F800
F800
F800
F800
F800
F800
F800
F800
F800
F800
F800
F800
F800
F800
F800
F800
F800
F800
F800
F800
F800
F800
F800
F800
F800
F800
F800
F800
FC00
FE00
7FFC
7FFC
3FFC
0FFC
0080
ENDCHAR
STARTCHAR 0197
ENCODING 407
SWIDTH 324 0
DWIDTH 18 0
BBX 15 40 2 0
BITMAP
FFFE
FFFE
FFFE
7FF8
07C0
07C0
07C0
07C0
07C0
07C0
07C0
07C0
07C0
07C0
07C0
07C0
07C0
FFFE
FFFE
FFFE
FFFE
FFFE
07C0
07C0
07C0
07C0
07C0
07C0
07C0
07C0
07C0
07C0
07C0
07C0
07C0
07C0
1FF0
FFFE
FFFE
FFFE
ENDCHAR
STARTCHAR 0198
ENCODING 408
SWIDTH 612 0
DWIDTH 34 0
BBX 29 40 5 0
BITMAP
F80001F8
F80007F8
F8000FF8
F8001FF8
F8003F80
F8003E00
F8007C00
F800FC00
F801F800
F803F000
F803E000
F807C000
F80F8000
F81F8000
F83F0000
F87E0000
F87C0000
F8F80000
F9FC0000
FBFE0000
FFFE0000
FFBF0000
FF1F8000
FE0FC000
FC0FC000
F807E000
F803F000
F803F000
F801F800
F800FC00
F8007E00
F8007E00
F8003F00
F8001F80
F8000F80
F8000FC0
F80007E0
F80003F0
F80003F0
F80001F8
ENDCHAR
STARTCHAR 0199
ENCODING 409
SWIDTH 522 0
DWIDTH 29 0
BBX 24 43 5 0
BITMAP
020000
3FC000
7FC000
7FC000
FFC000
F80000
F80000
F80000
F80000
F80000
F80000
F80000
F80000
F8007E
F800FC
F801F8
F803F0
F803E0
F807C0
F80F80
F81F00
F83F00
F87E00
F8FC00
F9F800
F3F000
F7F000
F7F000
FFF800
FFFC00
FC7E00
F83E00
F83F00
F81F80
F80FC0
F807E0
F807E0
F803F0
F801F8
F800FC
F800FC
F8007E
F8003F
ENDCHAR
STARTCHAR 019A
ENCODING 410
SWIDTH 252 0
DWIDTH 14 0
BBX 13 42 1 0
BITMAP
0F80
0F80
0F80
0F80
0F80
0F80
0F80
0F80
0F80
0F80
0F80
0F80
0F80
0F80
0F80
0F80
0F80
0F80
0F80
FFF8
FFF8
FFF8
0F80
0F80
0F80
0F80
0F80
0F80
0F80
0F80
0F80
0F80
0F80
0F80
0F80
0F80
0F80
0F80
0F80
0F80
0F80
0F80
ENDCHAR
STARTCHAR 019B
ENCODING 411
SWIDTH 540 0
DWIDTH 30 0
BBX 30 44 0 -1
BITMAP
07000000
3FE00000
3FF00000
3FF80000
3FFC7800
007FF800
003FF800
00FFF000
0FFF8000
07FF0000
07DF0000
060F8000
000F8000
000F8000
000FC000
000FC000
001FC000
001FE000
003FE000
003DF000
003DF000
007DF000
0078F800
00F8F800
00F8F800
01F07C00
01F07C00
03E07C00
03E03E00
03E03E00
07C01E00
07C01F00
0F801F00
0F800F80
1F000F80
1F000F80
1F0007C0
3E0007C0
3E0007E0
7C0003F4
7C0003FC
F80001FC
F80000FC
00000030
ENDCHAR
STARTCHAR 019C
ENCODING 412
SWIDTH 1026 0
DWIDTH 57 0
BBX 47 41 5 -1
BITMAP
F80007C0003E
F80007C0003E
F80007C0003E
F80007C0003E
F80007C0003E
F80007C0003E
F80007C0003E
F80007C0003E
F80007C0003E
F80007C0003E
F80007C0003E
F80007C0003E
F80007C0003E
F80007C0003E
F80007C0003E
F80007C0003E
F80007C0003E
F80007C0003E
F80007C0003E
F80007C0003E
F80007C0003E
F80007C0003E
F80007C0003E
F80007C0003E
F80007C0003E
F80007C0003E
F80007C0003E
F80007C0003E
F80007C0007E
F8000FC0007E
F8000FC0007E
F8000FC0007E
FC001FE000FE
7C001FE000FE
7E003FF001FE
7F00FBF807FE
3FFFF9FFFFBE
3FFFF0FFFF3E
0FFFC07FFE1E
07FF003FF81E
003000010000
ENDCHAR
STARTCHAR 019D
ENCODING 413
SWIDTH 756 0
DWIDTH 42 0
BBX 38 53 -1 -13
BITMAP
03F000007C
03F800007C
03FC00007C
03FC00007C
03FE00007C
03FF00007C
03FF00007C
03FF80007C
03EF80007C
03EFC0007C
03E7E0007C
03E3E0007C
03E3F0007C
03E1F8007C
03E0F8007C
03E0FC007C
03E07E007C
03E03E007C
03E03F007C
03E01F807C
03E01F807C
03E00FC07C
03E007C07C
03E007E07C
03E003F07C
03E001F07C
03E001F87C
03E000FC7C
03E0007C7C
03E0007E7C
03E0003F7C
03E0001F7C
03E0001FBC
03E0000FFC
03E0000FFC
03E00007FC
03E00003FC
03E00003FC
03E00001FC
03E00000FC
03E0000000
03E0000000
03E0000000
03E0000000
03E0000000
03E0000000
03E0000000
03E0000000
87E0000000
FFC0000000
FFC0000000
FF80000000
FE00000000
ENDCHAR
STARTCHAR 019E
ENCODING 414
SWIDTH 612 0
DWIDTH 34 0
BBX 24 43 5 -13
BITMAP
F07FE0
F1FFF8
F3FFFC
F7FFFE
FF80FE
FE003F
FE003F
FC001F
F8001F
F8001F
F8001F
F8001F
F8001F
F8001F
F8001F
F8001F
F8001F
F8001F
F8001F
F8001F
F8001F
F8001F
F8001F
F8001F
F8001F
F8001F
F8001F
F8001F
F8001F
F8001F
00001F
00001F
00001F
00001F
00001F
00001F
00001F
00001F
00001F
00001F
00001F
00001F
00001F
ENDCHAR
STARTCHAR 019F
ENCODING 415
SWIDTH 774 0
DWIDTH 43 0
BBX 37 41 3 -1
BITMAP
0007FF8000
003FFFE000
00FFFFF800
01FFFFFE00
03FE03FF00
07F0007F80
0FE0001F80
1FC0000FC0
1F800007E0
3F000007E0
3F000003E0
3E000003F0
7E000001F0
7C000001F0
7C000001F0
7C000001F8
7C000001F8
FC000000F8
FFFFFFFFF8
FFFFFFFFF8
FFFFFFFFF8
FFFFFFFFF8
FC000000F8
7C000000F8
7C000001F8
7C000001F8
7C000001F0
7E000001F0
3E000003F0
3E000003E0
3F000003E0
1F000007E0
1F80000FC0
0FC0001F80
07F0003F80
07FC00FF00
03FFFFFE00
00FFFFFC00
007FFFF000
000FFFC000
0000300000
ENDCHAR
STARTCHAR 01A0
ENCODING 416
SWIDTH 774 0
DWIDTH 43 0
BBX 42 43 3 -1
BITMAP
000000000FC0
000000000F80
0007FF800F80
003FFFE00F80
00FFFFF80F80
01FFFFFC1F00
03FE03FF3F00
07F0007FFE00
0FE0001FFC00
1FC0000FF800
1F800007C000
3F000007E000
3F000003E000
3E000003F000
7E000001F000
7C000001F000
7C000001F000
7C000001F800
7C000001F800
FC000000F800
FC000000F800
FC000000F800
FC000000F800
FC000000F800
FC000000F800
7C000001F800
7C000001F800
7C000001F800
7C000001F000
7E000001F000
3E000003F000
3E000003E000
3F000007E000
1F800007E000
1F80000FC000
0FC0001F8000
07F0003F8000
07FC00FF0000
03FFFFFE0000
00FFFFFC0000
007FFFF00000
000FFFC00000
0000B0000000
ENDCHAR
STARTCHAR 01A1
ENCODING 417
SWIDTH 612 0
DWIDTH 34 0
BBX 33 35 3 -1
BITMAP
0000001F80
0000001F80
0000001F00
0000001F00
007FE01F00
03FFF83E00
07FFFC7E00
0FFFFFFC00
1FC03FF800
3F001FF000
3E000FC000
7E0007C000
7C0007E000
7C0003E000
FC0003E000
F80003E000
F80003E000
F80003F000
F80001F000
F80001F000
F80003F000
F80003E000
F80003E000
F80003E000
7C0003E000
7C0003E000
7E0007C000
3E0007C000
3F000F8000
1F803F8000
0FFFFF0000
07FFFE0000
03FFF80000
00FFF00000
0004000000
ENDCHAR
STARTCHAR 01A2
ENCODING 418
SWIDTH 1062 0
DWIDTH 59 0
BBX 52 41 3 -1
BITMAP
000FFF000FFC00
007FFFC03FFF00
00FFFFF0FFFF80
03FFFFF9FFFFC0
07FC07FDF01FC0
07F000FFC007E0
0FC0007F8007E0
1F80003F0003E0
1F80001F8003F0
3F00000F8001F0
3E00000FC001F0
3E000007C001F0
7E000007C001F0
7C000007E001F0
7C000007E001F0
7C000003E001F0
7C000003E001F0
FC000003E001F0
FC000003E001F0
FC000003E001F0
FC000003E001F0
FC000003E001F0
FC000003E001F0
7C000003E001F0
7C000003E001F0
7C000007E001F0
7C000007E001F0
7E000007C001F0
7E000007C001F0
3E00000FC001F0
3F00000F8001F0
1F00001F8001F0
1F80001F0001F0
0FC0003F0001F0
0FE000FE0001F0
07F803FC0001F0
03FFFFF80001F0
01FFFFF00001F0
007FFFE00001F0
001FFF800001F0
00006000000000
ENDCHAR
STARTCHAR 01A3
ENCODING 419
SWIDTH 828 0
DWIDTH 46 0
BBX 39 43 3 -13
BITMAP
00FFC03FE0
03FFF07FF0
07FFF8FFF8
0FFFFDFFFC
1FC07FC0FE
3F003F807E
3E001F003E
7E000F803E
7C000F803E
7C000FC01E
FC0007C01E
F80007C01E
F80007C01E
F80007C01E
F80007C01E
F80007C01E
F80007C01E
F80007C01E
F80007C01E
FC0007C01E
7C000FC01E
7C000F801E
7E000F801E
3E001F801E
3F003F001E
1F807E001E
0FFFFE001E
07FFFC001E
03FFF0001E
00FFE0001E
001600001E
000000001E
000000001E
000000001E
000000001E
000000001E
000000001E
000000001E
000000001E
000000001E
000000001E
000000001E
000000001E
ENDCHAR
STARTCHAR 01A4
ENCODING 420
SWIDTH 684 0
DWIDTH 38 0
BBX 34 40 1 0
BITMAP
03FFFE0000
3FFFFFE000
7FFFFFF800
FFFFFFFE00
FFFFFFFF00
F87C007F80
F07C001F80
F07C000FC0
F07C000FC0
F07C0007C0
007C0007C0
007C0007C0
007C0007C0
007C0007C0
007C0007C0
007C0007C0
007C000F80
007C001F80
007C003F80
007C00FF00
007FFFFE00
007FFFFC00
007FFFF000
007FFFC000
007FE80000
007C000000
007C000000
007C000000
007C000000
007C000000
007C000000
007C000000
007C000000
007C000000
007C000000
007C000000
007C000000
007C000000
007C000000
007C000000
ENDCHAR
STARTCHAR 01A5
ENCODING 421
SWIDTH 612 0
DWIDTH 34 0
BBX 26 56 5 -13
BITMAP
02000000
1FC00000
7FC00000
7FC00000
FFC00000
F8000000
F8000000
F8000000
F8000000
F8000000
F8000000
F8000000
F8000000
F87FE000
F9FFF000
F3FFFC00
F7FFFE00
FF80FF00
FE003F00
FC001F80
FC001F80
F8000F80
F8000FC0
F80007C0
F80007C0
F80007C0
F80007C0
F80007C0
F80007C0
F80007C0
F80007C0
F80007C0
F80007C0
F8000FC0
F8000F80
FC000F80
FC001F80
FE003F00
FF807F00
F7FFFE00
F3FFFC00
F1FFF800
F87FE000
F8060000
F8000000
F8000000
F8000000
F8000000
F8000000
F8000000
F8000000
F8000000
F8000000
F8000000
F8000000
F8000000
ENDCHAR
STARTCHAR 01A6
ENCODING 422
SWIDTH 612 0
DWIDTH 34 0
BBX 29 46 5 -6
BITMAP
F8000000
F8000000
F8000000
F8000000
F8000000
F8000000
FFFF8000
FFFFF000
FFFFFC00
FFFFFE00
F803FF00
F8003F80
F8001F80
F8000F80
F8000FC0
F8000FC0
F80007C0
F80007C0
F80007C0
F8000FC0
F8000F80
F8000F80
F8001F80
F8003F00
F801FE00
FFFFFC00
FFFFF800
FFFFE000
FFFFC000
F807E000
F803F000
F801F000
F801F800
F800F800
F800FC00
F8007E00
F8003E00
F8003F00
F8001F00
F8001F80
00000FC0
000007C0
000007E0
000003E0
000003F0
000001F8
ENDCHAR
STARTCHAR 01A7
ENCODING 423
SWIDTH 540 0
DWIDTH 30 0
BBX 25 41 3 -1
BITMAP
03FF8000
1FFFF000
3FFFF800
1FFFFC00
1F81FE00
1C007F00
00003F00
00001F00
00001F80
00000F80
00000F80
00000F80
00001F00
00001F00
00003F00
0000FE00
0003FE00
000FFC00
003FF800
01FFE000
07FF8000
0FFE0000
3FF00000
3FC00000
7F000000
FE000000
FC000000
F8000000
F8000000
F8000000
F8000000
F8000000
F8000000
FC000000
7E000380
7F801F80
3FFFFF80
1FFFFF80
07FFFF00
01FFFC00
00160000
ENDCHAR
STARTCHAR 01A8
ENCODING 424
SWIDTH 468 0
DWIDTH 26 0
BBX 22 31 2 -1
BITMAP
07FF80
3FFFE0
3FFFF0
1FFFF8
1C01F8
0000FC
00007C
00007C
00007C
0000FC
0001F8
0007F8
001FF0
00FFE0
03FF80
0FFE00
1FF000
3FC000
7F0000
7E0000
7C0000
F80000
780000
780000
7C0004
7E001C
3FE3FC
3FFFFC
0FFFFC
07FFF0
001E00
ENDCHAR
STARTCHAR 01A9
ENCODING 425
SWIDTH 558 0
DWIDTH 31 0
BBX 28 40 2 0
BITMAP
7FFFFFE0
7FFFFFE0
7FFFFFE0
7FFFFFE0
7FFFFFE0
7F000000
3F800000
1F800000
0FC00000
07E00000
03F00000
01F80000
01FC0000
00FC0000
007E0000
003F0000
001F8000
000FC000
000FC000
0007C000
000FC000
000F8000
001F0000
003E0000
007E0000
00FC0000
00F80000
01F00000
03E00000
07E00000
0FC00000
0F800000
1F000000
3E000000
7E000000
FC03FFF0
FFFFFFF0
FFFFFFF0
FFFFFFF0
FFFFFFF0
ENDCHAR
STARTCHAR 01AA
ENCODING 426
SWIDTH 342 0
DWIDTH 19 0
BBX 23 56 0 -13
BITMAP
020000
3FE000
7FF000
FFF800
FFF800
F0F800
F07C00
F07C00
F87C00
FFFC00
7FFC00
3FFC00
0FFC00
007C00
007C00
007C00
007C00
007C00
007C00
007C00
007C00
007C00
007C00
007C00
007C00
007C00
007C00
007C00
007C00
007C00
007C00
007C00
007C00
007C00
007C00
007C00
007C00
007C00
007C00
007C00
007C00
007C00
007C00
007C00
007C00
007C00
007C00
007C00
007C00
007C00
007C00
007E00
003FFE
003FFE
001FFE
0007FC
ENDCHAR
STARTCHAR 01AB
ENCODING 427
SWIDTH 360 0
DWIDTH 20 0
BBX 18 50 1 -13
BITMAP
038000
038000
078000
078000
078000
078000
0F8000
3FFFC0
FFFFC0
FFFFC0
FFFFC0
0F8000
0F8000
0F8000
0F8000
0F8000
0F8000
0F8000
0F8000
0F8000
0F8000
0F8000
0F8000
0F8000
0F8000
0F8000
0F8000
0F8000
0F8000
0F8000
0F8000
0FC000
07C000
07FBC0
03FFC0
01FFC0
00FFC0
000FC0
0007C0
0007C0
0007C0
0007C0
0007C0
0007C0
0007C0
0007C0
00FF80
00FF80
00FF00
00FE00
ENDCHAR
STARTCHAR 01AC
ENCODING 428
SWIDTH 576 0
DWIDTH 32 0
BBX 30 40 1 0
BITMAP
03FFFFFC
3FFFFFFC
7FFFFFFC
FFFFFFFC
FFFFFFFC
F807C000
F007C000
F007C000
F007C000
F007C000
0007C000
0007C000
0007C000
0007C000
0007C000
0007C000
0007C000
0007C000
0007C000
0007C000
0007C000
0007C000
0007C000
0007C000
0007C000
0007C000
0007C000
0007C000
0007C000
0007C000
0007C000
0007C000
0007C000
0007C000
0007C000
0007C000
0007C000
0007C000
0007C000
0007C000
ENDCHAR
STARTCHAR 01AD
ENCODING 429
SWIDTH 360 0
DWIDTH 20 0
BBX 18 44 1 -1
BITMAP
000800
00FF80
03FF80
03FF80
07FF80
07C000
0F8000
0F8000
0F8000
0F8000
0F8000
0F8000
0F8000
3FFFC0
FFFFC0
FFFFC0
FFFFC0
0F8000
0F8000
0F8000
0F8000
0F8000
0F8000
0F8000
0F8000
0F8000
0F8000
0F8000
0F8000
0F8000
0F8000
0F8000
0F8000
0F8000
0F8000
0F8000
0F8000
0FC000
07E000
07FBC0
03FFC0
01FFC0
00FFC0
000C00
ENDCHAR
STARTCHAR 01AE
ENCODING 430
SWIDTH 540 0
DWIDTH 30 0
BBX 29 53 1 -13
BITMAP
FFFFFFF8
FFFFFFF8
FFFFFFF8
FFFFFFF8
FFFFFFF8
000F8000
000F8000
000F8000
000F8000
000F8000
000F8000
000F8000
000F8000
000F8000
000F8000
000F8000
000F8000
000F8000
000F8000
000F8000
000F8000
000F8000
000F8000
000F8000
000F8000
000F8000
000F8000
000F8000
000F8000
000F8000
000F8000
000F8000
000F8000
000F8000
000F8000
000F8000
000F8000
000F8000
000F8000
000F8000
000F8000
000F8000
000F8000
000F8000
000F8000
000F8000
000F8000
000FC000
000FE000
0007FE00
0007FE00
0003FE00
0001FE00
ENDCHAR
STARTCHAR 01AF
ENCODING 431
SWIDTH 774 0
DWIDTH 43 0
BBX 40 43 5 -1
BITMAP
000000001F
000000001F
F800003E1F
F800003E1F
F800003E3E
F800003E3E
F800003E7C
F800003FFC
F800003FF8
F800003FE0
F800003F80
F800003E00
F800003E00
F800003E00
F800003E00
F800003E00
F800003E00
F800003E00
F800003E00
F800003E00
F800003E00
F800003E00
F800003E00
F800003E00
F800003E00
F800003E00
F800003E00
F800003E00
F800003E00
F800003C00
F800007C00
F800007C00
7C00007C00
7C00007C00
7E0000F800
3F0001F800
3F8003F000
1FE00FF000
0FFFFFE000
07FFFFC000
03FFFF0000
007FFC0000
0005400000
ENDCHAR
STARTCHAR 01B0
ENCODING 432
SWIDTH 666 0
DWIDTH 37 0
BBX 35 35 4 -1
BITMAP
00000003E0
00000003E0
00000003E0
00000007E0
F80007C7C0
F80007C7C0
F80007CF80
F80007FF80
F80007FF00
F80007FC00
F80007F000
F80007C000
F80007C000
F80007C000
F80007C000
F80007C000
F80007C000
F80007C000
F80007C000
F80007C000
F80007C000
F80007C000
F80007C000
F8000FC000
F8000FC000
F8000FC000
7C001FC000
7C001FC000
7E003FC000
7F007FC000
3FFFF7C000
1FFFF7C000
0FFFC7C000
07FF83C000
0070000000
ENDCHAR
STARTCHAR 01B1
ENCODING 433
SWIDTH 774 0
DWIDTH 43 0
BBX 39 41 2 -1
BITMAP
FFFF01FFFE
FFFF01FFFE
FFFF01FFFE
FFFF01FFFE
FFFF00FFFE
007E007C00
00F8003E00
01F0001F00
03E0000F80
07E00007C0
07C00007E0
0F800003E0
0F800001F0
1F000001F0
1F000001F8
3F000000F8
3E000000F8
3E000000F8
3E000000FC
3E000000FC
3E0000007C
3E0000007C
7E0000007C
7E0000007C
3E0000007C
3E000000FC
3E000000FC
3E000000F8
3F000000F8
3F000001F8
1F000001F8
1F800003F0
0FC00003F0
0FE00007E0
07F0001FC0
03FE007F80
01FFFFFF00
00FFFFFE00
003FFFF800
000FFFE000
00007C0000
ENDCHAR
STARTCHAR 01B2
ENCODING 434
SWIDTH 720 0
DWIDTH 40 0
BBX 31 41 5 -1
BITMAP
F8001FE0
F8003FF0
F8003FF8
F8003FFC
F80030FC
F800007C
F800007E
F800003E
F800003E
F800003E
F800003E
F800003E
F800003E
F800003E
F800003E
F800003E
F800003E
F800003E
F800003E
F800003E
F800003E
F800003E
F800003E
F800003E
F800003E
F800003E
F800003E
F800003C
F800007C
F800007C
7C00007C
7C0000FC
7E0000F8
3F0001F8
3F8003F0
1FE00FF0
0FFFFFE0
07FFFFC0
03FFFF00
00FFFC00
00030000
ENDCHAR
STARTCHAR 01B3
ENCODING 435
SWIDTH 576 0
DWIDTH 32 0
BBX 32 40 0 0
BITMAP
FC00007F
7C0000FF
7E0000FF
3E0001FF
3F0001F0
1F0003E0
1F8003E0
0F8007C0
0FC007C0
07C00F80
07E00F80
03E01F80
01F01F00
01F01F00
00F83E00
00F83E00
007C7C00
007C7C00
003EF800
003FF800
001FF000
001FF000
000FE000
000FE000
0007C000
0007C000
0007C000
0007C000
0007C000
0007C000
0007C000
0007C000
0007C000
0007C000
0007C000
0007C000
0007C000
0007C000
0007C000
0007C000
ENDCHAR
STARTCHAR 01B4
ENCODING 436
SWIDTH 540 0
DWIDTH 30 0
BBX 30 43 0 -13
BITMAP
F80000FC
7C0001FC
7C0003FC
7E0003FC
3E0003E0
3E0007C0
1F0007C0
1F000F80
1F000F80
0F800F80
0F801F00
07C01F00
07C01F00
07C03E00
03E03E00
03E03C00
01E07C00
01F07C00
01F07800
00F8F800
00F8F800
0078F000
007DF000
007DE000
003DE000
003FE000
001FC000
001FC000
001FC000
000F8000
000F8000
000F0000
001F0000
001F0000
003E0000
003E0000
007C0000
00FC0000
01F80000
7FF80000
7FF00000
7FE00000
7F800000
ENDCHAR
STARTCHAR 01B5
ENCODING 437
SWIDTH 558 0
DWIDTH 31 0
BBX 28 40 2 0
BITMAP
7FFFFFE0
7FFFFFE0
7FFFFFE0
7FFFFFE0
7FFFFFE0
00000FC0
00000F80
00001F80
00001F00
00003E00
00007E00
00007C00
0000F800
0001F800
0001F000
0003E000
0007E000
3FFFFF80
3FFFFF80
3FFFFF80
3FFFFF80
003F0000
007E0000
007C0000
00FC0000
01F80000
01F00000
03F00000
07E00000
07C00000
0FC00000
1F800000
1F000000
3F000000
7E000000
7C000000
FFFFFFF0
FFFFFFF0
FFFFFFF0
FFFFFFF0
ENDCHAR
STARTCHAR 01B6
ENCODING 438
SWIDTH 468 0
DWIDTH 26 0
BBX 22 30 2 0
BITMAP
7FFFFC
7FFFFC
7FFFFC
7FFFFC
0000F8
0001F0
0003F0
0003E0
0007C0
000FC0
000F80
001F00
003E00
7FFFF8
7FFFF8
7FFFF8
7FFFF8
01F000
03E000
07E000
07C000
0F8000
1F0000
3F0000
3E0000
7C0000
FFFFFC
FFFFFC
FFFFFC
FFFFFC
ENDCHAR
STARTCHAR 01B7
ENCODING 439
SWIDTH 576 0
DWIDTH 32 0
BBX 27 41 2 -1
BITMAP
7FFFFFC0
7FFFFFC0
7FFFFFC0
7FFFFFC0
7FFFFF80
00001F00
00003E00
00007C00
0000F800
0003F000
0007E000
000FC000
001F8000
003F0000
007E0000
00FC0000
01F80000
03F80000
03FFE000
03FFFC00
03FFFE00
001FFF80
00007FC0
00000FC0
000007E0
000007E0
000003E0
000003E0
000003E0
000003E0
000003E0
000003E0
000007E0
00000FC0
C0001FC0
F8007F80
FFFFFF00
FFFFFE00
FFFFFC00
1FFFE000
00140000
ENDCHAR
STARTCHAR 01B8
ENCODING 440
SWIDTH 576 0
DWIDTH 32 0
BBX 28 41 3 -1
BITMAP
3FFFFFC0
3FFFFFC0
3FFFFFC0
3FFFFFC0
3FFFFFC0
1F800000
0FC00000
07E00000
03F00000
01F80000
00FC0000
007E0000
003F0000
001F8000
000FC000
0007E000
00FFE000
03FFE000
0FFFE000
1FFFE000
3FC00000
3F000000
7E000000
7C000000
FC000000
FC000000
F8000000
F8000000
F8000000
F8000000
FC000000
FC000000
7C000000
7E000000
3F000030
3FC001F0
1FFFFFF0
0FFFFFF0
03FFFFE0
00FFFF80
00010000
ENDCHAR
STARTCHAR 01B9
ENCODING 441
SWIDTH 486 0
DWIDTH 27 0
BBX 25 43 2 -13
BITMAP
7FFFFF00
7FFFFF00
7FFFFF00
7FFFFF00
3E000000
1F000000
0F800000
07C00000
03E00000
01F00000
01F80000
00FC0000
007C0000
003E0000
001F0000
000F8000
0007C000
000FE000
00FFE000
03FFE000
0FFFE000
1FF80000
3F800000
3F000000
7E000000
7C000000
F8000000
F8000000
F8000000
F8000000
F8000000
F8000000
F8000000
F8000000
FC000000
7C000000
7E000000
3F000080
1FC00780
1FFFFF80
07FFFF80
03FFFF80
00FFFC00
ENDCHAR
STARTCHAR 01BA
ENCODING 442
SWIDTH 486 0
DWIDTH 27 0
BBX 23 43 2 -13
BITMAP
FFFFF8
FFFFF8
FFFFF8
FFFFF8
0003F8
0007F0
000FC0
001F80
003F00
007E00
00FC00
03F800
07F000
0FFE00
0FFFC0
0FFFF0
0FFFF8
0007F8
0000FC
00007C
00003E
00003E
00003E
00003E
00003E
00003E
00007E
00007C
0000FC
0003F8
07FFF0
3FFFE0
7FFFC0
FFFE00
FC0000
F80000
F00000
F00020
F800E0
FFFFE0
7FFFE0
3FFFE0
0FFF80
ENDCHAR
STARTCHAR 01BB
ENCODING 443
SWIDTH 558 0
DWIDTH 31 0
BBX 26 43 3 0
BITMAP
00100000
03FF8000
0FFFE000
3FFFF000
7FFFF800
FE01F800
7800FC00
30007C00
00007C00
00007E00
00003E00
00003E00
00007E00
00007C00
00007C00
00007C00
0000FC00
0000F800
0001F800
0001F000
7FFFFFC0
7FFFFFC0
7FFFFFC0
7FFFFFC0
001F8000
003F0000
003E0000
007C0000
00FC0000
01F80000
03F00000
03E00000
07C00000
0FC00000
1F800000
3F000000
3E000000
7C000000
F8000000
FFFFFFC0
FFFFFFC0
FFFFFFC0
FFFFFFC0
ENDCHAR
STARTCHAR 01BC
ENCODING 444
SWIDTH 576 0
DWIDTH 32 0
BBX 27 41 2 -1
BITMAP
FFFFFFC0
FFFFFFC0
FFFFFFC0
FFFFFFC0
FFFFFFC0
07C00000
07C00000
07C00000
07C00000
07C00000
07C00000
07C00000
07C00000
07C00000
07C00000
07F80000
07FFE000
07FFF800
07FFFE00
07FFFF00
00007F80
00001FC0
00000FC0
000007E0
000003E0
000003E0
000003E0
000003E0
000003E0
000003E0
000003E0
000007E0
000007E0
00000FC0
C0001FC0
F8007F80
FFFFFF00
FFFFFE00
FFFFF800
1FFFE000
00140000
ENDCHAR
STARTCHAR 01BD
ENCODING 445
SWIDTH 486 0
DWIDTH 27 0
BBX 23 31 2 -1
BITMAP
FFFFF8
FFFFF8
FFFFF8
FFFFF8
0F8000
0F8000
0F8000
0F8000
0F8000
0F8000
0F8000
0FFF00
0FFFE0
0FFFF0
0FFFF8
0003FC
0000FC
00007C
00003E
00003E
00003E
00003E
00003C
00007C
0000FC
E001F8
FFBFF8
FFFFF0
FFFFC0
3FFF00
00E000
ENDCHAR
STARTCHAR 01BE
ENCODING 446
SWIDTH 450 0
DWIDTH 25 0
BBX 21 38 2 -1
BITMAP
00C000
01C000
01C000
01C000
03C000
03C000
03C000
0FFFE0
7FFFE0
FFFFE0
FFFFE0
03C000
03C000
03C000
03C000
03C000
03C000
03E000
03E000
03F000
03FC00
01FF00
00FFC0
007FE0
000FF0
0003F8
0001F8
0000F8
0000F8
0000F8
0000F8
8000F8
E001F0
FF1FF0
FFFFE0
FFFFC0
3FFF00
00C000
ENDCHAR
STARTCHAR 01BF
ENCODING 447
SWIDTH 576 0
DWIDTH 32 0
BBX 25 43 5 -13
BITMAP
F07FC000
F1FFF000
F3FFF800
F7FFFC00
FF80FE00
FE007F00
FC003F00
FC001F00
F8001F80
F8000F80
F8000F80
F8000F80
F8000F80
F8000F80
F8000F80
F8001F80
F8001F00
F8001F00
F8003F00
F8003E00
F8007E00
F800FC00
F801FC00
F803F800
F80FF000
F87FE000
FFFF8000
FFFF0000
FFFC0000
FFE00000
FC000000
F8000000
F8000000
F8000000
F8000000
F8000000
F8000000
F8000000
F8000000
F8000000
F8000000
F8000000
F8000000
ENDCHAR
STARTCHAR 01C0
ENCODING 448
SWIDTH 324 0
DWIDTH 18 0
BBX 5 42 7 0
BITMAP
F8
F8
F8
F8
F8
F8
F8
F8
F8
F8
F8
F8
F8
F8
F8
F8
F8
F8
F8
F8
F8
F8
F8
F8
F8
F8
F8
F8
F8
F8
F8
F8
F8
F8
F8
F8
F8
F8
F8
F8
F8
F8
ENDCHAR
STARTCHAR 01C1
ENCODING 449
SWIDTH 540 0
DWIDTH 30 0
BBX 17 42 7 0
BITMAP
F80F80
F80F80
F80F80
F80F80
F80F80
F80F80
F80F80
F80F80
F80F80
F80F80
F80F80
F80F80
F80F80
F80F80
F80F80
F80F80
F80F80
F80F80
F80F80
F80F80
F80F80
F80F80
F80F80
F80F80
F80F80
F80F80
F80F80
F80F80
F80F80
F80F80
F80F80
F80F80
F80F80
F80F80
F80F80
F80F80
F80F80
F80F80
F80F80
F80F80
F80F80
F80F80
ENDCHAR
STARTCHAR 01C2
ENCODING 450
SWIDTH 504 0
DWIDTH 28 0
BBX 21 42 4 0
BITMAP
00F800
00F800
00F800
00F800
00F800
00F800
00F800
00F800
00F800
00F800
00F800
00F800
00F800
00F800
FFFFF8
FFFFF8
FFFFF8
FFFFF8
00F800
00F800
00F800
00F800
00F800
FFFFF8
FFFFF8
FFFFF8
FFFFF8
00F800
00F800
00F800
00F800
00F800
00F800
00F800
00F800
00F800
00F800
00F800
00F800
00F800
00F800
00F800
ENDCHAR
STARTCHAR 01C3
ENCODING 451
SWIDTH 252 0
DWIDTH 14 0
BBX 7 41 4 -1
BITMAP
7C
7C
7C
7C
7C
7C
7C
7C
7C
7C
7C
7C
7C
7C
7C
7C
7C
7C
7C
7C
78
38
38
38
38
38
38
38
38
00
00
00
00
38
7C
FE
FE
FE
FE
7C
38
ENDCHAR
STARTCHAR 01C4
ENCODING 452
SWIDTH 1278 0
DWIDTH 71 0
BBX 65 52 5 0
BITMAP
00000000003C00F000
00000000001F03E000
00000000000F87C000
000000000007CF8000
000000000003FF0000
000000000003FF0000
000000000001FE0000
000000000000FC0000
000000000000000000
000000000000000000
000000000000000000
000000000000000000
FFFF000003FFFFFF00
FFFFF00003FFFFFF00
FFFFFE0003FFFFFF00
FFFFFF8003FFFFFF00
FFFFFFC003FFFFFF00
F8003FE00000003E00
F8000FF00000007C00
F80003F8000000FC00
F80001F8000000F800
F80000FC000001F000
F800007C000003F000
F800007E000003E000
F800003E000007C000
F800003E00000FC000
F800003F00000F8000
F800001F00001F8000
F800001F00003F0000
F800001F00003E0000
F800001F00007E0000
F800001F0000FC0000
F800001F0000F80000
F800001F0001F80000
F800001F0003F00000
F800001F0003E00000
F800003F0007E00000
F800003F000FC00000
F800003E000F800000
F800003E001F800000
F800007E003F000000
F800007C003E000000
F80000FC007E000000
F80001F800FC000000
F80003F800F8000000
F80007F001F8000000
F8003FE003F0000000
F803FFC003E0000000
FFFFFF8007FFFFFF80
FFFFFE0007FFFFFF80
FFFFF80007FFFFFF80
FFFF800007FFFFFF80
ENDCHAR
STARTCHAR 01C5
ENCODING 453
SWIDTH 1188 0
DWIDTH 66 0
BBX 60 43 5 0
BITMAP
0000000001E003C0
0000000000F007C0
0000000000F80F80
FFFF0000007C1F00
FFFFF000003E3E00
FFFFFE00001F7C00
FFFFFF80000FF800
FFFFFFC00007F000
F8003FE00003F000
F8000FF000000000
F80003F800000000
F80001F800000000
F80000FC00000000
F800007C01FFFFE0
F800007E01FFFFE0
F800003E01FFFFE0
F800003E01FFFFE0
F800003F000007E0
F800001F000007C0
F800001F00000F80
F800001F00001F80
F800001F00001F00
F800001F00003E00
F800001F00007C00
F800001F0000FC00
F800001F0000F800
F800001F0001F000
F800003F0003F000
F800003F0003E000
F800003E0007C000
F800003E000FC000
F800007E000F8000
F800007C001F0000
F80000FC003E0000
F80001F8007E0000
F80003F8007C0000
F80007F000F80000
F8003FE001F80000
F803FFC001F00000
FFFFFF8003FFFFF0
FFFFFE0003FFFFF0
FFFFF80003FFFFF0
FFFF800003FFFFF0
ENDCHAR
STARTCHAR 01C6
ENCODING 454
SWIDTH 1080 0
DWIDTH 60 0
BBX 55 44 3 -1
BITMAP
000000001C003C
000003C01F0078
000003C00F81F0
000003C007C3E0
000003C003E7C0
000003C001FFC0
000003C000FF80
000003C000FF00
000003C0007E00
000003C0000000
000003C0000000
000003C0000000
000003C0000000
00FF83C03FFFFE
03FFE3C03FFFFE
0FFFF3C03FFFFE
1FFFFBC03FFFFE
1FC07FC000007C
3F001FC00000FC
3E000FC00000F8
7E000FC00001F0
7C0007C00003E0
7C0007C00007E0
FC0007C00007C0
F80007C0000F80
F80007C0001F80
F80003C0001F00
F80003C0003E00
F80003C0007E00
F80003C0007C00
F80003C000F800
F80007C001F000
F80007C003F000
7C0007C003E000
7C0007C007C000
7C000FC00FC000
7E000FC00F8000
3F001FC01F0000
3F803FC03E0000
1FFFFBC03FFFFE
0FFFF3C07FFFFE
07FFE3C07FFFFE
01FF83C07FFFFE
00080000000000
ENDCHAR
STARTCHAR 01C7
ENCODING 455
SWIDTH 792 0
DWIDTH 44 0
BBX 34 51 5 -11
BITMAP
F8000007C0
F8000007C0
F8000007C0
F8000007C0
F8000007C0
F8000007C0
F8000007C0
F8000007C0
F8000007C0
F8000007C0
F8000007C0
F8000007C0
F8000007C0
F8000007C0
F8000007C0
F8000007C0
F8000007C0
F8000007C0
F8000007C0
F8000007C0
F8000007C0
F8000007C0
F8000007C0
F8000007C0
F8000007C0
F8000007C0
F8000007C0
F8000007C0
F8000007C0
F8000007C0
F8000007C0
F8000007C0
F8000007C0
F8000007C0
F8000007C0
F8000007C0
FFFFFE07C0
FFFFFE07C0
FFFFFE07C0
FFFFFE07C0
00000007C0
00000007C0
00000007C0
00000007C0
0000000F80
0000001F80
00000FFF80
00000FFF00
00000FFE00
00000FF800
0000018000
ENDCHAR
STARTCHAR 01C8
ENCODING 456
SWIDTH 774 0
DWIDTH 43 0
BBX 34 54 5 -13
BITMAP
0000000380
F8000007C0
F800000FC0
F800000FC0
F8000007C0
F800000780
F800000000
F800000000
F800000000
F800000000
F800000000
F8000007C0
F8000007C0
F8000007C0
F8000007C0
F8000007C0
F8000007C0
F8000007C0
F8000007C0
F8000007C0
F8000007C0
F8000007C0
F8000007C0
F8000007C0
F8000007C0
F8000007C0
F8000007C0
F8000007C0
F8000007C0
F8000007C0
F8000007C0
F8000007C0
F8000007C0
F8000007C0
F8000007C0
F8000007C0
F8000007C0
FFFFFE07C0
FFFFFE07C0
FFFFFE07C0
FFFFFE07C0
00000007C0
00000007C0
00000007C0
00000007C0
00000007C0
00000007C0
00000007C0
0000000F80
0000001F80
000007FF80
000007FF00
000007FE00
000007FC00
ENDCHAR
STARTCHAR 01C9
ENCODING 457
SWIDTH 504 0
DWIDTH 28 0
BBX 19 55 5 -13
BITMAP
F80000
F801C0
F803E0
F803E0
F803E0
F803E0
F803E0
F80000
F80000
F80000
F80000
F80000
F803E0
F803E0
F803E0
F803E0
F803E0
F803E0
F803E0
F803E0
F803E0
F803E0
F803E0
F803E0
F803E0
F803E0
F803E0
F803E0
F803E0
F803E0
F803E0
F803E0
F803E0
F803E0
F803E0
F803E0
F803E0
F803E0
F803E0
F803E0
F803E0
F803E0
0003E0
0003E0
0003E0
0003E0
0003E0
0003E0
0003E0
0007E0
0007C0
03FFC0
03FF80
03FF00
03FE00
ENDCHAR
STARTCHAR 01CA
ENCODING 458
SWIDTH 1026 0
DWIDTH 57 0
BBX 47 51 5 -11
BITMAP
FC00001F003E
FE00001F003E
FF00001F003E
FF00001F003E
FF80001F003E
FFC0001F003E
FFC0001F003E
FFE0001F003E
FBE0001F003E
FBF0001F003E
F9F8001F003E
F8F8001F003E
F8FC001F003E
F87E001F003E
F83E001F003E
F83F001F003E
F81F801F003E
F80F801F003E
F80FC01F003E
F807E01F003E
F807E01F003E
F803F01F003E
F801F01F003E
F801F81F003E
F800FC1F003E
F8007C1F003E
F8007E1F003E
F8003F1F003E
F8001F1F003E
F8001F9F003E
F8000FDF003E
F80007DF003E
F80007EF003E
F80003FF003E
F80003FF003E
F80001FF003E
F80000FF003E
F80000FF003E
F800007F003E
F800003F003E
00000000003E
00000000003E
00000000003E
00000000003E
00000000007E
0000000000FC
000000007FFC
000000007FF8
000000007FF0
000000007FC0
000000000E00
ENDCHAR
STARTCHAR 01CB
ENCODING 459
SWIDTH 1008 0
DWIDTH 56 0
BBX 47 54 5 -13
BITMAP
00000000001C
FC00001F003E
FE00001F003E
FF00001F003E
FF00001F003E
FF80001F003C
FFC0001F0000
FFC0001F0000
FFE0001F0000
FBE0001F0000
FBF0001F0000
F9F8001F003E
F8F8001F003E
F8FC001F003E
F87E001F003E
F83E001F003E
F83F001F003E
F81F801F003E
F80F801F003E
F80FC01F003E
F807E01F003E
F807E01F003E
F803F01F003E
F801F01F003E
F801F81F003E
F800FC1F003E
F8007C1F003E
F8007E1F003E
F8003F1F003E
F8001F1F003E
F8001F9F003E
F8000FDF003E
F80007DF003E
F80007EF003E
F80003FF003E
F80003FF003E
F80001FF003E
F80000FF003E
F80000FF003E
F800007F003E
F800003F003E
00000000003E
00000000003E
00000000003E
00000000003E
00000000003E
00000000003E
00000000003E
00000000007E
0000000000FC
000000003FFC
000000003FF8
000000003FF0
000000003FE0
ENDCHAR
STARTCHAR 01CC
ENCODING 460
SWIDTH 864 0
DWIDTH 48 0
BBX 39 54 5 -13
BITMAP
000000001C
000000003E
000000003E
000000003E
000000003E
000000003E
0000000000
0000000000
0000000000
0000000000
0000000000
F07FE0003E
F1FFF8003E
F3FFFC003E
F7FFFE003E
FF807F003E
FE003F003E
FE001F003E
FC001F803E
FC000F803E
F8000F803E
F8000F803E
F8000F803E
F8000F803E
F8000F803E
F8000F803E
F8000F803E
F8000F803E
F8000F803E
F8000F803E
F8000F803E
F8000F803E
F8000F803E
F8000F803E
F8000F803E
F8000F803E
F8000F803E
F8000F803E
F8000F803E
F8000F803E
F8000F803E
000000003E
000000003E
000000003E
000000003E
000000003E
000000003E
000000003E
000000007E
000000007C
0000003FFC
0000003FF8
0000003FF0
0000003FE0
ENDCHAR
STARTCHAR 01CD
ENCODING 461
SWIDTH 630 0
DWIDTH 35 0
BBX 35 52 0 0
BITMAP
00F803E000
007C07C000
003E0F8000
001F1F0000
000FBE0000
0007FC0000
0003F80000
0001F80000
0000000000
0000000000
0000000000
0000000000
0001F00000
0001F80000
0001F80000
0003F80000
0003FC0000
0007FC0000
0007BC0000
0007BE0000
000F9E0000
000F9F0000
001F1F0000
001F0F0000
001F0F8000
003E0F8000
003E07C000
003C07C000
007C07C000
007C03E000
00F803E000
00F801F000
00F801F000
01F001F000
01F000F800
03FFFFF800
03FFFFF800
03FFFFFC00
07FFFFFC00
07FFFFFE00
0F80003E00
0F80003E00
0F80001F00
1F00001F00
1F00001F80
1F00000F80
3E00000F80
3E000007C0
7C000007C0
7C000007C0
7C000003E0
F8000003E0
ENDCHAR
STARTCHAR 01CE
ENCODING 462
SWIDTH 558 0
DWIDTH 31 0
BBX 24 44 3 -1
BITMAP
1E003C
0F007C
0F80F8
07C1F0
03E3E0
01F7C0
00FF80
007F00
003F00
000000
000000
000000
000000
01FFC0
0FFFF0
1FFFF8
1FFFFC
0F00FE
08003E
00003E
00001F
00001F
00001F
00001F
00001F
003FFF
03FFFF
0FFFFF
3FFF9F
7F801F
7E001F
FC001F
F8001F
F8001F
F8003F
F8003F
F8007F
F800FF
FC01FF
7F8FDF
7FFF8F
3FFF0F
0FFE0F
01C000
ENDCHAR
STARTCHAR 01CF
ENCODING 463
SWIDTH 324 0
DWIDTH 18 0
BBX 19 52 0 0
BITMAP
F803E0
7C07C0
3E0F80
1F1F00
0FFE00
07FC00
03F800
03F000
000000
000000
000000
000000
3FFF80
3FFF80
3FFF80
1FFE00
01F000
01F000
01F000
01F000
01F000
01F000
01F000
01F000
01F000
01F000
01F000
01F000
01F000
01F000
01F000
01F000
01F000
01F000
01F000
01F000
01F000
01F000
01F000
01F000
01F000
01F000
01F000
01F000
01F000
01F000
01F000
01F000
07FC00
3FFF80
3FFF80
3FFF80
ENDCHAR
STARTCHAR 01D0
ENCODING 464
SWIDTH 252 0
DWIDTH 14 0
BBX 19 43 -2 0
BITMAP
E001E0
F803C0
7C0F80
3E1F00
1F3E00
0FFE00
07FC00
07F800
03F000
000000
000000
000000
000000
01F000
01F000
01F000
01F000
01F000
01F000
01F000
01F000
01F000
01F000
01F000
01F000
01F000
01F000
01F000
01F000
01F000
01F000
01F000
01F000
01F000
01F000
01F000
01F000
01F000
01F000
01F000
01F000
01F000
01F000
ENDCHAR
STARTCHAR 01D1
ENCODING 465
SWIDTH 774 0
DWIDTH 43 0
BBX 37 53 3 -1
BITMAP
003C01F000
003E03E000
001F07C000
000F8F8000
0007DF0000
0003FE0000
0001FC0000
0000FC0000
0000000000
0000000000
0000000000
0000000000
0007FF8000
003FFFE000
00FFFFF800
01FFFFFE00
03FE03FF00
07F0007F80
0FE0001F80
1FC0000FC0
1F800007E0
3F000007E0
3F000003E0
3E000003F0
7E000001F0
7C000001F0
7C000001F0
7C000001F8
7C000000F8
FC000000F8
FC000000F8
FC000000F8
FC000000F8
FC000000F8
FC000000F8
7C000000F8
7C000001F8
7C000001F8
7C000001F0
7E000001F0
3E000003F0
3E000003E0
3F000007E0
1F800007E0
1F80000FC0
0FC0001F80
07F0003F80
07FC00FF00
03FFFFFE00
00FFFFFC00
007FFFF000
000FFFC000
0000300000
ENDCHAR
STARTCHAR 01D2
ENCODING 466
SWIDTH 594 0
DWIDTH 33 0
BBX 28 44 3 -1
BITMAP
0F000E00
07803E00
03E07C00
01F0F800
00F9F000
00FFE000
007FC000
003F8000
001F8000
00000000
00000000
00000000
00000000
007FE000
03FFF800
07FFFE00
0FFFFF00
1FC03F00
3F001F80
3E000FC0
7E0007C0
7C0007E0
7C0003E0
FC0003E0
F80003E0
F80003E0
F80003F0
F80001F0
F80001F0
F80003F0
F80003E0
F80003E0
FC0003E0
7C0003E0
7C0007E0
7E0007C0
3E000FC0
3F000F80
1F803F80
0FFFFF00
07FFFE00
03FFF800
00FFF000
00040000
ENDCHAR
STARTCHAR 01D3
ENCODING 467
SWIDTH 720 0
DWIDTH 40 0
BBX 31 53 5 -1
BITMAP
03E00F80
01F01F00
00F87E00
007CFC00
003FF800
001FF000
001FE000
000FC000
00000000
00000000
00000000
00000000
F800003E
F800003E
F800003E
F800003E
F800003E
F800003E
F800003E
F800003E
F800003E
F800003E
F800003E
F800003E
F800003E
F800003E
F800003E
F800003E
F800003E
F800003E
F800003E
F800003E
F800003E
F800003E
F800003E
F800003E
F800003E
F800003E
F800003E
F800003C
F800007C
F800007C
7C00007C
7C0000FC
7E0000F8
3F0001F8
3F8003F0
1FE00FF0
0FFFFFE0
07FFFFC0
03FFFF00
00FFFC00
00030000
ENDCHAR
STARTCHAR 01D4
ENCODING 468
SWIDTH 612 0
DWIDTH 34 0
BBX 26 44 4 -1
BITMAP
0E001E00
0F803C00
07C0F800
03E1F000
01F3E000
00FFE000
007FC000
007F8000
003F0000
00000000
00000000
00000000
00000000
F80007C0
F80007C0
F80007C0
F80007C0
F80007C0
F80007C0
F80007C0
F80007C0
F80007C0
F80007C0
F80007C0
F80007C0
F80007C0
F80007C0
F80007C0
F80007C0
F80007C0
F80007C0
F80007C0
F8000FC0
F8000FC0
F8000FC0
7C001FC0
7C001FC0
7E003FC0
7F007FC0
3FFFF7C0
1FFFF7C0
0FFFC7C0
07FF83C0
00380000
ENDCHAR
STARTCHAR 01D5
ENCODING 469
SWIDTH 720 0
DWIDTH 40 0
BBX 31 57 5 -1
BITMAP
01FFFF00
01FFFF00
01FFFF00
01FFFF00
00000000
00000000
00000000
00601C00
00F03E00
00F83E00
00F83E00
00F03E00
00601C00
00000000
00000000
00000000
F800003E
F800003E
F800003E
F800003E
F800003E
F800003E
F800003E
F800003E
F800003E
F800003E
F800003E
F800003E
F800003E
F800003E
F800003E
F800003E
F800003E
F800003E
F800003E
F800003E
F800003E
F800003E
F800003E
F800003E
F800003E
F800003E
F800003E
F800003C
F800007C
F800007C
7C00007C
7C0000FC
7E0000F8
3F0001F8
3F8003F0
1FE00FF0
0FFFFFE0
07FFFFC0
03FFFF00
00FFFC00
00030000
ENDCHAR
STARTCHAR 01D6
ENCODING 470
SWIDTH 612 0
DWIDTH 34 0
BBX 26 47 4 -1
BITMAP
07FFF800
07FFF800
07FFF800
07FFF800
00000000
00000000
00000000
01807000
03C0F800
07C0F800
07C0F800
03C0F800
01806000
00000000
00000000
00000000
F80007C0
F80007C0
F80007C0
F80007C0
F80007C0
F80007C0
F80007C0
F80007C0
F80007C0
F80007C0
F80007C0
F80007C0
F80007C0
F80007C0
F80007C0
F80007C0
F80007C0
F80007C0
F80007C0
F8000FC0
F8000FC0
F8000FC0
7C001FC0
7C001FC0
7E003FC0
7F007FC0
3FFFF7C0
1FFFF7C0
0FFFC7C0
07FF83C0
00380000
ENDCHAR
STARTCHAR 01D7
ENCODING 471
SWIDTH 720 0
DWIDTH 40 0
BBX 31 59 5 -1
BITMAP
00007E00
00007E00
0000FC00
0001F800
0003F000
0003C000
00078000
000F0000
00000000
00601C00
00F03E00
00F83E00
00F83E00
00F03E00
00601C00
00000000
00000000
00000000
F800003E
F800003E
F800003E
F800003E
F800003E
F800003E
F800003E
F800003E
F800003E
F800003E
F800003E
F800003E
F800003E
F800003E
F800003E
F800003E
F800003E
F800003E
F800003E
F800003E
F800003E
F800003E
F800003E
F800003E
F800003E
F800003E
F800003E
F800003C
F800007C
F800007C
7C00007C
7C0000FC
7E0000F8
3F0001F8
3F8003F0
1FE00FF0
0FFFFFE0
07FFFFC0
03FFFF00
00FFFC00
00030000
ENDCHAR
STARTCHAR 01D8
ENCODING 472
SWIDTH 612 0
DWIDTH 34 0
BBX 26 49 4 -1
BITMAP
0001F800
0003F000
0003E000
0007C000
000F8000
001F0000
001E0000
003C0000
00000000
01807000
03C0F800
07C0F800
07C0F800
03C0F800
01806000
00000000
00000000
00000000
F80007C0
F80007C0
F80007C0
F80007C0
F80007C0
F80007C0
F80007C0
F80007C0
F80007C0
F80007C0
F80007C0
F80007C0
F80007C0
F80007C0
F80007C0
F80007C0
F80007C0
F80007C0
F80007C0
F8000FC0
F8000FC0
F8000FC0
7C001FC0
7C001FC0
7E003FC0
7F007FC0
3FFFF7C0
1FFFF7C0
0FFFC7C0
07FF83C0
00380000
ENDCHAR
STARTCHAR 01D9
ENCODING 473
SWIDTH 720 0
DWIDTH 40 0
BBX 31 60 5 -1
BITMAP
03C00780
01E01F00
00F83E00
007C7C00
003FF800
003FF000
001FE000
000FC000
0007C000
00000000
00601C00
00F03E00
00F83E00
00F83E00
00F03E00
00601C00
00000000
00000000
00000000
F800003E
F800003E
F800003E
F800003E
F800003E
F800003E
F800003E
F800003E
F800003E
F800003E
F800003E
F800003E
F800003E
F800003E
F800003E
F800003E
F800003E
F800003E
F800003E
F800003E
F800003E
F800003E
F800003E
F800003E
F800003E
F800003E
F800003E
F800003C
F800007C
F800007C
7C00007C
7C0000FC
7E0000F8
3F0001F8
3F8003F0
1FE00FF0
0FFFFFE0
07FFFFC0
03FFFF00
00FFFC00
00030000
ENDCHAR
STARTCHAR 01DA
ENCODING 474
SWIDTH 612 0
DWIDTH 34 0
BBX 26 50 4 -1
BITMAP
0F003E00
0F807C00
07E1F800
03F3F000
01FFE000
00FFC000
007F8000
003F0000
00000000
00000000
01807000
03C0F800
07C0F800
07C0F800
03C0F800
01806000
00000000
00000000
00000000
F80007C0
F80007C0
F80007C0
F80007C0
F80007C0
F80007C0
F80007C0
F80007C0
F80007C0
F80007C0
F80007C0
F80007C0
F80007C0
F80007C0
F80007C0
F80007C0
F80007C0
F80007C0
F80007C0
F8000FC0
F8000FC0
F8000FC0
7C001FC0
7C001FC0
7E003FC0
7F007FC0
3FFFF7C0
1FFFF7C0
0FFFC7C0
07FF83C0
00380000
ENDCHAR
STARTCHAR 01DB
ENCODING 475
SWIDTH 720 0
DWIDTH 40 0
BBX 31 59 5 -1
BITMAP
01F80000
00FC0000
007E0000
003E0000
001F0000
000F8000
0007C000
0001C000
00000000
00601C00
00F03E00
00F83E00
00F83E00
00F03E00
00601C00
00000000
00000000
00000000
F800003E
F800003E
F800003E
F800003E
F800003E
F800003E
F800003E
F800003E
F800003E
F800003E
F800003E
F800003E
F800003E
F800003E
F800003E
F800003E
F800003E
F800003E
F800003E
F800003E
F800003E
F800003E
F800003E
F800003E
F800003E
F800003E
F800003E
F800003C
F800007C
F800007C
7C00007C
7C0000FC
7E0000F8
3F0001F8
3F8003F0
1FE00FF0
0FFFFFE0
07FFFFC0
03FFFF00
00FFFC00
00030000
ENDCHAR
STARTCHAR 01DC
ENCODING 476
SWIDTH 612 0
DWIDTH 34 0
BBX 26 49 4 -1
BITMAP
07E00000
03F00000
01F80000
00F80000
007C0000
003E0000
001F0000
00070000
00000000
01807000
03C0F800
07C0F800
07C0F800
03C0F800
01806000
00000000
00000000
00000000
F80007C0
F80007C0
F80007C0
F80007C0
F80007C0
F80007C0
F80007C0
F80007C0
F80007C0
F80007C0
F80007C0
F80007C0
F80007C0
F80007C0
F80007C0
F80007C0
F80007C0
F80007C0
F80007C0
F8000FC0
F8000FC0
F8000FC0
7C001FC0
7C001FC0
7E003FC0
7F007FC0
3FFFF7C0
1FFFF7C0
0FFFC7C0
07FF83C0
00380000
ENDCHAR
STARTCHAR 01DD
ENCODING 477
SWIDTH 558 0
DWIDTH 31 0
BBX 25 31 3 -1
BITMAP
0FFF0000
7FFFE000
7FFFF000
7FFFF800
7801FC00
40007E00
00003E00
00003F00
00001F00
00001F80
00000F80
00000F80
00000F80
00000F80
FFFFFF80
FFFFFF80
FFFFFF80
FFFFFF80
F8000F80
F8000F80
F8000F80
F8001F00
7C001F00
7C003F00
7E007E00
3F00FC00
1FE7FC00
0FFFF800
07FFE000
01FF8000
00280000
ENDCHAR
STARTCHAR 01DE
ENCODING 478
SWIDTH 630 0
DWIDTH 35 0
BBX 35 56 0 0
BITMAP
007FFFC000
007FFFC000
007FFFC000
007FFFC000
0000000000
0000000000
0000000000
001C030000
003E078000
003E0F8000
003E0F8000
003E078000
001C030000
0000000000
0000000000
0000000000
0001F00000
0001F80000
0001F80000
0003F80000
0003FC0000
0007FC0000
0007BC0000
0007BE0000
000F9E0000
000F9F0000
001F1F0000
001F0F0000
001F0F8000
003E0F8000
003E07C000
003C07C000
007C07C000
007C03E000
00F803E000
00F801F000
00F801F000
01F001F000
01F000F800
03FFFFF800
03FFFFF800
03FFFFFC00
07FFFFFC00
07FFFFFE00
0F80003E00
0F80003E00
0F80001F00
1F00001F00
1F00001F80
1F00000F80
3E00000F80
3E000007C0
7C000007C0
7C000007C0
7C000003E0
F8000003E0
ENDCHAR
STARTCHAR 01DF
ENCODING 479
SWIDTH 558 0
DWIDTH 31 0
BBX 24 47 3 -1
BITMAP
0FFFF8
0FFFF8
0FFFF8
0FFFF8
000000
000000
000000
0380E0
07C1F0
07C1F0
07C1F0
07C0F0
010040
000000
000000
000000
01FFC0
0FFFF0
1FFFF8
1FFFFC
0F00FE
08003E
00003E
00001F
00001F
00001F
00001F
00001F
003FFF
03FFFF
0FFFFF
3FFF9F
7F801F
7E001F
FC001F
F8001F
F8001F
F8003F
F8003F
F8007F
F800FF
FC01FF
7F8FDF
7FFF8F
3FFF0F
0FFE0F
01C000
ENDCHAR
STARTCHAR 01E0
ENCODING 480
SWIDTH 630 0
DWIDTH 35 0
BBX 35 56 0 0
BITMAP
007FFFC000
007FFFC000
007FFFC000
007FFFC000
0000000000
0000000000
0000000000
0000E00000
0001F00000
0001F80000
0001F80000
0001F00000
0000F00000
0000000000
0000000000
0000000000
0001F00000
0001F80000
0001F80000
0003F80000
0003FC0000
0007FC0000
0007BC0000
0007BE0000
000F9E0000
000F9F0000
001F1F0000
001F0F0000
001F0F8000
003E0F8000
003E07C000
003C07C000
007C07C000
007C03E000
00F803E000
00F801F000
00F801F000
01F001F000
01F000F800
03FFFFF800
03FFFFF800
03FFFFFC00
07FFFFFC00
07FFFFFE00
0F80003E00
0F80003E00
0F80001F00
1F00001F00
1F00001F80
1F00000F80
3E00000F80
3E000007C0
7C000007C0
7C000007C0
7C000003E0
F8000003E0
ENDCHAR
STARTCHAR 01E1
ENCODING 481
SWIDTH 558 0
DWIDTH 31 0
BBX 24 48 3 -1
BITMAP
0FFFF8
0FFFF8
0FFFF8
0FFFF8
000000
000000
000000
001C00
003E00
003E00
003E00
003E00
003E00
000000
000000
000000
000000
01FFC0
0FFFF0
1FFFF8
1FFFFC
0F00FE
08003E
00003E
00001F
00001F
00001F
00001F
00001F
003FFF
03FFFF
0FFFFF
3FFF9F
7F801F
7E001F
FC001F
F8001F
F8001F
F8003F
F8003F
F8007F
F800FF
FC01FF
7F8FDF
7FFF8F
3FFF0F
0FFE0F
01C000
ENDCHAR
STARTCHAR 01E2
ENCODING 482
SWIDTH 864 0
DWIDTH 48 0
BBX 46 48 0 0
BITMAP
00001FFFF000
00001FFFF000
00001FFFF000
00001FFFF000
000000000000
000000000000
000000000000
000000000000
00001FFFFFFC
00003FFFFFFC
00003FFFFFFC
00007FFFFFFC
00007FFFFFFC
0000F87C0000
0000F87C0000
0001F07C0000
0001F07C0000
0003F07C0000
0003E07C0000
0007E07C0000
0007C07C0000
0007C07C0000
000F807C0000
000F807C0000
001F007C0000
001F007FFFF8
003E007FFFF8
003E007FFFF8
007C007FFFF8
007C007C0000
00F8007C0000
00FFFFFC0000
01FFFFFC0000
01FFFFFC0000
03FFFFFC0000
03FFFFFC0000
07E0007C0000
07C0007C0000
0FC0007C0000
0F80007C0000
1F80007C0000
1F00007C0000
1F00007C0000
3E00007C0000
3E00007FFFFC
7C00007FFFFC
7C00007FFFFC
F800007FFFFC
ENDCHAR
STARTCHAR 01E3
ENCODING 483
SWIDTH 864 0
DWIDTH 48 0
BBX 42 39 3 -1
BITMAP
0007FFFC0000
0007FFFC0000
0007FFFC0000
0007FFFC0000
000000000000
000000000000
000000000000
000000000000
01FF803FE000
0FFFE0FFF800
3FFFF1FFFC00
1FFFFBFFFE00
1E00FFE03F00
18007FC01F00
00007F800F80
00003F000F80
00003F0007C0
00003F0007C0
00003E0007C0
00003E0007C0
003FFFFFFFC0
03FFFFFFFFC0
1FFFFFFFFFC0
3FFF3FFFFFC0
7F003E000000
7C003E000000
FC003E000000
F8003E000000
F8003F000000
F8003F000000
F8007F000000
F8007F800000
F800FFC00080
FC03E7F00380
7F9FE3FFFF80
7FFFC1FFFF80
3FFF00FFFF80
0FFE003FFE00
01C000010000
ENDCHAR
STARTCHAR 01E4
ENCODING 484
SWIDTH 720 0
DWIDTH 40 0
BBX 37 41 3 -1
BITMAP
0001FFF000
000FFFFE00
003FFFFF80
00FFFFFF00
01FF80FF00
03FC000E00
07F0000000
0FC0000000
1F80000000
1F00000000
3F00000000
3E00000000
3E00000000
7E00000000
7C00000000
7C00000000
7C00000000
FC00000000
FC000FFF80
FC000FFF80
FC000FFF80
FC000FFF80
FC000FFF80
7C00000F80
7C00000F80
7C00000F80
7C00000F80
7E000FFFF8
7E000FFFF8
3E000FFFF8
3F000FFFF8
1F80000F80
1FC0000F80
0FE0000F80
07F0000F80
07FE001F80
01FFFFFF80
00FFFFFF80
003FFFFF80
000FFFF800
0000180000
ENDCHAR
STARTCHAR 01E5
ENCODING 485
SWIDTH 612 0
DWIDTH 34 0
BBX 30 43 3 -13
BITMAP
00FF83C0
03FFE3C0
0FFFF3C0
1FFFFBC0
1FC07FC0
3F001FC0
3E000FC0
7E000FC0
7C0007C0
7C0007C0
F80007C0
F80007C0
F80003C0
F80003C0
F80003C0
F80003C0
F80003C0
F80003C0
FC0007C0
7C0007C0
7C0007C0
7E000FC0
3E000FC0
3F001FC0
1FC07FC0
0FFFFBC0
07FFF3C0
03FFC3C0
00FF03C0
000003C0
000003C0
000003C0
000FFFFC
000FFFFC
000FFFFC
000FFFFC
00000FC0
30000F80
3E003F80
3FFFFF00
3FFFFE00
1FFFFC00
07FFE000
ENDCHAR
STARTCHAR 01E6
ENCODING 486
SWIDTH 720 0
DWIDTH 40 0
BBX 33 53 3 -1
BITMAP
003E00F800
001F01F000
000F83E000
0007C7C000
0003EF8000
0001FF0000
0000FE0000
0000FC0000
0000000000
0000000000
0000000000
0000000000
0001FFF000
000FFFFE00
003FFFFF80
00FFFFFF00
01FF807F00
03FC000E00
07F0000000
0FE0000000
1FC0000000
1F80000000
3F00000000
3E00000000
7E00000000
7E00000000
7C00000000
7C00000000
7C00000000
FC00000000
FC00000000
FC000FFF80
FC000FFF80
FC000FFF80
FC000FFF80
7C000FFF80
7C00000F80
7C00000F80
7C00000F80
7E00000F80
3E00000F80
3F00000F80
3F00000F80
1F80000F80
1FC0000F80
0FE0000F80
07F0000F80
03FE001F80
01FFFFFF80
00FFFFFF80
003FFFFF80
000FFFFC00
0000380000
ENDCHAR
STARTCHAR 01E7
ENCODING 487
SWIDTH 612 0
DWIDTH 34 0
BBX 26 56 3 -13
BITMAP
0F001E00
0F803E00
07C07C00
03E0F800
01F3F000
00FFE000
007FC000
003F8000
003F0000
00000000
00000000
00000000
00000000
00FF83C0
03FFE3C0
07FFF3C0
0FFFFBC0
1FC07FC0
3F001FC0
3E000FC0
7E000FC0
7C0007C0
7C0007C0
FC0007C0
F80007C0
F80003C0
F80003C0
F80003C0
F80003C0
F80003C0
F80003C0
F80003C0
F80007C0
7C0007C0
7C0007C0
7C0007C0
3E000FC0
3F001FC0
1F803FC0
1FF3FBC0
0FFFF3C0
07FFE3C0
01FFC3C0
000803C0
000003C0
000007C0
000007C0
000007C0
000007C0
00000FC0
30001F80
3E007F80
3FFFFF00
3FFFFE00
1FFFF800
07FFE000
ENDCHAR
STARTCHAR 01E8
ENCODING 488
SWIDTH 612 0
DWIDTH 34 0
BBX 29 52 5 0
BITMAP
07803E00
03C07C00
01F0F800
01F9F000
00FFE000
007FC000
003FC000
001F8000
00000000
00000000
00000000
00000000
F80001F8
F80003F0
F80007E0
F8000FC0
F8001F80
F8003F00
F8007E00
F8007C00
F800F800
F801F000
F803F000
F807E000
F80FC000
F81F8000
F83F0000
F87E0000
F8FC0000
F9F80000
F9FC0000
FBFC0000
FFFE0000
FFBF0000
FF1F8000
FE1F8000
FC0FC000
F807E000
F807F000
F803F000
F801F800
F800FC00
F800FC00
F8007E00
F8003F00
F8001F80
F8001F80
F8000FC0
F80007E0
F80003F0
F80003F0
F80001F8
ENDCHAR
STARTCHAR 01E9
ENCODING 489
SWIDTH 522 0
DWIDTH 29 0
BBX 31 55 -2 0
BITMAP
F003E000
F807C000
7C0F8000
3E1F0000
1F3E0000
0FFC0000
07F80000
03F00000
03F00000
00000000
00000000
00000000
00000000
01F00000
01F00000
01F00000
01F00000
01F00000
01F00000
01F00000
01F00000
01F00000
01F00000
01F00000
01F00000
01F000FC
01F001F8
01F003F0
01F007E0
01F007C0
01F00F80
01F01F00
01F03E00
01F07E00
01F0FC00
01F1F800
01F3F000
01E7E000
01EFE000
01EFE000
01FFF000
01FFF800
01F8FC00
01F07C00
01F07E00
01F03F00
01F01F80
01F00FC0
01F00FC0
01F007E0
01F003F0
01F001F8
01F001F8
01F000FC
01F0007E
ENDCHAR
STARTCHAR 01EA
ENCODING 490
SWIDTH 774 0
DWIDTH 43 0
BBX 37 52 3 -12
BITMAP
0007FF8000
003FFFE000
00FFFFF800
01FFFFFE00
03FE03FF00
07F0007F80
0FE0001F80
1FC0000FC0
1F800007E0
3F000007E0
3F000003E0
3E000003F0
7E000001F0
7C000001F0
7C000001F0
7C000001F8
7C000000F8
FC000000F8
FC000000F8
FC000000F8
FC000000F8
FC000000F8
FC000000F8
7C000000F8
7C000001F8
7C000001F8
7C000001F0
7E000001F0
3E000003F0
3E000003E0
3F000007E0
1F800007E0
1F80000FC0
0FC0001F80
07F0003F80
07FC00FF00
03FFFFFE00
00FFFFFC00
007FFFF000
000FFFC000
00003C0000
0000780000
0000F00000
0000E00000
0001E00000
0001E00000
0001E00000
0001E00000
0001E00000
0001FF0000
0000FF0000
00007F0000
ENDCHAR
STARTCHAR 01EB
ENCODING 491
SWIDTH 594 0
DWIDTH 33 0
BBX 28 42 3 -12
BITMAP
007FE000
03FFF800
07FFFE00
0FFFFF00
1FC03F00
3F001F80
3E000FC0
7E0007C0
7C0007E0
7C0003E0
FC0003E0
F80003E0
F80003E0
F80003F0
F80001F0
F80001F0
F80003F0
F80003E0
F80003E0
FC0003E0
7C0003E0
7C0007E0
7E0007C0
3E000FC0
3F000F80
1F803F80
0FFFFF00
07FFFE00
03FFF800
00FFF000
00078000
000F0000
001E0000
001E0000
003C0000
003C0000
003C0000
003C0000
003E0000
003FE000
001FE000
000FE000
ENDCHAR
STARTCHAR 01EC
ENCODING 492
SWIDTH 774 0
DWIDTH 43 0
BBX 37 60 3 -12
BITMAP
003FFFE000
003FFFE000
003FFFE000
003FFFE000
0000000000
0000000000
0000000000
0000000000
0007FF8000
003FFFE000
00FFFFF800
01FFFFFE00
03FE03FF00
07F0007F80
0FE0001F80
1FC0000FC0
1F800007E0
3F000007E0
3F000003E0
3E000003F0
7E000001F0
7C000001F0
7C000001F0
7C000001F8
7C000000F8
FC000000F8
FC000000F8
FC000000F8
FC000000F8
FC000000F8
FC000000F8
7C000000F8
7C000001F8
7C000001F8
7C000001F0
7E000001F0
3E000003F0
3E000003E0
3F000007E0
1F800007E0
1F80000FC0
0FC0001F80
07F0003F80
07FC00FF00
03FFFFFE00
00FFFFFC00
007FFFF000
000FFFC000
00003E0000
00003C0000
0000780000
0000F00000
0000F00000
0001E00000
0001E00000
0001E00000
0001F00000
0000FF0000
0000FF0000
00007F0000
ENDCHAR
STARTCHAR 01ED
ENCODING 493
SWIDTH 594 0
DWIDTH 33 0
BBX 28 50 3 -12
BITMAP
03FFFC00
03FFFC00
03FFFC00
03FFFC00
00000000
00000000
00000000
00000000
007FE000
03FFF800
07FFFE00
0FFFFF00
1FC03F00
3F001F80
3E000FC0
7E0007C0
7C0007E0
7C0003E0
FC0003E0
F80003E0
F80003E0
F80003F0
F80001F0
F80001F0
F80003F0
F80003E0
F80003E0
FC0003E0
7C0003E0
7C0007E0
7E0007C0
3E000FC0
3F000F80
1F803F80
0FFFFF00
07FFFE00
03FFF800
00FFF000
00078000
000F0000
001E0000
001E0000
003C0000
003C0000
003C0000
003C0000
003E0000
003FE000
001FE000
000FE000
ENDCHAR
STARTCHAR 01EE
ENCODING 494
SWIDTH 576 0
DWIDTH 32 0
BBX 27 53 2 -1
BITMAP
0F803C00
07C07800
03E1F800
01F3F000
00FFE000
007FC000
007F8000
003F0000
00000000
00000000
00000000
00000000
7FFFFFC0
7FFFFFC0
7FFFFFC0
7FFFFFC0
7FFFFF80
00001F00
00003E00
00007C00
0000F800
0003F000
0007E000
000FC000
001F8000
003F0000
007E0000
00FC0000
01F80000
03F80000
03FFE000
03FFFC00
03FFFE00
001FFF80
00007FC0
00000FC0
000007E0
000007E0
000003E0
000003E0
000003E0
000003E0
000003E0
000003E0
000007E0
00000FC0
C0001FC0
F8007F80
FFFFFF00
FFFFFE00
FFFFFC00
1FFFE000
00140000
ENDCHAR
STARTCHAR 01EF
ENCODING 495
SWIDTH 486 0
DWIDTH 27 0
BBX 25 56 1 -13
BITMAP
1C003800
1E00F800
0F81F000
07C3E000
03E7C000
01FF8000
01FF0000
00FF0000
007E0000
00000000
00000000
00000000
00000000
7FFFFE00
7FFFFE00
7FFFFE00
7FFFFE00
00007E00
0000FC00
0000F800
0001F000
0003E000
0007C000
000F8000
001F0000
003E0000
007E0000
00FC0000
01F80000
01F00000
03F80000
07FF8000
07FFE000
07FFF000
000FFC00
0001FC00
00007E00
00003F00
00001F00
00001F00
00000F80
00000F80
00000F80
00000F80
00000F80
00000F80
00001F00
00001F00
00003F00
00003E00
8000FE00
F001FC00
FFFFF800
FFFFF000
FFFFC000
1FFF0000
ENDCHAR
STARTCHAR 01F0
ENCODING 496
SWIDTH 252 0
DWIDTH 14 0
BBX 20 56 -3 -13
BITMAP
7000F0
7C01E0
3E07C0
1F0F80
0F9F00
07FF00
03FE00
03FC00
01F800
000000
000000
000000
000000
00F800
00F800
00F800
00F800
00F800
00F800
00F800
00F800
00F800
00F800
00F800
00F800
00F800
00F800
00F800
00F800
00F800
00F800
00F800
00F800
00F800
00F800
00F800
00F800
00F800
00F800
00F800
00F800
00F800
00F800
00F800
00F800
00F800
00F800
00F800
00F800
00F000
01F000
03F000
FFF000
FFE000
FFC000
FF8000
ENDCHAR
STARTCHAR 01F1
ENCODING 497
SWIDTH 1278 0
DWIDTH 71 0
BBX 65 40 5 0
BITMAP
FFFF000003FFFFFF00
FFFFF00003FFFFFF00
FFFFFE0003FFFFFF00
FFFFFF8003FFFFFF00
FFFFFFC003FFFFFF00
F8003FE00000003E00
F8000FF00000007C00
F80003F8000000FC00
F80001F8000000F800
F80000FC000001F000
F800007C000003F000
F800007E000003E000
F800003E000007C000
F800003E00000FC000
F800003F00000F8000
F800001F00001F8000
F800001F00003F0000
F800001F00003E0000
F800001F00007E0000
F800001F0000FC0000
F800001F0000F80000
F800001F0001F80000
F800001F0003F00000
F800001F0003E00000
F800003F0007E00000
F800003F000FC00000
F800003E000F800000
F800003E001F800000
F800007E003F000000
F800007C003E000000
F80000FC007E000000
F80001F800FC000000
F80003F800F8000000
F80007F001F8000000
F8003FE003F0000000
F803FFC003E0000000
FFFFFF8007FFFFFF80
FFFFFE0007FFFFFF80
FFFFF80007FFFFFF80
FFFF800007FFFFFF80
ENDCHAR
STARTCHAR 01F2
ENCODING 498
SWIDTH 1188 0
DWIDTH 66 0
BBX 60 40 5 0
BITMAP
FFFF000000000000
FFFFF00000000000
FFFFFE0000000000
FFFFFF8000000000
FFFFFFC000000000
F8003FE000000000
F8000FF000000000
F80003F800000000
F80001F800000000
F80000FC00000000
F800007C01FFFFE0
F800007E01FFFFE0
F800003E01FFFFE0
F800003E01FFFFE0
F800003F000007E0
F800001F000007C0
F800001F00000F80
F800001F00001F80
F800001F00001F00
F800001F00003E00
F800001F00007C00
F800001F0000FC00
F800001F0000F800
F800001F0001F000
F800003F0003F000
F800003F0003E000
F800003E0007C000
F800003E000FC000
F800007E000F8000
F800007C001F0000
F80000FC003E0000
F80001F8007E0000
F80003F8007C0000
F80007F000F80000
F8003FE001F80000
F803FFC001F00000
FFFFFF8003FFFFF0
FFFFFE0003FFFFF0
FFFFF80003FFFFF0
FFFF800003FFFFF0
ENDCHAR
STARTCHAR 01F3
ENCODING 499
SWIDTH 1080 0
DWIDTH 60 0
BBX 55 43 3 -1
BITMAP
000003C0000000
000003C0000000
000003C0000000
000003C0000000
000003C0000000
000003C0000000
000003C0000000
000003C0000000
000003C0000000
000003C0000000
000003C0000000
000003C0000000
00FF83C03FFFFE
03FFE3C03FFFFE
0FFFF3C03FFFFE
1FFFFBC03FFFFE
1FC07FC000007C
3F001FC00000FC
3E000FC00000F8
7E000FC00001F0
7C0007C00003E0
7C0007C00007E0
FC0007C00007C0
F80007C0000F80
F80007C0001F80
F80003C0001F00
F80003C0003E00
F80003C0007E00
F80003C0007C00
F80003C000F800
F80007C001F000
F80007C003F000
7C0007C003E000
7C0007C007C000
7C000FC00FC000
7E000FC00F8000
3F001FC01F0000
3F803FC03E0000
1FFFFBC03FFFFE
0FFFF3C07FFFFE
07FFE3C07FFFFE
01FF83C07FFFFE
00080000000000
ENDCHAR
ENDFONT
